<svg xmlns="http://www.w3.org/2000/svg" viewBox="0 0 750 500"><g id="freepik--background-complete--inject-2"><polygon points="482.48 475.98 481.48 475.98 481.48 303.51 446.54 255.82 446.54 213.71 447.54 213.71 447.54 255.49 482.48 303.18 482.48 475.98" style="fill:#ebebeb"></polygon><path d="M447,214.27a3.61,3.61,0,1,1,3.6-3.61A3.61,3.61,0,0,1,447,214.27Zm0-6.21a2.61,2.61,0,1,0,2.6,2.6A2.61,2.61,0,0,0,447,208.06Z" style="fill:#ebebeb"></path><polygon points="473.48 475.98 472.48 475.98 472.48 309.27 437.54 261.58 437.54 238.22 438.54 238.22 438.54 261.26 473.48 308.95 473.48 475.98" style="fill:#ebebeb"></polygon><path d="M438,238.78a3.61,3.61,0,1,1,3.6-3.61A3.61,3.61,0,0,1,438,238.78Zm0-6.21a2.61,2.61,0,1,0,2.6,2.6A2.6,2.6,0,0,0,438,232.57Z" style="fill:#ebebeb"></path><rect x="490.15" y="250.08" width="1" height="225.9" style="fill:#ebebeb"></rect><path d="M490.65,250.58a3.61,3.61,0,1,1,3.61-3.6A3.6,3.6,0,0,1,490.65,250.58Zm0-6.21a2.61,2.61,0,1,0,2.61,2.61A2.6,2.6,0,0,0,490.65,244.37Z" style="fill:#ebebeb"></path><polygon points="499.5 475.19 498.5 475.19 498.5 317.72 522.22 272.97 522.22 181.21 523.22 181.21 523.22 273.22 499.5 317.97 499.5 475.19" style="fill:#ebebeb"></polygon><path d="M522.72,181.71a3.61,3.61,0,1,1,3.61-3.6A3.6,3.6,0,0,1,522.72,181.71Zm0-6.21a2.61,2.61,0,1,0,2.61,2.61A2.6,2.6,0,0,0,522.72,175.5Z" style="fill:#ebebeb"></path><polygon points="507.8 475.34 506.8 475.34 506.8 322.49 506.86 322.38 534.76 273.02 534.76 220.32 535.76 220.32 535.76 273.29 535.7 273.4 507.8 322.75 507.8 475.34" style="fill:#ebebeb"></polygon><path d="M535.26,220.83a3.61,3.61,0,1,1,3.61-3.61A3.61,3.61,0,0,1,535.26,220.83Zm0-6.21a2.61,2.61,0,1,0,2.61,2.6A2.6,2.6,0,0,0,535.26,214.62Z" style="fill:#ebebeb"></path><polygon points="268.52 475.98 267.52 475.98 267.52 409.12 267.62 408.98 302.46 361.43 302.46 319.64 303.46 319.64 303.46 361.75 303.37 361.88 268.52 409.44 268.52 475.98" style="fill:#ebebeb"></polygon><path d="M303,320.2a3.61,3.61,0,1,1,3.61-3.61A3.61,3.61,0,0,1,303,320.2Zm0-6.21a2.61,2.61,0,1,0,2.61,2.6A2.61,2.61,0,0,0,303,314Z" style="fill:#ebebeb"></path><polygon points="277.52 475.98 276.52 475.98 276.52 414.88 276.62 414.74 311.46 367.19 311.46 344.15 312.46 344.15 312.46 367.51 312.37 367.65 277.52 415.2 277.52 475.98" style="fill:#ebebeb"></polygon><path d="M312,344.71a3.61,3.61,0,1,1,3.61-3.61A3.61,3.61,0,0,1,312,344.71Zm0-6.21a2.61,2.61,0,1,0,2.61,2.6A2.6,2.6,0,0,0,312,338.5Z" style="fill:#ebebeb"></path><rect x="258.85" y="309.33" width="1" height="166.65" style="fill:#ebebeb"></rect><path d="M259.35,309.83a3.61,3.61,0,1,1,3.6-3.6A3.61,3.61,0,0,1,259.35,309.83Zm0-6.21a2.61,2.61,0,1,0,2.6,2.61A2.61,2.61,0,0,0,259.35,303.62Z" style="fill:#ebebeb"></path><polygon points="251.5 475.19 250.5 475.19 250.5 423.9 226.78 379.15 226.78 275.47 227.78 275.47 227.78 378.9 251.5 423.65 251.5 475.19" style="fill:#ebebeb"></polygon><path d="M227.28,276a3.61,3.61,0,1,1,3.6-3.6A3.61,3.61,0,0,1,227.28,276Zm0-6.21a2.61,2.61,0,1,0,2.6,2.61A2.61,2.61,0,0,0,227.28,269.76Z" style="fill:#ebebeb"></path><polygon points="243.2 475.34 242.2 475.34 242.2 428.69 214.24 379.22 214.24 314.58 215.24 314.58 215.24 378.95 243.2 428.42 243.2 475.34" style="fill:#ebebeb"></polygon><path d="M214.74,315.08a3.6,3.6,0,1,1,3.6-3.6A3.61,3.61,0,0,1,214.74,315.08Zm0-6.2a2.6,2.6,0,1,0,2.6,2.6A2.6,2.6,0,0,0,214.74,308.88Z" style="fill:#ebebeb"></path><path d="M553.35,320.74l-10.53-6.53-2,3.22a2.93,2.93,0,0,1-2.77,1.37c-.61-.05-1.23-.07-1.85-.06a2.91,2.91,0,0,1-2.67-1.54l-1.8-3.34-10.92,5.86,1.79,3.34a2.93,2.93,0,0,1-.2,3.08,17.16,17.16,0,0,0-1,1.58,3,3,0,0,1-2.68,1.55l-3.79-.12-.38,12.39,3.8.11a3,3,0,0,1,2.57,1.73c.13.27.26.54.41.81s.29.54.45.8a2.93,2.93,0,0,1,0,3.07l-2,3.25,10.53,6.53,2-3.23a2.92,2.92,0,0,1,2.77-1.36c.61.05,1.23.07,1.85.06a3,3,0,0,1,2.67,1.53l1.79,3.35,10.92-5.86L550.57,349a3,3,0,0,1,.2-3.08c.35-.51.67-1,1-1.57a2.94,2.94,0,0,1,2.67-1.56l3.8.12.39-12.38-3.81-.12a2.94,2.94,0,0,1-2.55-1.73c-.13-.27-.27-.54-.42-.82s-.29-.53-.45-.79a2.94,2.94,0,0,1,0-3.09Zm-7.82,10.49a10.15,10.15,0,1,1-13.74-4.16A10.13,10.13,0,0,1,545.53,331.23Z" style="fill:#ebebeb"></path><path d="M502,399.39l-2.79-4.84-1.47.86a1.36,1.36,0,0,1-1.4-.05q-.35-.23-.72-.42a1.33,1.33,0,0,1-.73-1.18v-1.71h-5.58v1.71a1.32,1.32,0,0,1-.74,1.18q-.37.19-.72.42a1.34,1.34,0,0,1-1.39.05l-1.48-.86-2.79,4.84,1.49.85a1.35,1.35,0,0,1,.65,1.23c0,.14,0,.28,0,.41s0,.28,0,.41a1.35,1.35,0,0,1-.65,1.23l-1.49.86,2.79,4.83,1.48-.85a1.32,1.32,0,0,1,1.39.05c.24.15.48.29.72.41a1.33,1.33,0,0,1,.74,1.18v1.71h5.58V410a1.32,1.32,0,0,1,.73-1.18,6.37,6.37,0,0,0,.72-.41,1.32,1.32,0,0,1,1.39-.05l1.48.85,2.79-4.83-1.48-.86a1.33,1.33,0,0,1-.65-1.22c0-.14,0-.28,0-.42s0-.27,0-.41a1.35,1.35,0,0,1,.65-1.23Zm-5.33,2.49a4.57,4.57,0,1,1-4.57-4.57A4.57,4.57,0,0,1,496.62,401.88Z" style="fill:#ebebeb"></path><path d="M90.68,116.18l19.43,1.07.33-6a4.61,4.61,0,0,1,2.79-4,26.44,26.44,0,0,0,2.6-1.32,4.61,4.61,0,0,1,4.84.11l5,3.26,10.65-16.31-5-3.26a4.63,4.63,0,0,1-2-4.39,28.36,28.36,0,0,0,.15-2.91A4.65,4.65,0,0,1,132,78.36l5.32-2.69-8.8-17.37L123.13,61a4.64,4.64,0,0,1-4.83-.45l-1.18-.82c-.4-.26-.81-.51-1.22-.75a4.6,4.6,0,0,1-2.35-4.22l.33-6L94.44,47.7l-.33,6a4.63,4.63,0,0,1-2.8,4,26.1,26.1,0,0,0-2.59,1.3,4.63,4.63,0,0,1-4.84-.1l-5-3.26L68.24,71.88l5,3.26a4.61,4.61,0,0,1,2,4.39,28,28,0,0,0-.16,2.9,4.61,4.61,0,0,1-2.51,4.15l-5.33,2.71,8.8,17.36,5.34-2.7a4.62,4.62,0,0,1,4.82.45c.38.28.78.55,1.19.82s.8.51,1.22.75A4.65,4.65,0,0,1,91,110.22Zm2.88-20.35a15.95,15.95,0,1,1,22.07-4.62A15.93,15.93,0,0,1,93.56,95.83Z" style="fill:#ebebeb"></path><path d="M636.12,426.68l19.44,1.07.33-5.95a4.61,4.61,0,0,1,2.79-4,28.74,28.74,0,0,0,2.6-1.31,4.59,4.59,0,0,1,4.84.1l5,3.26,10.65-16.31-5-3.26a4.6,4.6,0,0,1-2-4.39,25.8,25.8,0,0,0,.16-2.91,4.61,4.61,0,0,1,2.52-4.15l5.32-2.69-8.8-17.37-5.34,2.71a4.62,4.62,0,0,1-4.83-.45c-.39-.28-.78-.55-1.18-.81s-.81-.52-1.22-.75a4.62,4.62,0,0,1-2.35-4.23l.32-6-19.43-1.08-.34,6a4.61,4.61,0,0,1-2.79,4,25.14,25.14,0,0,0-2.59,1.31,4.63,4.63,0,0,1-4.84-.11l-5-3.26-10.65,16.31,5,3.26a4.63,4.63,0,0,1,2.05,4.38,25.75,25.75,0,0,0-.16,2.9,4.65,4.65,0,0,1-2.51,4.16l-5.33,2.7,8.8,17.37,5.33-2.71a4.64,4.64,0,0,1,4.82.45c.39.29.79.56,1.19.82s.81.52,1.22.76a4.61,4.61,0,0,1,2.36,4.24ZM639,406.33a15.94,15.94,0,1,1,22.07-4.62A15.93,15.93,0,0,1,639,406.33Z" style="fill:#ebebeb"></path><path d="M183,145.36l9.16.51.15-2.8a2.19,2.19,0,0,1,1.31-1.88,11.8,11.8,0,0,0,1.23-.62,2.18,2.18,0,0,1,2.28.05l2.35,1.54,5-7.68-2.35-1.54a2.17,2.17,0,0,1-1-2.06,12.7,12.7,0,0,0,.07-1.37,2.17,2.17,0,0,1,1.19-2l2.5-1.27-4.14-8.17-2.51,1.27a2.17,2.17,0,0,1-2.28-.21l-.56-.38q-.28-.2-.57-.36a2.19,2.19,0,0,1-1.11-2l.16-2.82-9.16-.51-.15,2.81a2.17,2.17,0,0,1-1.32,1.87c-.42.19-.82.39-1.22.62a2.18,2.18,0,0,1-2.28,0l-2.35-1.54-5,7.68,2.35,1.54a2.17,2.17,0,0,1,1,2.06,12.57,12.57,0,0,0-.07,1.37,2.2,2.2,0,0,1-1.19,2L172,132.7l4.14,8.18,2.51-1.28a2.17,2.17,0,0,1,2.27.22l.56.38c.19.13.38.24.57.36a2.18,2.18,0,0,1,1.12,2Zm1.36-9.58a7.51,7.51,0,1,1,10.39-2.18A7.51,7.51,0,0,1,184.35,135.78Z" style="fill:#dbdbdb"></path></g><g id="freepik--Robot--inject-2"><path d="M333.12,111.49c-2.9.05-10.89,8.64-10.33,11.65s9.19,8.58,12.85,7.39C337.21,130,336,111.43,333.12,111.49Z" style="fill:#7C8CFF"></path><path d="M333.12,111.49c-2.9.05-10.89,8.64-10.33,11.65s9.19,8.58,12.85,7.39C337.21,130,336,111.43,333.12,111.49Z" style="opacity:0.2"></path><path d="M416.88,111.49c2.9.05,10.89,8.64,10.33,11.65s-9.19,8.58-12.85,7.39C412.79,130,414,111.43,416.88,111.49Z" style="fill:#7C8CFF"></path><path d="M416.88,111.49c2.9.05,10.89,8.64,10.33,11.65s-9.19,8.58-12.85,7.39C412.79,130,414,111.43,416.88,111.49Z" style="opacity:0.2"></path><path d="M309,220l-6-.3c.06-1.13,1.52-27.83,10.42-50.51l5.59,2.19C310.49,193.16,309,219.77,309,220Z" style="fill:#263238"></path><path d="M322,156.89c-3.13-.23-16.31,10.82-16,14.78s13,11.25,17,10.09C324.8,181.26,325.09,157.12,322,156.89Z" style="fill:#7C8CFF"></path><rect x="318.75" y="149.7" width="17.01" height="43.9" rx="8.41" style="fill:#7C8CFF"></rect><rect x="318.75" y="149.7" width="17.01" height="43.9" rx="8.41" style="opacity:0.2"></rect><path d="M303.9,314.48c-.89-1.05-3.8-4.72-3.8-7.64,0-2.35,1.39-9.77,1.67-11.23l4.91.93c-.61,3.21-1.58,8.84-1.58,10.3,0,.7,1.29,2.85,2.62,4.41Z" style="fill:#263238"></path><path d="M321.89,312.25l-4.72-1.64c1-2.84,1.7-6.19,1.52-7s-2.86-3.41-5.42-5.59l3.25-3.81c1.78,1.52,6,5.32,6.89,7.77S322.85,309.49,321.89,312.25Z" style="fill:#263238"></path><rect x="308.62" y="297.01" width="5" height="17.67" transform="translate(-45.72 54.85) rotate(-9.39)" style="fill:#263238"></rect><path d="M304.7,211.13c-10.68,1.2-11.54,14.59,1.92,13.08S314.6,210,304.7,211.13Z" style="fill:#7C8CFF"></path><path d="M304.7,211.13c-10.68,1.2-11.54,14.59,1.92,13.08S314.6,210,304.7,211.13Z" style="fill:#fff;opacity:0.6000000000000001"></path><path d="M328.07,292.74c-.39,1.39-4.44,7-18.72,7.53s-18.73-4.78-19.22-6.13c-2.5-6.88,2.09-64.88,4.24-72.86.43-1.61,7.19-3.25,11.94-3.42s11.6,1,12.15,2.53C321.2,228.19,330.05,285.7,328.07,292.74Z" style="fill:#7C8CFF"></path><g style="opacity:0.2"><path d="M313.87,218.45c3.31,25.78,6.08,53.09,8.08,79-3.3-25.82-6.11-53.1-8.08-79Z"></path><path d="M324.33,273.35c.43,3.35,0,13-5.37,10.9-5.33-3.3-6.65-16.17-2.1-20.48,4.85-3.11,7.21,6.22,7.47,9.58Zm0,0c-.08-2.92-3-12.17-7.08-9.13-3.7,4-2.46,16.3,2,19.51,4.61,2.16,5.6-7.49,5.09-10.38Z"></path><path d="M322.23,273.57c.42,4.11-.45,7.57-1.94,7.72s-3-3.06-3.46-7.17.45-7.57,1.94-7.72S321.81,269.46,322.23,273.57Z"></path><path d="M289.58,275.63a338.8,338.8,0,0,1,37.13-2.52,339,339,0,0,1-37.13,2.52Z"></path><path d="M312.79,228.44a1.28,1.28,0,1,1-2.54.26,1.28,1.28,0,1,1,2.54-.26Zm0,0a.78.78,0,1,0-1.55.16.78.78,0,1,0,1.55-.16Z"></path><path d="M314.41,244.25a1.28,1.28,0,1,1-2.54.26,1.28,1.28,0,1,1,2.54-.26Zm0,0a.78.78,0,1,0-1.55.16.78.78,0,1,0,1.55-.16Z"></path><path d="M316,260.07a1.28,1.28,0,1,1-2.55.26,1.28,1.28,0,1,1,2.55-.26Zm0,0a.78.78,0,1,0-1.55.16.78.78,0,1,0,1.55-.16Z"></path><path d="M319.26,291.71a1.28,1.28,0,1,1-2.54.26,1.28,1.28,0,1,1,2.54-.26Zm0,0a.78.78,0,1,0-1.55.16.78.78,0,1,0,1.55-.16Z"></path></g><path d="M441,220c0-.26-1.47-26.87-10-48.62l5.59-2.19c8.9,22.68,10.36,49.38,10.42,50.51Z" style="fill:#263238"></path><path d="M428,156.89c3.13-.23,16.31,10.82,16,14.78s-13,11.25-17,10.09C425.2,181.26,424.91,157.12,428,156.89Z" style="fill:#7C8CFF"></path><rect x="414.23" y="149.7" width="17.01" height="43.9" rx="8.41" transform="translate(845.48 343.3) rotate(180)" style="fill:#7C8CFF"></rect><rect x="414.23" y="149.7" width="17.01" height="43.9" rx="8.41" transform="translate(845.48 343.3) rotate(180)" style="opacity:0.2"></rect><path d="M446.1,314.48l-3.82-3.23c1.32-1.57,2.6-3.71,2.62-4.41,0-1.46-1-7.09-1.58-10.3l4.91-.93c.28,1.46,1.67,8.88,1.67,11.23C449.9,309.76,447,313.43,446.1,314.48Z" style="fill:#263238"></path><path d="M428.11,312.25c-1-2.76-2.43-7.77-1.52-10.31s5.11-6.25,6.89-7.77l3.25,3.81c-2.56,2.18-5.1,4.82-5.44,5.65-.17.79.56,4.14,1.54,7Z" style="fill:#263238"></path><rect x="430.04" y="303.34" width="17.67" height="5" transform="translate(65.49 688.9) rotate(-80.6)" style="fill:#263238"></rect><path d="M445.3,211.13c10.68,1.2,11.54,14.59-1.92,13.08S435.4,210,445.3,211.13Z" style="fill:#7C8CFF"></path><path d="M445.3,211.13c10.68,1.2,11.54,14.59-1.92,13.08S435.4,210,445.3,211.13Z" style="fill:#fff;opacity:0.6000000000000001"></path><path d="M421.93,292.74c.39,1.39,4.44,7,18.72,7.53s18.73-4.78,19.22-6.13c2.5-6.88-2.09-64.88-4.24-72.86-.43-1.61-7.19-3.25-11.94-3.42s-11.6,1-12.15,2.53C428.8,228.19,420,285.7,421.93,292.74Z" style="fill:#7C8CFF"></path><g style="opacity:0.2"><path d="M436.13,218.45c-2,25.92-4.78,53.22-8.08,79,2-26,4.77-53.24,8.08-79Z"></path><path d="M425.67,273.35c-.51,2.89.48,12.54,5.09,10.38,4.44-3.2,5.69-15.46,2-19.51-4.06-3.05-7,6.21-7.08,9.13Zm0,0c.26-3.36,2.62-12.69,7.47-9.58,4.55,4.3,3.23,17.18-2.1,20.48-5.37,2.06-5.8-7.55-5.37-10.9Z"></path><path d="M427.77,273.57c-.42,4.11.45,7.57,1.94,7.72s3-3.06,3.46-7.17-.45-7.57-1.94-7.72S428.19,269.46,427.77,273.57Z"></path><path d="M460.42,275.63a339.14,339.14,0,0,1-37.13-2.52,338.8,338.8,0,0,1,37.13,2.52Z"></path><path d="M437.21,228.44a.78.78,0,1,0,1.55.16.78.78,0,1,0-1.55-.16Zm0,0a1.28,1.28,0,1,1,2.54.26,1.28,1.28,0,1,1-2.54-.26Z"></path><path d="M435.59,244.25a.78.78,0,1,0,1.55.16.78.78,0,1,0-1.55-.16Zm0,0a1.28,1.28,0,1,1,2.54.26,1.28,1.28,0,1,1-2.54-.26Z"></path><path d="M434,260.07a.78.78,0,1,0,1.55.16.78.78,0,1,0-1.55-.16Zm0,0a1.28,1.28,0,1,1,2.55.26,1.28,1.28,0,1,1-2.55-.26Z"></path><path d="M430.74,291.71a.78.78,0,1,0,1.55.16.78.78,0,1,0-1.55-.16Zm0,0a1.28,1.28,0,1,1,2.54.26,1.28,1.28,0,1,1-2.54-.26Z"></path></g><path d="M345.91,305.35c-1.55-4.63,6.14-35.14,8.07-37.17s11.93,2.11,12.29,3.62-3.76,34-6.24,35.18S346.78,308,345.91,305.35Z" style="fill:#263238"></path><path d="M336.08,294c1.05-4.08,29.76,13.2,31.33,16.33s1.55,158,0,160-44.8,1.62-49.5-.62S332.63,307.34,336.08,294Z" style="fill:#7C8CFF"></path><path d="M361.88,476c0-5.58-26.07-13.77-34.14-13.77s-26.18,8.46-26.18,13.77Z" style="fill:#263238"></path><g style="opacity:0.2"><path d="M361.88,310.25c.65,50,.65,106.18,0,156.22-.66-50-.65-106.18,0-156.22Z"></path><path d="M366.35,388.36c.08,3.15-1.21,12-6,9.57-4.65-3.6-4.66-15.54,0-19.14,4.8-2.42,6.08,6.43,6,9.57Zm0,0c.2-2.71-1.61-11.48-5.66-9.08-3.77,3.38-3.77,14.78,0,18.17,4.05,2.4,5.86-6.37,5.66-9.09Z"></path><path d="M364.39,388.36c0,3.84-1.12,6.95-2.51,6.95s-2.52-3.11-2.52-6.95,1.13-6.95,2.52-6.95S364.39,384.52,364.39,388.36Z"></path><path d="M323.83,386.83c14.9-.17,29.89.34,44.75,1.53-14.91.18-29.9-.34-44.75-1.53Z"></path><path d="M359.94,316.28a1.21,1.21,0,1,1-2.41,0,1.21,1.21,0,1,1,2.41,0Zm0,0a.71.71,0,1,0-1.41,0,.71.71,0,1,0,1.41,0Z"></path><path d="M359.94,331a1.21,1.21,0,1,1-2.41,0,1.21,1.21,0,1,1,2.41,0Zm0,0a.71.71,0,1,0-1.41,0,.71.71,0,1,0,1.41,0Z"></path><path d="M359.94,345.8a1.21,1.21,0,1,1-2.41,0,1.21,1.21,0,1,1,2.41,0Zm0,0a.71.71,0,1,0-1.41,0,.71.71,0,1,0,1.41,0Z"></path><path d="M359.94,360.55a1.21,1.21,0,1,1-2.41,0,1.21,1.21,0,1,1,2.41,0Zm0,0a.71.71,0,1,0-1.41,0,.71.71,0,1,0,1.41,0Z"></path><path d="M359.94,375.31a1.21,1.21,0,1,1-2.41,0,1.21,1.21,0,1,1,2.41,0Zm0,0a.71.71,0,1,0-1.41,0,.71.71,0,1,0,1.41,0Z"></path><path d="M359.94,404.83a1.21,1.21,0,1,1-2.41,0,1.21,1.21,0,1,1,2.41,0Zm0,0a.71.71,0,1,0-1.41,0,.71.71,0,1,0,1.41,0Z"></path><path d="M359.94,419.59a1.21,1.21,0,1,1-2.41,0,1.21,1.21,0,1,1,2.41,0Zm0,0a.71.71,0,1,0-1.41,0,.71.71,0,1,0,1.41,0Z"></path><path d="M359.94,434.35a1.21,1.21,0,1,1-2.41,0,1.21,1.21,0,1,1,2.41,0Zm0,0a.71.71,0,1,0-1.41,0,.71.71,0,1,0,1.41,0Z"></path><path d="M359.94,449.1a1.21,1.21,0,1,1-2.41,0,1.21,1.21,0,1,1,2.41,0Zm0,0a.71.71,0,1,0-1.41,0,.71.71,0,1,0,1.41,0Z"></path><path d="M359.94,463.86a1.21,1.21,0,1,1-2.41,0,1.21,1.21,0,1,1,2.41,0Zm0,0a.71.71,0,1,0-1.41,0,.71.71,0,1,0,1.41,0Z"></path></g><path d="M404.09,305.35c1.55-4.63-6.14-35.14-8.07-37.17s-11.93,2.11-12.29,3.62,3.76,34,6.24,35.18S403.22,308,404.09,305.35Z" style="fill:#263238"></path><path d="M413.92,294c-1.05-4.08-29.76,13.2-31.33,16.33s-1.55,158,0,160,44.8,1.62,49.5-.62S417.37,307.34,413.92,294Z" style="fill:#7C8CFF"></path><path d="M388.12,476c0-5.58,26.07-13.77,34.14-13.77s26.18,8.46,26.18,13.77Z" style="fill:#263238"></path><g style="opacity:0.2"><path d="M388.12,310.25c.65,50,.66,106.18,0,156.22-.65-50-.65-106.18,0-156.22Z"></path><path d="M383.65,388.36c-.2,2.72,1.61,11.49,5.66,9.09,3.77-3.38,3.77-14.79,0-18.17-4.05-2.4-5.86,6.37-5.66,9.08Zm0,0c-.08-3.15,1.2-12,6-9.57,4.64,3.6,4.64,15.54,0,19.14-4.79,2.42-6.07-6.42-6-9.57Z"></path><path d="M385.61,388.36c0,3.84,1.12,6.95,2.51,6.95s2.52-3.11,2.52-6.95-1.13-6.95-2.52-6.95S385.61,384.52,385.61,388.36Z"></path><path d="M426.17,386.83c-14.85,1.19-29.84,1.71-44.75,1.53,14.86-1.19,29.85-1.7,44.75-1.53Z"></path><path d="M390.06,316.28a.71.71,0,1,0,1.41,0,.71.71,0,1,0-1.41,0Zm0,0a1.21,1.21,0,1,1,2.41,0,1.21,1.21,0,1,1-2.41,0Z"></path><path d="M390.06,331a.71.71,0,1,0,1.41,0,.71.71,0,1,0-1.41,0Zm0,0a1.21,1.21,0,1,1,2.41,0,1.21,1.21,0,1,1-2.41,0Z"></path><path d="M390.06,345.8a.71.71,0,1,0,1.41,0,.71.71,0,1,0-1.41,0Zm0,0a1.21,1.21,0,1,1,2.41,0,1.21,1.21,0,1,1-2.41,0Z"></path><path d="M390.06,360.55a.71.71,0,1,0,1.41,0,.71.71,0,1,0-1.41,0Zm0,0a1.21,1.21,0,1,1,2.41,0,1.21,1.21,0,1,1-2.41,0Z"></path><path d="M390.06,375.31a.71.71,0,1,0,1.41,0,.71.71,0,1,0-1.41,0Zm0,0a1.21,1.21,0,1,1,2.41,0,1.21,1.21,0,1,1-2.41,0Z"></path><path d="M390.06,404.83a.71.71,0,1,0,1.41,0,.71.71,0,1,0-1.41,0Zm0,0a1.21,1.21,0,1,1,2.41,0,1.21,1.21,0,1,1-2.41,0Z"></path><path d="M390.06,419.59a.71.71,0,1,0,1.41,0,.71.71,0,1,0-1.41,0Zm0,0a1.21,1.21,0,1,1,2.41,0,1.21,1.21,0,1,1-2.41,0Z"></path><path d="M390.06,434.35a.71.71,0,1,0,1.41,0,.71.71,0,1,0-1.41,0Zm0,0a1.21,1.21,0,1,1,2.41,0,1.21,1.21,0,1,1-2.41,0Z"></path><path d="M390.06,449.1a.71.71,0,1,0,1.41,0,.71.71,0,1,0-1.41,0Zm0,0a1.21,1.21,0,1,1,2.41,0,1.21,1.21,0,1,1-2.41,0Z"></path><path d="M390.06,463.86a.71.71,0,1,0,1.41,0,.71.71,0,1,0-1.41,0Zm0,0a1.21,1.21,0,1,1,2.41,0,1.21,1.21,0,1,1-2.41,0Z"></path></g><path d="M400.38,275C398.22,277.28,382.66,280,375,280s-23.22-2.73-25.38-5.06-5.89-25.26-5.21-26.61S369,246,375,246s29.92,1,30.59,2.34S402.54,272.63,400.38,275Z" style="fill:#7C8CFF"></path><rect x="350.99" y="240.92" width="48.01" height="5.45" style="fill:#263238"></rect><rect x="350.99" y="233.76" width="48.01" height="5.45" style="fill:#263238"></rect><rect x="350.99" y="226.61" width="48.01" height="5.45" style="fill:#263238"></rect><rect x="350.99" y="219.46" width="48.01" height="5.45" style="fill:#263238"></rect><path d="M408.93,235.87c-2.87,2.87-10.92,2-12.64,1.35-2.19-.81-2.77-8.82-2.77-8.82h-37s-.58,8-2.77,8.82c-1.72.62-9.78,1.52-12.64-1.35s-20.31-73.73-16.27-78.79,30.64-9.61,50.2-9.61,46.15,4.55,50.2,9.61S411.8,233,408.93,235.87Z" style="fill:#7C8CFF"></path><g style="opacity:0.2"><path d="M420.17,195a299.3,299.3,0,0,1-34.91-1.61A297.13,297.13,0,0,1,420.17,195Z"></path><path d="M364.74,193.4a299.3,299.3,0,0,1-34.91,1.6,299.3,299.3,0,0,1,34.91-1.6Z"></path><path d="M364.74,193.4c-.12-1.11-.17-2.22-.26-3.33h.26q10.25-.51,20.52,0h.27l0,.25c-.08,1-.13,2.06-.25,3.1-.12-1-.17-2.07-.26-3.1l.26.25q-10.26.49-20.52,0l.24-.24c-.08,1-.13,2.06-.24,3.1Z"></path><path d="M367.3,172.71a25.54,25.54,0,0,1,0,14.42,25.72,25.72,0,0,1,0-14.42Z"></path><path d="M371.15,172.71a25.72,25.72,0,0,1,0,14.42,25.72,25.72,0,0,1,0-14.42Z"></path><path d="M375,172.71a25.72,25.72,0,0,1,0,14.42,25.72,25.72,0,0,1,0-14.42Z"></path><path d="M378.85,172.71a25.72,25.72,0,0,1,0,14.42,25.54,25.54,0,0,1,0-14.42Z"></path><path d="M382.69,172.71a25.72,25.72,0,0,1,0,14.42,25.72,25.72,0,0,1,0-14.42Z"></path><path d="M328.42,154.58c6.13,26.62,12.2,56.22,17,83.12-6.13-26.64-12.2-56.23-17-83.12Z"></path><path d="M334.92,160.53a1.21,1.21,0,1,1-2.4.25,1.21,1.21,0,1,1,2.4-.25Zm0,0a.71.71,0,1,0-1.41.15.71.71,0,1,0,1.41-.15Z"></path><path d="M337.44,174a1.21,1.21,0,1,1-2.4.25,1.21,1.21,0,1,1,2.4-.25Zm0,0a.71.71,0,1,0-1.41.15.71.71,0,1,0,1.41-.15Z"></path><path d="M340,187.39a1.21,1.21,0,1,1-2.4.25,1.21,1.21,0,1,1,2.4-.25Zm0,0a.71.71,0,1,0-1.41.15.71.71,0,1,0,1.41-.15Z"></path><path d="M342.48,200.82a1.21,1.21,0,1,1-2.4.25,1.21,1.21,0,1,1,2.4-.25Zm0,0a.71.71,0,1,0-1.41.14.71.71,0,1,0,1.41-.14Z"></path><path d="M345,214.25a1.21,1.21,0,1,1-2.4.24,1.21,1.21,0,1,1,2.4-.24Zm0,0a.71.71,0,1,0-1.41.14.71.71,0,1,0,1.41-.14Z"></path><path d="M347.52,227.68a1.21,1.21,0,1,1-2.4.24,1.21,1.21,0,1,1,2.4-.24Zm0,0a.71.71,0,1,0-1.41.14.71.71,0,1,0,1.41-.14Z"></path><path d="M421.58,154.58c-4.84,26.88-10.91,56.49-17.05,83.12,4.85-26.9,10.92-56.5,17.05-83.12Z"></path><path d="M415.08,160.53a.71.71,0,1,0,1.4.15.71.71,0,1,0-1.4-.15Zm0,0a1.21,1.21,0,1,1,2.4.25,1.21,1.21,0,1,1-2.4-.25Z"></path><path d="M412.56,174a.71.71,0,1,0,1.4.15.71.71,0,1,0-1.4-.15Zm0,0a1.21,1.21,0,1,1,2.4.25,1.21,1.21,0,1,1-2.4-.25Z"></path><path d="M410,187.39a.7.7,0,1,0,1.4.15.7.7,0,1,0-1.4-.15Zm0,0a1.21,1.21,0,1,1,2.4.25,1.21,1.21,0,1,1-2.4-.25Z"></path><path d="M407.52,200.82a.7.7,0,1,0,1.4.14.7.7,0,1,0-1.4-.14Zm0,0a1.21,1.21,0,1,1,2.4.25,1.21,1.21,0,1,1-2.4-.25Z"></path><path d="M405,214.25a.7.7,0,1,0,1.4.14.7.7,0,1,0-1.4-.14Zm0,0a1.21,1.21,0,1,1,2.4.24,1.21,1.21,0,1,1-2.4-.24Z"></path><path d="M402.48,227.68a.7.7,0,1,0,1.4.14.7.7,0,1,0-1.4-.14Zm0,0a1.21,1.21,0,1,1,2.4.24,1.21,1.21,0,1,1-2.4-.24Z"></path></g><rect x="366.5" y="125.81" width="17" height="29.62" style="fill:#263238"></rect><path d="M414,134.71c-2.81,5.61-29.89,7-38.95,7s-36.13-1.42-38.95-7c-3.3-6.6-4.49-32-3.3-41.07,1-7.94,27.67-9.45,42.25-9.45s41.23,1.51,42.25,9.45C418.44,102.75,417.25,128.11,414,134.71Z" style="fill:#7C8CFF"></path><path d="M390.11,96.4c-1.08,1.83-11.6,2.29-15.11,2.29s-14-.46-15.11-2.29C358.6,94.24,358.14,86,358.6,83c.4-2.6,10.74-3.09,16.4-3.09s16,.49,16.4,3.09C391.86,86,391.4,94.24,390.11,96.4Z" style="fill:#7C8CFF"></path><path d="M389.67,96c-1.34,1.29-3.49,1.28-5.24,1.63a88.34,88.34,0,0,1-16.74.7c-2.35-.2-4.83-.23-7.1-1.2a2.44,2.44,0,0,1-1.24-1.39A31.37,31.37,0,0,1,358,84.38a6.53,6.53,0,0,1,.25-1.7,3.11,3.11,0,0,1,1.46-1.42c5.27-2.62,25.93-2.18,30.78,1a1.64,1.64,0,0,1,.65,1.35c.1,4.12.1,8.52-1.46,12.39Zm0,0c1.41-3.42,1.32-7.33,1.25-11-.11-.82.06-1.89-.71-2.41-2.37-1.32-5.32-1.28-8-1.5A92,92,0,0,0,363,82.25a6.61,6.61,0,0,0-3,1.2c0-.09,0,.21-.05.41-.22,3.8-.24,7.94.89,11.59.1.25.08.24.38.43,4.65,2.21,24.43,3.31,28.39.15Z" style="opacity:0.1"></path><path d="M405.58,128.5c-2.14,4.27-23.69,5.34-30.58,5.34s-28.44-1.07-30.58-5.34c-2.51-5-3.41-13.9-2.51-20.83.78-6,22-7.19,33.09-7.19s32.32,1.15,33.09,7.19C409,114.6,408.09,123.48,405.58,128.5Z" style="fill:#263238"></path><rect x="354.13" y="109.52" width="3.47" height="15.28" style="fill:#7C8CFF"></rect><rect x="392.41" y="109.52" width="3.47" height="15.28" style="fill:#7C8CFF"></rect></g><g id="freepik--Chart--inject-2"><path d="M461,98v55.55H566.17V75.38H485.34A26.38,26.38,0,0,1,461,98Z" style="fill:#7C8CFF;opacity:0.5"></path><rect x="472.48" y="143.24" width="4.24" height="4.24" style="fill:#fff"></rect><rect x="479.66" y="143.24" width="46.41" height="1.25" style="fill:#fff"></rect><rect x="479.66" y="146.22" width="29.99" height="1.25" style="fill:#fff"></rect><path d="M470.59,97.61c14.34-.09,28.67-.06,43-.1s28.67,0,43,.1c-14.34.09-28.67.07-43,.11S484.93,97.7,470.59,97.61Z" style="fill:#fff"></path><path d="M470.59,106.11c14.34-.09,28.67-.06,43-.1s28.67,0,43,.1c-14.34.09-28.67.07-43,.11S484.93,106.2,470.59,106.11Z" style="fill:#fff"></path><path d="M470.59,114.61c14.34-.09,28.67-.06,43-.1s28.67,0,43,.1c-14.34.09-28.67.07-43,.11S484.93,114.7,470.59,114.61Z" style="fill:#fff"></path><path d="M470.59,123.11c14.34-.09,28.67-.07,43-.1s28.67,0,43,.1c-14.34.09-28.67.07-43,.1S484.93,123.2,470.59,123.11Z" style="fill:#fff"></path><path d="M470.59,131.61c14.34-.09,28.67-.07,43-.1s28.67,0,43,.1c-14.34.09-28.67.07-43,.1S484.93,131.7,470.59,131.61Z" style="fill:#fff"></path><path d="M487.91,92.09c.13,7.94.09,15.88.15,23.82s0,15.88-.15,23.83c-.13-8-.1-15.89-.15-23.83S487.78,100,487.91,92.09Z" style="fill:#fff"></path><path d="M502.78,92.09c.13,7.94.1,15.88.15,23.82s0,15.88-.15,23.83c-.12-8-.09-15.89-.14-23.83S502.66,100,502.78,92.09Z" style="fill:#fff"></path><path d="M517.66,92.09c.13,7.94.09,15.88.15,23.82s0,15.88-.15,23.83c-.13-8-.1-15.89-.15-23.83S517.53,100,517.66,92.09Z" style="fill:#fff"></path><path d="M532.53,92.09c.13,7.94.1,15.88.15,23.82s0,15.88-.15,23.83c-.12-8-.09-15.89-.14-23.83S532.41,100,532.53,92.09Z" style="fill:#fff"></path><path d="M547.41,92.09c.13,7.94.09,15.88.15,23.82s0,15.88-.15,23.83c-.13-8-.1-15.89-.15-23.83S547.28,100,547.41,92.09Z" style="fill:#fff"></path><path d="M472.76,125.45c2.62,0,4.19-8.64,7.91-8.64s4.11,6.3,7.24,6.3,3-11.06,7.24-11.06,3.23,4.49,7.63,4.49,2.74-10.43,7.34-10.43,2.74,14.36,7.54,14.36c3,0,4.21-4.56,7.83-4.56,2.4,0,3.81,2.28,6.94,2.28s3.82-8.77,7.74-8.77,4.36,5.19,7.24,5.19,3.91-8.5,9.2-8.5v33.63H472.76Z" style="fill:#fff;opacity:0.5"></path><path d="M472.76,125.86V125c.79,0,1.89-2,2.69-3.49,1.37-2.53,2.79-5.14,5.22-5.14s3.48,1.91,4.5,3.6c.8,1.33,1.63,2.7,2.74,2.7s1.83-2.66,2.45-4.6c1-3.18,2.06-6.47,4.79-6.47a4.75,4.75,0,0,1,4.24,2.43c.82,1.11,1.52,2.06,3.39,2.06,1.7,0,2.36-2.43,3-4.79.75-2.77,1.53-5.63,4.34-5.63s3.5,3.6,4.26,7.42c.61,3.09,1.37,6.94,3.28,6.94,1.14,0,2.07-1,3.06-2,1.21-1.23,2.57-2.61,4.77-2.61a6.78,6.78,0,0,1,3.35,1.11,7.15,7.15,0,0,0,3.59,1.17c1.09,0,2.08-2.09,2.88-3.76,1.17-2.47,2.38-5,4.86-5s3.68,1.65,4.75,3.11c.78,1.07,1.52,2.08,2.49,2.08s1.77-1.62,2.59-3c1.42-2.43,3.17-5.46,6.61-5.46v.83c-2.65,0-4.17,2.62-5.52,4.94-1.15,2-2.06,3.56-3.68,3.56s-2.59-1.23-3.54-2.53-2-2.66-3.7-2.66-2.76,2.36-3.75,4.44c-1.1,2.32-2,4.33-4,4.33a8.46,8.46,0,0,1-4.32-1.34,5.42,5.42,0,0,0-2.62-.94c-1.58,0-2.71,1.14-3.8,2.25s-2.27,2.31-4,2.31c-2.94,0-3.67-3.72-4.45-7.65-.59-3-1.32-6.71-3.09-6.71s-2.55,2.63-3.19,5c-.76,2.81-1.48,5.46-4.15,5.46a4.93,4.93,0,0,1-4.44-2.5c-.78-1.07-1.46-2-3.19-2s-2.82,3.23-3.65,5.82c-.93,2.93-1.67,5.25-3.59,5.25s-2.83-1.56-3.82-3.2-1.87-3.1-3.42-3.1-3,2.55-4.12,4.61C475.33,124.09,474.36,125.86,472.76,125.86Z" style="fill:#fff"></path><path d="M472.76,92.6c.09,7.86.17,15.71.18,23.57l.09,23.57-.27-.2,41.92.05,21,0,21,.11-21,.1-21,0-41.92.05h-.28v-.19l.09-23.57C472.58,108.31,472.66,100.46,472.76,92.6Z" style="fill:#fff"></path><g style="opacity:0.5"><path d="M480.83,66.49a29.71,29.71,0,0,1-4.56,13.8l-7.68-4.44a21.25,21.25,0,0,0,3.35-9.36Z" style="fill:#7C8CFF"></path><path d="M480.93,64.19c0,.32,0,.64,0,1H472c0-.32,0-.64,0-1a21.3,21.3,0,0,0-9.62-17.83l4.44-7.68A30.2,30.2,0,0,1,480.93,64.19Z" style="fill:#7C8CFF"></path><path d="M465.74,38l-4.43,7.68a21.11,21.11,0,0,0-9.91-2.8V34A29.94,29.94,0,0,1,465.74,38Z" style="fill:#7C8CFF"></path><path d="M450.05,34v8.86a21.31,21.31,0,0,0-17.72,10.51L424.65,49A30.18,30.18,0,0,1,450.05,34Z" style="fill:#7C8CFF"></path><path d="M431.69,54.55a21.08,21.08,0,0,0-2.29,9.26h-8.86A29.86,29.86,0,0,1,424,50.11Z" style="fill:#7C8CFF"></path><path d="M438.83,81.91l-4.43,7.68a30.1,30.1,0,0,1-13.85-24.44h8.86A21.3,21.3,0,0,0,438.83,81.91Z" style="fill:#7C8CFF"></path><path d="M475.52,81.4a30.16,30.16,0,0,1-40,8.89L440,82.62A21.34,21.34,0,0,0,467.83,77Z" style="fill:#7C8CFF"></path><circle cx="450.73" cy="64.19" r="14.05" style="fill:#7C8CFF"></circle><rect x="450.41" y="91.73" width="1.4" height="97.27" style="fill:#7C8CFF"></rect><rect x="448.56" y="187.47" width="5.09" height="5.09" transform="translate(261.09 641.12) rotate(-90)" style="fill:#7C8CFF"></rect></g></g><g id="freepik--character-2--inject-2"><path d="M616,162.1c3.22-1.24,6.57-9.91,5.85-15.22-.06-.36-2.47-2.8-5.27-5.9-1.69-1.89-3.52-4-5.06-6.11-.31-.43-10.69,12.78-10.69,12.78a41.07,41.07,0,0,1,7.15,7,6.38,6.38,0,0,1,.55.92.74.74,0,0,0,.08.15C609.5,157.59,612.52,163.42,616,162.1Z" style="fill:#eb9481"></path><path d="M608.48,155.62l.09.15a11,11,0,0,0,1.39-.91c7.54-5.84,2.47-16.93,1.06-19.65-2.07,2-10.23,12.44-10.23,12.44a41.33,41.33,0,0,1,7.16,7A6.2,6.2,0,0,1,608.48,155.62Z" style="fill:#263238"></path><path d="M607.65,118.6c3.66,4.76,6.66,21.36,4.13,26.26-3.65,7.1-12.55,11-19.31,5.93-6.57-4.9-10.09-26.6-7-31.35C590,112.44,602.24,111.57,607.65,118.6Z" style="fill:#eb9481"></path><path d="M589.62,135.23s-.07.07-.06.11c.28,1.1.43,2.41-.49,3,0,0,0,.07,0,.05C590.27,138,590.07,136.22,589.62,135.23Z" style="fill:#263238"></path><path d="M588.37,134.29c-1.81.27-1.14,3.88.54,3.63S589.89,134.07,588.37,134.29Z" style="fill:#263238"></path><path d="M595.92,134c0-.05.09,0,.1.08.18,1.12.58,2.37,1.66,2.54,0,0,.05.07,0,.07C596.42,136.79,595.91,135.12,595.92,134Z" style="fill:#263238"></path><path d="M596.68,132.67c1.77-.49,2.61,3.08,1,3.53S595.2,133.08,596.68,132.67Z" style="fill:#263238"></path><path d="M597.09,130c-.51,0-1-.08-1.5-.12a2.5,2.5,0,0,1-1.51-.41.79.79,0,0,1-.12-.94,1.91,1.91,0,0,1,1.83-.69,2.75,2.75,0,0,1,1.88.76A.83.83,0,0,1,597.09,130Z" style="fill:#263238"></path><path d="M586.5,132.24a14,14,0,0,0,1.33-.69,2.41,2.41,0,0,0,1.23-1,.78.78,0,0,0-.25-.92,2,2,0,0,0-1.95.07,2.85,2.85,0,0,0-1.44,1.44A.83.83,0,0,0,586.5,132.24Z" style="fill:#263238"></path><path d="M599.34,143.75c-.16.34-.3.78-.67.95a3.11,3.11,0,0,1-1.25.14s-.06,0,0,.07a1.55,1.55,0,0,0,1.57.1,1.22,1.22,0,0,0,.5-1.25C599.46,143.7,599.37,143.7,599.34,143.75Z" style="fill:#263238"></path><path d="M597.43,140.59a3.9,3.9,0,0,1-2.14,2.25,4.76,4.76,0,0,1-1.34.37l-.27,0h-.25a.29.29,0,0,1-.28-.19h0a.49.49,0,0,1,0-.12h0v-.09c-.22-.85-.43-2.17-.43-2.17-.28.23-1.71,1.3-1.78.85a57.61,57.61,0,0,1-1.12-11.74.11.11,0,0,1,.21,0c.73,3.57.83,7.24,1.51,10.84a6.53,6.53,0,0,1,1.66-.94c.13,0,.36,2.55.49,2.92a.1.1,0,0,0,0,0,5.33,5.33,0,0,0,3.63-2.1C597.37,140.43,597.48,140.49,597.43,140.59Z" style="fill:#263238"></path><path d="M594.39,142.88a4.53,4.53,0,0,0,2.07.86,2,2,0,0,0,1.19-.25c.78-.45.59-1.24.26-1.86a5,5,0,0,0-.66-.91A5.79,5.79,0,0,1,594.39,142.88Z" style="fill:#263238"></path><path d="M596.46,143.74a2,2,0,0,0,1.19-.25c.78-.45.59-1.24.26-1.86A2.07,2.07,0,0,0,596.46,143.74Z" style="fill:#ff9bbc"></path><path d="M610.64,132.7c-2.52.75-4.59-4.91-4.59-4.91s-5.79,3.58-8.31-4.83c0,0-6.7,4.56-12,3.39-4.52-1-8.51-7.07-6.75-11.84,1-2.69,4.94-6,13.63-1.4,0,0,7.11-8.62,13.45,1.11,0,0,4.74-.75,6.55,3.55C615.5,124.54,612.81,132.05,610.64,132.7Z" style="fill:#263238"></path><path d="M597.58,122.36a.07.07,0,0,1,.14,0c.19,2.17.43,4.52,2.53,5.72a5.13,5.13,0,0,0,6.2-.66c.1-.09.26,0,.16.15a5.6,5.6,0,0,1-6.11,1.05C598,127.52,597.39,124.85,597.58,122.36Z" style="fill:#263238"></path><path d="M610.07,131.45c3-2.79,4.78-6.48,3.91-10.64a8.16,8.16,0,0,0-3-5.08c-1.52-1.09-3.32-1.14-5.06-1.57a0,0,0,0,1,0-.09c9.89-.29,11.53,12.62,4.42,17.75C610.16,132,609.87,131.64,610.07,131.45Z" style="fill:#263238"></path><path d="M577.85,114.92c2.3-6.57,11-5,15.17-1.47,0,0,0,0,0,0-3.61-2.57-10.07-4.25-13.39-.46-4,4.57.55,12.9,6.47,12.14a.16.16,0,0,1,0,.32C580.79,126.56,576.14,119.8,577.85,114.92Z" style="fill:#263238"></path><path d="M608.06,133.13s1.75-6.31,4.49-5.86,2.67,8.72.33,10.68a2.91,2.91,0,0,1-4.19-.18Z" style="fill:#eb9481"></path><path d="M612.47,129.64s.07,0,0,.07c-1.62,1.43-2,3.54-2,5.6a1.61,1.61,0,0,1,2.12-1.22.06.06,0,0,1,0,.12,1.8,1.8,0,0,0-1.65,1.25,9.21,9.21,0,0,0-.36,1.81c0,.2-.36.22-.37,0v-.05C609.29,134.83,610,130.8,612.47,129.64Z" style="fill:#263238"></path><path d="M608,154.93l8.2,5.28,3.62-16.06,4.5,2.13s.07,20.48-.4,19.85l-7.11-4.28L615,169.08l-6.59-11.18Z" style="fill:#ebebeb"></path><path d="M611.45,163.74c-1-1.88-2.11-3.75-3-5.68,0-.07.05-.16.11-.1,1.49,1.51,5.36,8.73,6.42,10.38v0c.07-.31,1.74-6.49,1.82-6.46,1.31.56,6.5,3.67,6.92,4,0-3.25.35-16.34.68-19.63a.08.08,0,0,1,.16,0c.27,3.27,0,20.43-.18,20.47a79.85,79.85,0,0,1-7.48-4.55c-.17,1.23-1.59,7.91-1.77,7.65A64.86,64.86,0,0,1,611.45,163.74Z" style="fill:#263238"></path><path d="M684,399.3s.78,49.35.78,49.38c-.12,9.25-.39,17.35-.92,21.54a.13.13,0,0,1,0,.06,6.53,6.53,0,0,1-.72,2.85s0,.05-.06.06c-2.77,1.83-76.71,3-79.3,2.19s-.44-8.28,2.39-10.61,30.95-15.46,30.95-15.46l-.32-50Z" style="fill:#eb9481"></path><path d="M685,438.75s-.18,9.9-.18,9.93c-.12,9.25-.39,17.35-.92,21.54a.13.13,0,0,1,0,.06,12.76,12.76,0,0,1-.72,2.85s0,.05-.06.06c-2.77,1.83-76.71,3-79.3,2.19s-.44-8.28,2.39-10.61,30.95-15.46,30.95-15.46l0-10.07Z" style="fill:#fff"></path><path d="M632.61,449.3c4.93-.77,10.9.17,14.54,3.78.14.14-.06.34-.22.29a68.28,68.28,0,0,0-14.32-3.45A.31.31,0,0,1,632.61,449.3Z" style="fill:#263238"></path><path d="M629,451.32c4.93-.76,10.91.18,14.54,3.79.14.13-.06.33-.21.28A68.37,68.37,0,0,0,629,451.94.31.31,0,0,1,629,451.32Z" style="fill:#263238"></path><path d="M625.4,453.34c4.93-.76,10.9.18,14.54,3.79.14.14-.06.34-.22.28A69.7,69.7,0,0,0,625.4,454,.31.31,0,0,1,625.4,453.34Z" style="fill:#263238"></path><path d="M603.8,475.38c2.59.83,76.49,1,79.27-.84,1.07-.68,1.56-12.81,1.74-25.86v-.41l-47.71.24,0,.81S609,462.43,606.19,464.77,601.2,474.57,603.8,475.38Z" style="fill:#a6a6a6"></path><path d="M604.59,472.5c12.45-.5,62.75-1.37,75.1-.93.1,0,.1.08,0,.08-12.33.77-62.63,1.24-75.1,1.06C604.33,472.71,604.32,472.52,604.59,472.5Z" style="fill:#263238"></path><path d="M640.88,448.63,613.13,475.8a93,93,0,0,1-9.34-.41c-2.59-.83-.43-8.28,2.4-10.62s30.94-15.46,30.94-15.46l0-.8,3.64,0Z" style="opacity:0.1"></path><path d="M686.51,447.86l-53.9.63s-1.24-80.61-1.19-109.65c.06-33.18,5-132.17,5-132.17l38.75.39s7.69,16.71,10.06,33.93c.64,4.62-1.16,10.53-2.75,16.69L682,343.19Z" style="fill:#263238"></path><path d="M640.2,219.38c0-.19-.35-.18-.37,0-2.27,28.92-.18,198.38,1.6,214.51,0,.14.28.14.28,0C641,419.34,639.41,235.54,640.2,219.38Z" style="fill:#37474f"></path><path d="M639.71,438.08c10.74-.72,21.55-.74,32.32-.53,3,.05,6.08.14,9.12.29a.09.09,0,0,1,0,.17c-10.75.66-21.56.79-32.32.57-3.05-.06-6.09-.15-9.13-.32C639.58,438.26,639.59,438.09,639.71,438.08Z" style="fill:#37474f"></path><path d="M616.14,401.82s-.18,46.42-.18,46.45c-.12,9.25-.39,17.36-.92,21.54a.2.2,0,0,1,0,.07,6.64,6.64,0,0,1-.72,2.85l-.06,0c-2.77,1.83-76.71,3-79.3,2.2s-.45-8.28,2.39-10.62,30.94-15.45,30.94-15.45L571,402Z" style="fill:#eb9481"></path><path d="M616.14,438.35s-.18,9.89-.18,9.92c-.12,9.25-.39,17.36-.92,21.54a.2.2,0,0,1,0,.07,13.12,13.12,0,0,1-.72,2.85l-.06,0c-2.77,1.83-76.71,3-79.3,2.2s-.45-8.28,2.39-10.62,30.94-15.45,30.94-15.45l.05-10.08Z" style="fill:#fff"></path><path d="M563.76,448.89c4.93-.76,10.9.18,14.54,3.79.14.14-.06.33-.22.28a69.06,69.06,0,0,0-14.32-3.45A.31.31,0,0,1,563.76,448.89Z" style="fill:#263238"></path><path d="M560.15,450.91c4.93-.76,10.9.18,14.54,3.79.14.14-.06.34-.22.28a69.55,69.55,0,0,0-14.32-3.45A.31.31,0,0,1,560.15,450.91Z" style="fill:#263238"></path><path d="M556.55,452.94c4.93-.77,10.9.17,14.54,3.78.14.14-.06.34-.22.28a69,69,0,0,0-14.32-3.44A.31.31,0,0,1,556.55,452.94Z" style="fill:#263238"></path><path d="M534.94,475c2.6.83,76.79,1.29,79.57-.55,1.07-.68,1.27-13.11,1.44-26.15,0-.14,0-.28,0-.41l-47.71.23,0,.81S540.19,462,537.34,464.37,532.35,474.16,534.94,475Z" style="fill:#a6a6a6"></path><path d="M535.73,471.88c12.46-.44,62.76-1,75.11-.49.1,0,.1.07,0,.08-12.34.7-62.64.86-75.11.61C535.47,472.07,535.47,471.89,535.73,471.88Z" style="fill:#263238"></path><path d="M652.74,258S624,324.8,620.57,335.77c-1.26,4-3.39,112.5-3.39,112.5l-52.68-.4s5.47-106.06,7.28-117.25c3.65-22.63,37.54-100.33,40.68-112.07.56-2.09,1.83-8.25,2.85-12.09l59.89.59s-.79,27-13.28,46.49C661.92,253.54,656.33,256.06,652.74,258Z" style="fill:#263238"></path><path d="M569.36,438c10.76-.52,21.56-.33,32.32.08,3.05.12,6.09.26,9.12.47a.09.09,0,0,1,0,.17c-10.76.45-21.57.38-32.33,0-3-.12-6.08-.27-9.12-.5C569.23,438.16,569.25,438,569.36,438Z" style="fill:#37474f"></path><path d="M639,259.23a48.59,48.59,0,0,0,8.25-.67,78.93,78.93,0,0,0,8-2.14,62.48,62.48,0,0,1,7.85-1.2,27.52,27.52,0,0,0,7.7-2.21c.11-.06.21.12.09.17a47.43,47.43,0,0,1-7.39,3.12c-2.64.81-5.4.89-8.07,1.52a66.7,66.7,0,0,1-8.25,1.81,29.48,29.48,0,0,1-8.23-.22C638.85,259.39,638.89,259.23,639,259.23Z" style="fill:#37474f"></path><path d="M632.64,304c.62-1.68,1.2-3.36,1.85-5,1.31-3.37,2.64-6.75,4.1-10.09,2.89-6.64,5.62-13.33,8.67-19.94,1.73-3.74,3.29-7.54,5.32-11.21,0-.09.23-.05.2,0-1,3.43-2.48,6.79-3.78,10.17s-2.69,6.74-4.08,10.1c-2.77,6.67-5.47,13.36-8.49,20q-1.26,2.78-2.62,5.54c-.93,1.88-1.67,3.82-2.78,5.65-.06.1-.25.06-.22,0A49.53,49.53,0,0,1,632.64,304Z" style="fill:#37474f"></path><path d="M622.86,210.14c0-.18.19-.07.18.07a59.36,59.36,0,0,1-3,14.63L615,239l-10.21,28.2c-7.56,21.18-16,42.55-23,63.91-.84,2.36-2.6,72.91-5.53,100,0,.1-.28.22-.27,0,.85-17.94,3.94-97.93,4.79-100.31,9.93-30,22.72-62.24,33.75-92l5.33-14c1.82-4.65,2.51-9.67,3.06-14.61Z" style="fill:#37474f"></path><path d="M611,214.3l-20.59,54.09,57,12.41,6.67-15.35,3.77,15.39,31-4.6s-2.37-49.42-11.91-68.13c-8.68-17-25-46.22-47-60.22-12.51-7.94-20.32,0-21.53,9.33C605.3,181.25,611,214.3,611,214.3Z" style="fill:#ebebeb"></path><path d="M505.52,230.44a25.78,25.78,0,0,1-13.58-23.52l18.61,10,9-8.2,1.84-12.05-18.62-10a25.8,25.8,0,1,1,2.72,43.78Z" style="fill:#c7c7c7"></path><rect x="561.8" y="188.81" width="22.98" height="97.44" transform="translate(92.91 630.36) rotate(-61.78)" style="fill:#c7c7c7"></rect><rect x="568.56" y="219.14" width="9.46" height="36.78" transform="translate(92.91 630.36) rotate(-61.78)" style="fill:#dbdbdb"></rect><path d="M642.71,274.78a20.59,20.59,0,1,0-27.88,8.38A20.58,20.58,0,0,0,642.71,274.78Zm-26.47-14.22a9.46,9.46,0,1,1,3.84,12.82A9.46,9.46,0,0,1,616.24,260.56Z" style="fill:#c7c7c7"></path><path d="M620.2,154.2c5.73,12,6.14,54.89,2.58,59.81-3.94,5.47-26,22.92-39.46,27.82-3.65,1.33-14.66-26.39-10.92-28.19,7.49-3.6,27.11-15.71,28.39-16.92,2.3-2.15,6.13-25.19,8.7-39C611.67,146.09,617.3,148.12,620.2,154.2Z" style="fill:#eb9481"></path><path d="M578.16,211.57a124.18,124.18,0,0,0-14,4.12c-6.53,2.57-19,11-19.92,30.67-.34,7.55,4.81,11.08,6.56,3.3,1.22-5.48,1.6-9.38,2.5-11.06,0,0,3.76,7.74,8.67,8.56a92.73,92.73,0,0,0,13,1.22,19.55,19.55,0,0,0,.45-2.41,10.46,10.46,0,0,0,9.87-5.2Z" style="fill:#eb9481"></path><path d="M560.54,217.8c-1.84,3.19-5.63,10-6.8,16.65-1.29,7.39-1.79,22,3.68,22.87,4,.66,4.68-4.89,4.68-4.89s1.07,6.07,4.82,5.87c3.41-.18,3.68-4.51,3.68-4.51s1.28,3.58,4.54,2.77c3.92-1,.59-8.3,3.71-12.71C579.55,242.86,560.54,217.8,560.54,217.8Z" style="fill:#eb9481"></path><path d="M561.78,234.51a30,30,0,0,0,.2,17.82c0,.14.19.18.17,0a73.64,73.64,0,0,1-.3-17.84S561.79,234.48,561.78,234.51Z" style="fill:#263238"></path><path d="M569.2,236c-.78,2.93-1.35,11.4,1.26,17.77.06.14.2.17.18,0A78.53,78.53,0,0,1,569.27,236S569.21,236,569.2,236Z" style="fill:#263238"></path><path d="M609.1,156.54c3.76-12.75,10.79-13.27,13.32,2.27,3.24,20,4.22,51.48,2.81,55-4.33,10.76-30.84,26.57-30.84,26.57L576.89,210s19.55-10.4,23.06-14.47C601.38,193.91,605.34,169.28,609.1,156.54Z" style="fill:#ebebeb"></path><path d="M624.83,170.35a6.76,6.76,0,0,1-.58,4.65,40.45,40.45,0,0,1,.58-4.65Z" style="fill:#263238"></path><path d="M623.64,167.76c1.53,14.46,3.19,29,2.56,43.56-.1,3.85-3.31,6.68-5.74,9.32a102.32,102.32,0,0,1-8.15,7.3,142,142,0,0,1-17.92,12.42,181,181,0,0,0,17.43-13c2.75-2.36,5.47-4.76,8-7.35,2.29-2.59,5.29-5.08,5.39-8.78.74-14.24-.86-29.19-1.56-43.46Z" style="fill:#263238"></path><path d="M593.53,220.53c-1.13-2-2.26-4-3.41-6s-2.22-4-3.51-5.94c-.05-.08-.21,0-.16.08.88,2,2,4,3,5.93s2.2,4.15,3.32,6.22c2.2,4.09,4.56,8.08,7,12,.06.1.19,0,.14-.09C597.88,228.65,595.79,224.56,593.53,220.53Z" style="fill:#263238"></path></g><g id="freepik--character-1--inject-2"><path d="M221.82,475.78c-2.44.76-73.88-.78-76.49-2.52-1-.65,5.12-68.31,5.12-68.31l45.31.86-5.16,45.27s26.36,12.48,29,14.7S224.27,475,221.82,475.78Z" style="fill: rgb(255, 196, 192);"></path><path d="M221.83,475.78c-2.45.76-73.89-.78-76.5-2.53-.31-.19-.41-7.06.73-16,12.95,2.17,59.19,9.27,62.79,7.15,2.51-1.47.29-3.78-1.77-5.33,5.91,2.94,11.42,5.77,12.55,6.72C222.28,468,224.27,475,221.83,475.78Z" style="fill:#263238"></path><path d="M192.59,475.67c-21-.45-45.74-1.4-47.26-2.41-.41-.27.36-11.57,1.41-24.93Z" style="fill:#030402;opacity:0.2"></path><path d="M191.88,440.23l-44.48-.63s8.81-106.53,8.45-108.58c-.47-2.62-32-126.36-32-126.36h42.45S199.75,320,201,331.1C202.89,349,191.88,440.23,191.88,440.23Z" style="fill:#7C8CFF"></path><path d="M191.88,440.23l-44.48-.63s8.81-106.53,8.45-108.58c-.47-2.62-32-126.36-32-126.36h42.45S199.75,320,201,331.1C202.89,349,191.88,440.23,191.88,440.23Z" style="fill:#030402;opacity:0.6000000000000001"></path><path d="M151.4,429.56c2.63-.19,5.28-.16,7.92-.2s5.27,0,7.91,0c5.28,0,10.55.13,15.82.28,1.45,0,2.89.08,4.33.15s3.08.33,4.62.39a.1.1,0,0,1,0,.19c-1.29,0-2.59.2-3.88.24s-2.69,0-4,0l-7.91,0c-5.27-.05-10.55-.12-15.82-.33-3-.13-6-.16-9-.46A.14.14,0,0,1,151.4,429.56Z" style="fill:#263238"></path><path d="M133.16,214.65c3.8,13.45,7.27,27,10.67,40.58s6.79,27.13,10.17,40.7l5.07,20.35c1.64,6.61,3.55,13.25,4,20.08s-.46,13.94-1.05,20.84-1.17,13.89-1.78,20.84c-1.21,13.89-2.38,27.79-3.89,41.66-.19,1.73-.38,3.47-.55,5.2,0,.15-.25.15-.24,0,.92-13.9,1.88-27.8,3-41.68q.84-10.43,1.7-20.84c.57-6.93,1.38-13.89,1.6-20.84S160.74,327.8,159,321s-3.32-13.28-5-19.91Q149,280.76,143.89,260.4c-3.77-15.19-7.53-30.42-10.86-45.72C133,214.6,133.14,214.57,133.16,214.65Z" style="fill:#263238"></path><path d="M123.82,204.66s13.54,53.09,23,90.45l18.06-90.45Z" style="fill:#030402;opacity:0.2"></path><path d="M168.48,474.67c-2.45.76-73.89-.78-76.5-2.52-1-.65,2.73-68.35,2.73-68.35l44.71.86L137.25,450s26.36,12.49,29,14.71S170.92,473.91,168.48,474.67Z" style="fill: rgb(255, 196, 192);"></path><path d="M168.48,474.67c-2.45.76-73.89-.79-76.5-2.53-.31-.19-.24-6.89,0-16,13,2.17,59.91,9.28,63.51,7.16,2.51-1.47.29-3.78-1.76-5.33,5.9,2.94,11.41,5.77,12.54,6.72C168.93,466.88,170.92,473.91,168.48,474.67Z" style="fill:#263238"></path><path d="M164.9,204.64s-2.4,30-7.35,37.55a75.9,75.9,0,0,0-12.31,6.14s-3.06,80.29-3,85.11c.19,18-4.42,105.89-4.42,105.89L91,438.91s13.55-152.67,16.26-187.62c0,0-2.05-11.16-1.6-16.8,1.07-13.67,6.22-29.83,6.22-29.83Z" style="fill:#7C8CFF"></path><path d="M164.9,204.64s-2.4,30-7.35,37.55a75.9,75.9,0,0,0-12.31,6.14s-3.06,80.29-3,85.11c.19,18-4.42,105.89-4.42,105.89L91,438.91s13.55-152.67,16.26-187.62c0,0-2.05-11.16-1.6-16.8,1.07-13.67,6.22-29.83,6.22-29.83Z" style="fill:#030402;opacity:0.6000000000000001"></path><path d="M149.12,233.18c.16-1.12.33-2.24.51-3.37.31-2.05.73-4.1,1.09-6.15.82-4.65,1.67-9.31,2.7-13.92a.11.11,0,0,1,.21,0c-.19,1.86-.4,3.72-.67,5.57s-.44,3.72-.7,5.57c-.52,3.67-1,7.35-1.66,11-.24,1.41-1.12,3.94.91,4.38,1.61.34,2.78-1.24,3.26-2.56a32.2,32.2,0,0,0,1.08-5.07q.5-2.79.88-5.59.86-6.09,1.87-12.16c0-.11.2-.08.2,0a123.23,123.23,0,0,1-.9,12.44q-.39,3-.89,5.92a21.28,21.28,0,0,1-1.36,5.51,4.48,4.48,0,0,1-3.36,2.69h-.09a.14.14,0,0,1,.06.11c0,.66,0,1.33-.08,2s-.2,1.3-.33,1.94a12.84,12.84,0,0,1-.5,1.94c-.11.3-.22.6-.36.89a7,7,0,0,1-.52.81c-.07.12-.21.05-.22-.07h0c0-.1,0-.21,0-.32v-.05h0a3.64,3.64,0,0,1,0-.57c0-.32.12-.63.18-1,.14-.62.31-1.24.48-1.86s.3-1.25.46-1.87.38-1.26.52-1.91c0,0,0,0,.05-.06a2.92,2.92,0,0,1-2.83-1.77A5,5,0,0,1,149.12,233.18Z" style="fill:#263238"></path><path d="M141.61,249.31a34.93,34.93,0,0,1,4.22-2.78,41.29,41.29,0,0,1,4.81-2.49c3.24-1.41,6.59-2.37,9.94-3.48a.09.09,0,0,1,.06.17c-3.24,1.29-6.35,3-9.48,4.54q-2.31,1.13-4.67,2.16c-1.58.7-3.14,1.51-4.76,2.1C141.61,249.58,141.51,249.39,141.61,249.31Z" style="fill:#263238"></path><path d="M120.18,224.25c2.28,0,10.17-.58,12.51-3.2a16,16,0,0,0,2.92-5.26,50.53,50.53,0,0,0,1.77-6.4c0-.1.18-.07.19,0a25,25,0,0,1-.92,7.26c-.55,2-1.3,4.24-2.92,5.65a11.45,11.45,0,0,1-6.19,2.26,28.41,28.41,0,0,1-7.37-.1A.12.12,0,0,1,120.18,224.25Z" style="fill:#263238"></path><path d="M170.26,224.86a7.75,7.75,0,0,1-3-1.82c-1.72-2.6-2.14-10.86-2.29-13,0-.11,0-.07,0,0,0,2.43.08,4.91.28,7.26a25.81,25.81,0,0,0,.9,5.64c.52,1.48,3.43,2.5,4.18,2.17C170.31,225.09,170.31,224.86,170.26,224.86Z" style="fill:#263238"></path><path d="M95,430.21c2.63-.19,5.28-.15,7.92-.19s5.27,0,7.91,0c5.28.05,10.55.13,15.82.28,1.44,0,2.89.08,4.33.15s3.08.33,4.62.39c.12,0,.11.19,0,.19-1.29,0-2.59.2-3.89.24s-2.68.05-4,.05c-2.64,0-5.27,0-7.91,0-5.27,0-10.55-.12-15.82-.34-3-.12-6-.16-9-.45A.14.14,0,0,1,95,430.21Z" style="fill:#263238"></path><path d="M100.43,424.37h0a.55.55,0,0,1-.52-.57L113.9,250c-.13-.76-3-10.47-3.24-15.43-.27-5.25,5.15-25.69,5.38-26.55a.56.56,0,0,1,.67-.39.55.55,0,0,1,.39.67c-.06.21-5.61,21.14-5.35,26.21S115,249.74,115,249.82s-14,174-14,174A.55.55,0,0,1,100.43,424.37Z" style="fill:#263238"></path><path d="M166.88,134.82c.43,3.66.87,7.34,1.16,11,.18,2.25.22,4.48.19,6.72a14.24,14.24,0,0,1-2.39,2.3c0-.57,0-1.14,0-1.69,0-2.68-.15-5.32-.35-8,0-.09-.13-.07-.12,0,.12,2.75,0,5.53,0,8.28,0,.6-.06,1.2-.1,1.8a21.17,21.17,0,0,1-2.61,1.55c0-.66.06-1.31.09-2,.07-1.52.11-3,.11-4.56a89,89,0,0,0-.5-9c0-.12-.17-.08-.17,0,.16,3.07.21,6.16.16,9.24,0,1.45-.06,2.92-.13,4.37,0,.7-.1,1.4-.15,2.1a29.82,29.82,0,0,1-5.13,1.82c-5,1.33-10.38.8-15.36-.4a26.65,26.65,0,0,1-11.85-6.17,29.08,29.08,0,0,0,3-7.34c0-.09-.07-.12-.11,0q-1,2.44-2.19,4.79c-.37.73-.77,1.44-1.18,2.15l-.15-.14c-.33-.33-.67-.67-1-1a48.08,48.08,0,0,0,2.07-4.57,44.19,44.19,0,0,0,2.19-6.8c0-.15-.14-.23-.2-.08-.85,2.15-1.65,4.33-2.53,6.47-.62,1.51-1.33,3-2,4.46a6.09,6.09,0,0,1-1.69-4.28,12,12,0,0,1,1.25-3.91,87.49,87.49,0,0,0,7.35-27.67,10.38,10.38,0,0,1,2.84-6.46,10.56,10.56,0,0,1,4.89-2.69c0-.07,9.55-9.33,20.14-2.73,12,7.5,10.61,38.31,9.67,42.56a22.45,22.45,0,0,1-3.18,6.65c0-1.89-.1-3.78-.25-5.62-.31-3.82-.94-7.55-1.6-11.3C167,134.66,166.86,134.7,166.88,134.82Z" style="fill:#263238"></path><path d="M151,159.28c15.73,17.33,34.43,35.45,44.1,35,7.52-.36,35.68-12.79,44.57-27.52,2-3.25-24-15.44-25.8-13.49C208.44,159,192.3,166.63,191.13,166c-1.55-.77-20-11.31-32.52-17.79C141.72,139.51,142.85,150.32,151,159.28Z" style="fill: rgb(255, 196, 192);"></path><path d="M244.61,163.35c-3.17,5-13.62,12.6-16.85,13.46S211,160.34,211.82,157s12.82-19.22,18.51-21.16S247.9,158.21,244.61,163.35Z" style="fill: rgb(255, 196, 192);"></path><path d="M213.39,153.94a48.73,48.73,0,0,0,.57-14.19c-.79-5.62-2.61-13.88.4-14.42,6.18-1.11,10.69,19.48,10.69,19.48s.54,9.41-5.48,11.05A6.18,6.18,0,0,1,213.39,153.94Z" style="fill: rgb(255, 196, 192);"></path><path d="M222.17,140.59c1.46,2.76,3.65,1.42,3.65,1.42s-4.77,3.74-3.6,7,5.55.92,5.87.77c-.25.2-4.54,3.74-3,6.89s5.63.28,5.89.09c-.18.26-2.46,3.78-.77,5.9,2.9,3.66,9-5.17,12.74-5.7,0,0,1.61,6.24,1.69,6.41,0,0,6-8.28,5-13.28a3.26,3.26,0,0,0-3.08-2.68s2.21-2.46,1.1-5c-.57-1.29-3.14-1.51-3.14-1.51a4.09,4.09,0,0,0,.57-4.22c-.89-1.74-3.33-1.7-3.33-1.7s10.56-8.46,8.66-11.49c-3.27-5.21-24.84,14.17-27.49,13.56C221.56,136.76,221.54,139.39,222.17,140.59Z" style="fill: rgb(255, 196, 192);"></path><path d="M241.32,134.94c.05,0,0-.09,0-.08a29,29,0,0,0-15.7,7.22c-.14.13-.33,1-.17.84C229.46,139.56,235.56,136.67,241.32,134.94Z" style="fill:#263238"></path><path d="M244.54,140.84c.06,0,0-.12,0-.11a27.2,27.2,0,0,0-16.63,9c-.15.17-.1.48.08.29C231,146.8,239.34,142.37,244.54,140.84Z" style="fill:#263238"></path><path d="M230.78,157.19c4.25-4.72,9.58-7.6,15.48-9.78.08,0,0-.13,0-.13-3.18.28-6.8,2.06-9.49,3.68a16.78,16.78,0,0,0-6.12,6.09C230.55,157.15,230.69,157.3,230.78,157.19Z" style="fill:#263238"></path><path d="M225.71,142c-.16.16.53.25.37.42-1.7,1.75-4.59,5-3.48,6.73.89,1.37,3.35,1.12,4.25.65l2.28-1.18-1.73,1.9a10.27,10.27,0,0,0-1.88,2.83,3.72,3.72,0,0,0-.17,3,2.12,2.12,0,0,0,2.34,1.33,6.47,6.47,0,0,0,2.93-1.37L233,154.5,231.37,157a9.85,9.85,0,0,0-1.1,2.26,4,4,0,0,0-.17,2.33,1.92,1.92,0,0,0,1.48,1.39,4.3,4.3,0,0,0,2.32-.55,33,33,0,0,0,4.4-2.89c.72-.52,1.44-1,2.19-1.53a6.43,6.43,0,0,1,2.43-1.09,6.7,6.7,0,0,0-2.29,1.3c-.7.53-1.38,1.1-2.06,1.68a29.25,29.25,0,0,1-4.33,3.18,5,5,0,0,1-2.77.75,2.73,2.73,0,0,1-2.26-2,5,5,0,0,1,.13-2.91,11,11,0,0,1,1.19-2.53l.75.68a7.39,7.39,0,0,1-3.46,1.65,3,3,0,0,1-2.06-.39,3.53,3.53,0,0,1-1.35-1.57,4.72,4.72,0,0,1,.22-3.87,11.28,11.28,0,0,1,2.12-3.08l.54.72c-1.17.55-3.88,1.14-5.53-.81C220,146.93,224.78,142.7,225.71,142Z" style="fill:#263238"></path><path d="M210.94,154.85l20.35,26.86s-27.69,14.86-38,13.4-33.19-22.65-44-37.3c-11.1-15,.1-15.27,8.93-10.18s32.4,17.59,33.08,17.6S210.94,154.85,210.94,154.85Z" style="fill:#ebebeb"></path><path d="M214.12,171c-1.36-1.86-2.72-3.72-4.09-5.56s-2.68-3.75-4.18-5.48c-.06-.08-.21,0-.15.09,1.11,1.91,2.45,3.72,3.71,5.54s2.67,3.86,4,5.78c2.66,3.81,5.47,7.49,8.34,11.15.08.09.19,0,.13-.11C219.39,178.56,216.83,174.74,214.12,171Z" style="fill:#263238"></path><path d="M149.27,157.82c10.85,14.64,33.75,35.81,44,37.28,2.4.34,5.75-.2,9.46-1.25l-53.95-49.18C144.18,144.7,142.21,148.29,149.27,157.82Z" style="opacity:0.1"></path><path d="M166.55,192.37l2.27,17.5-58.36-3s13-48,22.94-57.75c7.86-7.73,16.6-6.7,21.91-.76,1.34,1.51,14.53,22.85,15.89,31.45C172.38,187.39,166.55,192.37,166.55,192.37Z" style="fill:#7C8CFF"></path><g style="opacity:0.1"><path d="M153.77,189.93a23.17,23.17,0,0,1,5.84.75,29.79,29.79,0,0,1,2.93,1c.49.19,1,.36,1.46.52a3.94,3.94,0,0,0,1.52.25s.06.11,0,.12a5.89,5.89,0,0,1-1.39.18,5.79,5.79,0,0,1-1.39-.24c-1-.26-2-.59-3-.87a52.53,52.53,0,0,0-6-1.43C153.7,190.19,153.68,189.92,153.77,189.93Z" style="fill:#020100"></path><path d="M144.74,192.12a57.93,57.93,0,0,1,7.44-.45c1.25,0,2.48.1,3.73.23.59.06,1.18.13,1.77.22s1.29.28,1.94.36c.07,0,.07.12,0,.12-.62-.06-1.24,0-1.86,0l-1.86,0c-1.24,0-2.48,0-3.72-.08-2.49-.08-5-.13-7.45-.11C144.6,192.36,144.61,192.14,144.74,192.12Z" style="fill:#020100"></path></g><path d="M142.19,143.89s6.47,38.58,6.71,41.6,7.92,77.71-7.86,95.75c-8.72,10-41.38,14.33-41.38,14.33s4.24-58.55,6.44-73.35c2.09-14.14,11-46.32,23.14-68.55C133.23,146.34,137.89,144.68,142.19,143.89Z" style="fill:#ebebeb"></path><path d="M137,238.14a100,100,0,0,1-11.27.82c-5.27,0-10.5-.57-12-.6-.14,0-.21.44-.12.45a117.82,117.82,0,0,0,12,.92,63.15,63.15,0,0,0,11-1c0,1.12,0,2,0,3.1-3.72.7-10.9,1.91-22.47.36,0-.47,0-3,0-3.64,0-.1-.45-.12-.47,0-.09.67-.4,6.64-.41,7.85,0,3,.12,11.44.86,13.08,1.66,3.72,8.88,3.77,10.88,3.79s8.43.26,10.86-2.08c1.29-1.26,1.6-8.1,1.45-14.16C137.18,244.19,137.21,238.19,137,238.14Zm-11.51,24.43c-6.39,0-9.15-1.37-10.13-2.71-1.14-1.56-1.22-4.26-1.29-7.25-.06-2.34.06-9.69,0-9.83a59.65,59.65,0,0,0,22.45-.19c0,3.48,0,6.26,0,9.75,0,2.52-.19,6.75-1.47,8.21C134,261.77,130.14,262.59,125.53,262.57Z" style="fill:#dbdbdb"></path><path d="M155.31,148.35s8.63,21.59,9.67,28.31a92.38,92.38,0,0,1,.54,15.79s7.95,68,9.8,73.65,15.12,14.47,15.12,14.47-14.29-52.63-18.91-70.3c-1.16-4.42-2.32-18.14-2.32-18.14s3.69-4.18,2.88-11.6S159.67,154,155.31,148.35Z" style="fill:#ebebeb"></path><path d="M157.56,153.57c.67,1.27,8.4,13.36,9.83,15.85l0-.52q-1.55,1.75-3.05,3.54l-.25.29.22.31,3.7,5.52-.08-.28c0,3.41-1.9,18.25-1.81,20,.09-1.71,2.69-16.53,2.7-20v-.15l-.09-.13-3.7-5.52,0,.6q1.52-1.78,3-3.6l.2-.25-.16-.27C166.59,166.51,158.34,154.77,157.56,153.57Z" style="fill:#dbdbdb"></path><path d="M154.87,147.88c.81,1.25,5,13.2,4.22,13.81s-11.38,1.11-12.47.39-3.89-15.09-3.83-16S154.87,147.88,154.87,147.88Z" style="fill: rgb(255, 196, 192);"></path><path d="M142.79,146.06c.14,1.13,4.65,8.83,9.71,9.13,1.64.09,2.56-8.88,2.56-8.88l.22-.65,3.05-9-10.15-8.15-1.48-1.09s-.68,2.53-1.48,5.69l-.12.45c0,.18-.1.35-.14.52-.12.47-.25.95-.37,1.43s-.18.72-.26,1.11-.17.77-.26,1.16A63.2,63.2,0,0,0,142.79,146.06Z" style="fill: rgb(255, 196, 192);"></path><path d="M145.22,133.06a19.15,19.15,0,0,0,10.06,12.6l3.05-9-10.15-8.15-1.48-1.09S146,129.9,145.22,133.06Z" style="fill:#263238"></path><path d="M170.91,119c4,16.29-5.27,20.54-8.78,21.41-3.19.78-14.15,3-19.84-12.73s.61-22.81,7.81-25S166.88,102.66,170.91,119Z" style="fill: rgb(255, 196, 192);"></path><path d="M142.44,128.53a6.93,6.93,0,0,0,3.33-6,18.27,18.27,0,0,0,6.79-6.6c-.08.35-.66,2.92-1,4.22,10.44-3,13-11.43,13-11.43a18.45,18.45,0,0,1,5.27,6.3s-.54-6.53-4.31-10.58A10.55,10.55,0,0,0,155.38,101a15.08,15.08,0,0,0-14.24,5.9C135,115.11,142.44,128.53,142.44,128.53Z" style="fill:#263238"></path><path d="M159.48,117.64a20.06,20.06,0,0,1-5.26,2.52s0,0,0,0a16.8,16.8,0,0,0,7.36-5.45,16.24,16.24,0,0,0,2-3.42,10.94,10.94,0,0,0,1-4.19.09.09,0,0,1,.17,0,12.57,12.57,0,0,1-.45,4.27,11.73,11.73,0,0,1-2,3.74,13.57,13.57,0,0,1-2.79,2.56" style="fill:#263238"></path><path d="M169,118.2a10.92,10.92,0,0,1-1.15-.07,1.88,1.88,0,0,1-1.16-.28.61.61,0,0,1-.11-.72,1.49,1.49,0,0,1,1.38-.56,2.17,2.17,0,0,1,1.46.55A.64.64,0,0,1,169,118.2Z" style="fill:#263238"></path><path d="M157.57,120a9.79,9.79,0,0,0,1.07-.4,1.85,1.85,0,0,0,1-.63.59.59,0,0,0-.11-.71,1.48,1.48,0,0,0-1.48-.12,2.18,2.18,0,0,0-1.23,1A.64.64,0,0,0,157.57,120Z" style="fill:#263238"></path><path d="M160.48,122.77s-.08.07-.07.11c.23,1.11.31,2.42-.63,3,0,0,0,.07,0,.06C161,125.52,160.88,123.78,160.48,122.77Z" style="fill:#263238"></path><path d="M159.27,121.78c-1.82.18-1.32,3.81.37,3.64S160.8,121.62,159.27,121.78Z" style="fill:#263238"></path><path d="M158.59,122.07c-.29.25-.55.65-.93.74s-.82-.23-1.16-.55c0,0-.06,0-.05,0,.08.69.45,1.37,1.21,1.37s1.09-.68,1.17-1.4C158.84,122.14,158.7,122,158.59,122.07Z" style="fill:#263238"></path><path d="M167,121.34s.09,0,.1.08c.11,1.13.42,2.41,1.49,2.65,0,0,0,.06,0,.06C167.3,124.12,166.9,122.42,167,121.34Z" style="fill:#263238"></path><path d="M167.83,120c1.79-.37,2.4,3.24.74,3.58S166.33,120.34,167.83,120Z" style="fill:#263238"></path><path d="M168.62,120.14c.32.14.66.44,1,.41s.63-.48.82-.9c0,0,.05,0,.06,0,.14.69,0,1.44-.61,1.69s-1.13-.3-1.41-1C168.43,120.29,168.49,120.08,168.62,120.14Z" style="fill:#263238"></path><path d="M161.58,131.54c.3.24.6.58,1,.58a2.94,2.94,0,0,0,1.18-.39s.08,0,.06.05a1.52,1.52,0,0,1-1.38.74,1.21,1.21,0,0,1-1-.91A.06.06,0,0,1,161.58,131.54Z" style="fill:#263238"></path><path d="M165.67,126.79s.48,1.64.6,2.43c0,.07-.18.14-.44.19,0,0,0,0,0,0a3.8,3.8,0,0,1-3.86-.86c-.07-.07,0-.16.1-.12a5.75,5.75,0,0,0,3.58.46c0-.22-.92-2.78-.8-2.8a6.66,6.66,0,0,1,1.85.13c-.9-3.44-2.35-6.72-3.2-10.16,0-.12.15-.19.2-.08a57.94,57.94,0,0,1,3.92,10.8C167.72,127.23,166,126.88,165.67,126.79Z" style="fill:#263238"></path><path d="M165.7,129.13a4.58,4.58,0,0,1-1.5,1.78,2.12,2.12,0,0,1-1.22.34c-.93-.05-1.13-.86-1.11-1.59a5,5,0,0,1,.17-1.16A5.94,5.94,0,0,0,165.7,129.13Z" style="fill:#263238"></path><path d="M164.2,130.91a2.12,2.12,0,0,1-1.22.34c-.93-.05-1.13-.86-1.11-1.59A2.13,2.13,0,0,1,164.2,130.91Z" style="fill:#ff9abb"></path><path d="M165.72,122.12c-.61-3,.52-5.81,2.52-6.21s4.12,1.72,4.73,4.75-.52,5.81-2.52,6.21S166.33,125.14,165.72,122.12Zm.73-.15c.53,2.62,2.25,4.48,3.85,4.16s2.46-2.71,1.93-5.33-2.25-4.48-3.85-4.16S165.92,119.35,166.45,122Z" style="fill:#7C8CFF"></path><path d="M151.94,124.9a5.23,5.23,0,1,1,6.22,4.45A5.43,5.43,0,0,1,151.94,124.9Zm.73-.15a4.49,4.49,0,1,0,3.43-5.63A4.67,4.67,0,0,0,152.67,124.75Z" style="fill:#7C8CFF"></path><path d="M161.83,122.39c2.55-1.52,4-.87,4-.86l.34-.67c-.07,0-1.77-.86-4.71.88Z" style="fill:#7C8CFF"></path><path d="M152.19,124.34l-.12-.74c-.49.08-8.13,1-9.32,1.38s-3.54,3-3.8,3.31l.57.49c.64-.75,2.49-2.74,3.39-3.07l.06,0C143.88,125.42,148.08,125,152.19,124.34Z" style="fill:#7C8CFF"></path><path d="M146.63,126.93s-4.43-4.61-6.57-3,1.75,8.73,4.67,9.32a2.83,2.83,0,0,0,3.52-2.09Z" style="fill: rgb(255, 196, 192);"></path><path d="M141.22,126s0,.07,0,.08c2.06.47,3.36,2.11,4.36,3.85a1.57,1.57,0,0,0-2.38-.06c0,.05,0,.12.07.1a1.73,1.73,0,0,1,2,.3,8.5,8.5,0,0,1,1.15,1.39c.12.16.41,0,.32-.17l0,0C146.37,129,143.91,125.81,141.22,126Z" style="fill:#263238"></path><path d="M141.39,152c-2.64,10.66-20.53,48.32-21.79,50.52,0,0-23.47,18.45-26.6,3.9S114.51,165,128,151.6C136.61,143,143.21,144.6,141.39,152Z" style="fill:#ebebeb"></path><path d="M121.54,198.28c3.75-8.82,10-21.85,14.13-30.64a227.65,227.65,0,0,1-14.13,30.64Z" style="fill:#263238"></path><path d="M135.37,170.81a7.29,7.29,0,0,1-2.34,3c.85-.94,1.5-2.08,2.34-3Z" style="fill:#263238"></path><path d="M142.5,147.34c-.36,1.59-.76,3.17-1.15,4.76s-.78,3.17-1.2,4.76q-1.22,4.75-2.52,9.5l-.27-.5c1.9.69,3.79,1.4,5.67,2.11l.45.17-.15.42-2.65,7.26v-.32q2.19,5.13,4.25,10.31c.69,1.73,1.38,3.46,2,5.19s1.33,3.48,2,5.23c-.86-1.67-1.65-3.36-2.47-5s-1.6-3.37-2.38-5.06c-1.56-3.39-3.09-6.78-4.58-10.2l-.06-.15.06-.17,2.64-7.26.29.59c-1.87-.73-3.74-1.46-5.6-2.21l-.38-.15.1-.35q1.41-4.74,2.9-9.46c.49-1.57,1-3.15,1.52-4.72S142,148.91,142.5,147.34Z" style="fill:#dbdbdb"></path><polygon points="149.74 222.42 187.15 227.46 201.35 175.46 163.94 170.43 149.74 222.42" style="fill:#263238"></polygon><polygon points="151.58 222.67 188.99 227.71 203.18 175.71 165.77 170.67 151.58 222.67" style="fill:#455a64"></polygon><path d="M182.61,197.53a4.09,4.09,0,0,1-4.45,3.11,3.31,3.31,0,0,1-2.83-4.09,4.09,4.09,0,0,1,4.45-3.1A3.31,3.31,0,0,1,182.61,197.53Z" style="fill:#fff"></path><path d="M143.41,198.4c3.51.22,5.62,26.39.44,26.56-24.35.82-44.53-10.54-48.12-13.76-4.71-4.21-3.14-11.94,0-14.61C100.34,192.73,139.52,198.15,143.41,198.4Z" style="fill: rgb(255, 196, 192);"></path><path d="M140.56,198.6s10.21-2.35,16.91-3.52c3.74-.65,10.26-1.2,13.22-.42,4.44,1.16,22.27,8.86,20.49,13.22-1.6,4-16.07-4.61-16.07-4.61s15.36,7.34,12.56,11.74-17.88-7.44-17.88-7.44,15.62,7.9,12,12c-2.73,3.09-17-6.87-17-6.87s13.38,6.88,10.71,10.17c-2.95,3.64-16.68-4.73-16.68-4.73-8.2,7.22-15,7.31-19.94,6.79C137.73,224.77,140.56,198.6,140.56,198.6Z" style="fill: rgb(255, 196, 192);"></path><path d="M169.7,200.73c1.86.75,3.74,1.5,5.53,2.41s3.53,1.88,5.23,3a34.6,34.6,0,0,1,6.18,4.8c-3.56-3-9.9-6.37-11.68-7.28s-3.51-1.91-5.29-2.82C169.62,200.78,169.66,200.71,169.7,200.73Z" style="fill:#263238"></path><path d="M166.27,206.8c2.3,1.12,4.62,2.15,6.87,3.37s5.33,3,7.48,4.39c.16.11.08.39-.09.29-2.2-1.28-5.43-3-7.65-4.23s-4.39-2.6-6.65-3.77C166.2,206.84,166.23,206.78,166.27,206.8Z" style="fill:#263238"></path><path d="M162.14,211.62a57.23,57.23,0,0,1,10.3,5.64c.16.11,0,.17-.16.07-3.39-1.94-6-3.49-10.19-5.59A.07.07,0,0,1,162.14,211.62Z" style="fill:#263238"></path><path d="M135.56,196.65,145,228.76c-25.33-2.91-45.65-14.34-49.24-17.56-4.71-4.21-3.14-11.94,0-14.61C100.34,192.73,132.38,195.22,135.56,196.65Z" style="fill:#ebebeb"></path><path d="M133,210.47q-1-3.3-2-6.6c-.68-2.18-1.29-4.42-2.13-6.55,0-.1-.2-.08-.17,0,.42,2.17,1.08,4.32,1.66,6.46s1.24,4.53,1.88,6.79c1.25,4.47,2.68,8.88,4.18,13.28,0,.11.18.05.15-.06C135.51,219.34,134.36,214.89,133,210.47Z" style="fill:#263238"></path><path d="M109.28,194.54c8.8.24,17.67.2,26.36,1.82l.16,0,0,.17c2.85,9.68,6.87,23,9.6,32.61-13.18-2-26.47-5-38.31-11.33,11.83,5.81,24.92,8.59,37.87,10.57l-.38.44c-2.75-9.27-6.64-22.69-9.35-32.12l.21.2c-8.6-1.72-17.47-1.88-26.21-2.4Z" style="fill:#263238"></path></g><g id="freepik--robot-arms--inject-2"><path d="M233.78,320.42l7.3-11.12-27-19.15a7.85,7.85,0,0,0-11.19,2h0a7.85,7.85,0,0,0,2.59,11.08Z" style="fill:#7C8CFF"></path><rect x="230.33" y="313.81" width="18.08" height="4.65" transform="translate(635.02 289.55) rotate(123.29)" style="fill:#455a64"></rect><rect x="242.29" y="313.36" width="13.06" height="17.96" transform="translate(654.84 291.26) rotate(123.29)" style="fill:#37474f"></rect><rect x="247.04" y="325.2" width="26.23" height="9.15" transform="translate(678.61 293.31) rotate(123.29)" style="fill:#455a64"></rect><path d="M263.33,325a2.26,2.26,0,1,0-.65-3.13A2.24,2.24,0,0,0,263.33,325Z" style="fill:#37474f"></path><path d="M254.51,338.39a2.26,2.26,0,1,0-.65-3.13A2.27,2.27,0,0,0,254.51,338.39Z" style="fill:#37474f"></path><polygon points="291.63 327.76 295.5 321.86 269.84 323.37 264.1 332.12 291.63 327.76" style="fill:#37474f"></polygon><polygon points="301.63 340.44 303.63 337.4 295.5 321.86 291.63 327.76 301.63 340.44" style="fill:#37474f"></polygon><polygon points="270.81 359.46 266.94 365.35 258.13 341.21 263.87 332.47 270.81 359.46" style="fill:#37474f"></polygon><polygon points="286.43 363.59 284.43 366.64 266.94 365.35 270.81 359.46 286.43 363.59" style="fill:#37474f"></polygon><path d="M167.15,332.81v36.45a8,8,0,0,0,8,8h0a8,8,0,0,0,8-8V332.81a8,8,0,0,0-8-8h0A8,8,0,0,0,167.15,332.81Z" style="fill:#37474f"></path><rect x="132.25" y="452.51" width="135.66" height="23.47" rx="9.8" transform="translate(400.16 928.49) rotate(180)" style="fill:#455a64"></rect><polygon points="162.87 410.38 237.3 410.38 251.45 452.51 148.71 452.51 162.87 410.38" style="fill:#455a64"></polygon><polygon points="148.71 452.51 152.45 441.39 247.71 441.39 251.45 452.51 148.71 452.51" style="fill:#263238"></polygon><path d="M169.63,361.82h0a10.56,10.56,0,0,1,14.12,2.79l28.34,37.5a14.87,14.87,0,0,1-4.21,21.35h0a14.87,14.87,0,0,1-21-5.7l-21-42.06A10.55,10.55,0,0,1,169.63,361.82Z" style="fill:#7C8CFF"></path><path d="M213.79,400.84l-.54-.7-27.78-36.78A12.68,12.68,0,0,0,164,376.65l5.48,11,15.14,30.32.42.83a17,17,0,1,0,28.79-17.91Zm-36-38a8.3,8.3,0,0,1,4.23,3.06l27.58,36.5.37.49c.13.15.24.31.37.49.25.35.48.7.69,1.06l0,.05a.39.39,0,0,1,0,.09,12.76,12.76,0,0,1-19.83,15.57l-.05-.05c-.23-.22-.46-.44-.67-.68l-.33-.38a13.69,13.69,0,0,1-1-1.41c-.13-.21-.25-.42-.36-.64l-.11-.17-.56-1.13-16-31.93-4.52-9a8.32,8.32,0,0,1-.85-5.1,5.22,5.22,0,0,1,.14-.79,4,4,0,0,1,.22-.77,5.56,5.56,0,0,1,.29-.75c.09-.18.16-.36.26-.52h0a2.6,2.6,0,0,1,.21-.36,3,3,0,0,1,.23-.38,2.07,2.07,0,0,1,.17-.24,0,0,0,0,1,0,0,3.81,3.81,0,0,1,.4-.5,4.27,4.27,0,0,1,.41-.44l.19-.19a3.4,3.4,0,0,1,.4-.34,1.09,1.09,0,0,1,.29-.23,7.55,7.55,0,0,1,.62-.44l.74-.41.63-.27.15-.06.78-.24h0a4.61,4.61,0,0,1,.72-.15,7.83,7.83,0,0,1,1.74-.1,3.58,3.58,0,0,1,.72.07,3.44,3.44,0,0,1,.79.14A4.87,4.87,0,0,1,177.82,362.82Z" style="fill:#7C8CFF"></path><path d="M213.79,400.84l-.54-.7-27.78-36.78A12.68,12.68,0,0,0,164,376.65l5.48,11,15.14,30.32.42.83a17,17,0,1,0,28.79-17.91Zm-36-38a8.3,8.3,0,0,1,4.23,3.06l27.58,36.5.37.49c.13.15.24.31.37.49.25.35.48.7.69,1.06l0,.05a.39.39,0,0,1,0,.09,12.76,12.76,0,0,1-19.83,15.57l-.05-.05c-.23-.22-.46-.44-.67-.68l-.33-.38a13.69,13.69,0,0,1-1-1.41c-.13-.21-.25-.42-.36-.64l-.11-.17-.56-1.13-16-31.93-4.52-9a8.32,8.32,0,0,1-.85-5.1,5.22,5.22,0,0,1,.14-.79,4,4,0,0,1,.22-.77,5.56,5.56,0,0,1,.29-.75c.09-.18.16-.36.26-.52h0a2.6,2.6,0,0,1,.21-.36,3,3,0,0,1,.23-.38,2.07,2.07,0,0,1,.17-.24,0,0,0,0,1,0,0,3.81,3.81,0,0,1,.4-.5,4.27,4.27,0,0,1,.41-.44l.19-.19a3.4,3.4,0,0,1,.4-.34,1.09,1.09,0,0,1,.29-.23,7.55,7.55,0,0,1,.62-.44l.74-.41.63-.27.15-.06.78-.24h0a4.61,4.61,0,0,1,.72-.15,7.83,7.83,0,0,1,1.74-.1,3.58,3.58,0,0,1,.72.07,3.44,3.44,0,0,1,.79.14A4.87,4.87,0,0,1,177.82,362.82Z" style="opacity:0.1"></path><path d="M189.24,417.62a12.76,12.76,0,1,1,17.56,4.11A12.75,12.75,0,0,1,189.24,417.62Z" style="fill:#37474f"></path><circle cx="200.08" cy="410.9" r="8.94" transform="translate(-231.76 560.5) rotate(-83.14)" style="fill:#455a64"></circle><path d="M168.06,375.12a8.34,8.34,0,1,1,11.49,2.69A8.35,8.35,0,0,1,168.06,375.12Z" style="fill:#37474f"></path><path d="M170.18,373.8a5.85,5.85,0,1,1,8.06,1.89A5.84,5.84,0,0,1,170.18,373.8Z" style="fill:#455a64"></path><path d="M215,301.77l-33.79,36.92a8,8,0,0,1-11.3.5h0a8,8,0,0,1-.5-11.3L203.22,291a8,8,0,0,1,11.3-.5h0A8,8,0,0,1,215,301.77Z" style="fill:#455a64"></path><path d="M175.32,330.06a3,3,0,1,1-2.74,3.22A3,3,0,0,1,175.32,330.06Z" style="fill:#37474f"></path><path d="M209.05,293.21a3,3,0,1,1-2.74,3.21A3,3,0,0,1,209.05,293.21Z" style="fill:#37474f"></path><path d="M507.64,250.13l9-9.77L541.77,262a7.84,7.84,0,0,1,.73,11.35h0a7.83,7.83,0,0,1-11.37.15Z" style="fill:#7C8CFF"></path><rect x="501.41" y="241.34" width="18.08" height="4.65" transform="translate(1035.94 34.4) rotate(132.77)" style="fill:#455a64"></rect><rect x="495.62" y="227.01" width="13.06" height="17.96" transform="translate(1016.37 27.6) rotate(132.77)" style="fill:#37474f"></rect><rect x="479.09" y="222.2" width="26.23" height="9.15" transform="translate(992.91 19.45) rotate(132.77)" style="fill:#455a64"></rect><path d="M496.12,222.54a2.26,2.26,0,1,1,3.2-.12A2.26,2.26,0,0,1,496.12,222.54Z" style="fill:#37474f"></path><path d="M485.21,234.34a2.26,2.26,0,1,1,3.19-.13A2.26,2.26,0,0,1,485.21,234.34Z" style="fill:#37474f"></path><polygon points="486.58 195.75 491.37 190.57 496.09 215.84 488.99 223.52 486.58 195.75" style="fill:#37474f"></polygon><polygon points="471.86 189.1 474.33 186.43 491.37 190.57 486.58 195.75 471.86 189.1" style="fill:#37474f"></polygon><polygon points="460.83 223.59 456.04 228.77 481.59 231.51 488.7 223.83 460.83 223.59" style="fill:#37474f"></polygon><polygon points="453.06 209.43 450.58 212.11 456.04 228.77 460.83 223.59 453.06 209.43" style="fill:#37474f"></polygon><path d="M558.85,320.66v36.45a8,8,0,0,1-8,8h0a8,8,0,0,1-8-8V320.66a8,8,0,0,1,8-8h0A8,8,0,0,1,558.85,320.66Z" style="fill:#37474f"></path><rect x="482.09" y="452.51" width="135.66" height="23.47" rx="9.8" style="fill:#455a64"></rect><polygon points="587.13 410.38 512.7 410.38 498.55 452.51 601.29 452.51 587.13 410.38" style="fill:#455a64"></polygon><polygon points="601.29 452.51 597.55 441.39 502.29 441.39 498.55 452.51 601.29 452.51" style="fill:#263238"></polygon><path d="M551.06,353.15h0a10.56,10.56,0,0,0-10.71,9.6l-5.24,46.72a14.87,14.87,0,0,0,14.52,16.21h0a14.86,14.86,0,0,0,15.14-15.62l-3.38-46.89A10.56,10.56,0,0,0,551.06,353.15Z" style="fill:#7C8CFF"></path><path d="M537.26,422.15A17,17,0,0,0,566.9,410l-.07-.92-2.45-33.8L563.51,363a12.67,12.67,0,0,0-25.28-.46l-5.13,45.8-.1.88A17.08,17.08,0,0,0,537.26,422.15Zm7.82-64.54a3.73,3.73,0,0,1,.6-.52,3.84,3.84,0,0,1,.59-.43,8.16,8.16,0,0,1,1.55-.81c.23-.09.46-.17.7-.24h0a7.16,7.16,0,0,1,.8-.19.66.66,0,0,1,.15,0l.69-.09a8,8,0,0,1,.85,0,4.65,4.65,0,0,1,.75.06,1.42,1.42,0,0,1,.36.05,2.68,2.68,0,0,1,.52.09l.26.06a5.54,5.54,0,0,1,.58.17,6.13,6.13,0,0,1,.6.22l0,0a1.31,1.31,0,0,1,.27.12,3.55,3.55,0,0,1,.39.2c.13.06.25.14.37.21h0a4.55,4.55,0,0,1,.49.32,5.75,5.75,0,0,1,.63.5,3.29,3.29,0,0,1,.58.54,6.27,6.27,0,0,1,.53.61,8.37,8.37,0,0,1,1.87,4.82l.72,10.07L562.57,409l.09,1.26v.2c0,.24,0,.48,0,.73a13.91,13.91,0,0,1-.15,1.73c0,.15-.06.32-.09.49s-.14.62-.23.92c0,0,0,.05,0,.08a12.8,12.8,0,0,1-12.52,9.2,12.68,12.68,0,0,1-9.24-4.23,12.55,12.55,0,0,1-3.24-8.24.45.45,0,0,1,0-.11v-.05c0-.42,0-.84.05-1.27,0-.21,0-.41.07-.61l.07-.6L542.45,363a8.34,8.34,0,0,1,2.08-4.79A6,6,0,0,1,545.08,357.61Z" style="fill:#7C8CFF"></path><path d="M537.26,422.15A17,17,0,0,0,566.9,410l-.07-.92-2.45-33.8L563.51,363a12.67,12.67,0,0,0-25.28-.46l-5.13,45.8-.1.88A17.08,17.08,0,0,0,537.26,422.15Zm7.82-64.54a3.73,3.73,0,0,1,.6-.52,3.84,3.84,0,0,1,.59-.43,8.16,8.16,0,0,1,1.55-.81c.23-.09.46-.17.7-.24h0a7.16,7.16,0,0,1,.8-.19.66.66,0,0,1,.15,0l.69-.09a8,8,0,0,1,.85,0,4.65,4.65,0,0,1,.75.06,1.42,1.42,0,0,1,.36.05,2.68,2.68,0,0,1,.52.09l.26.06a5.54,5.54,0,0,1,.58.17,6.13,6.13,0,0,1,.6.22l0,0a1.31,1.31,0,0,1,.27.12,3.55,3.55,0,0,1,.39.2c.13.06.25.14.37.21h0a4.55,4.55,0,0,1,.49.32,5.75,5.75,0,0,1,.63.5,3.29,3.29,0,0,1,.58.54,6.27,6.27,0,0,1,.53.61,8.37,8.37,0,0,1,1.87,4.82l.72,10.07L562.57,409l.09,1.26v.2c0,.24,0,.48,0,.73a13.91,13.91,0,0,1-.15,1.73c0,.15-.06.32-.09.49s-.14.62-.23.92c0,0,0,.05,0,.08a12.8,12.8,0,0,1-12.52,9.2,12.68,12.68,0,0,1-9.24-4.23,12.55,12.55,0,0,1-3.24-8.24.45.45,0,0,1,0-.11v-.05c0-.42,0-.84.05-1.27,0-.21,0-.41.07-.61l.07-.6L542.45,363a8.34,8.34,0,0,1,2.08-4.79A6,6,0,0,1,545.08,357.61Z" style="opacity:0.1"></path><path d="M562.67,411.15a12.75,12.75,0,1,0-13,12.5A12.75,12.75,0,0,0,562.67,411.15Z" style="fill:#37474f"></path><circle cx="549.92" cy="410.9" r="8.94" transform="translate(-88.03 157.4) rotate(-15.1)" style="fill:#455a64"></circle><path d="M559.2,363.79a8.35,8.35,0,1,0-8.51,8.17A8.35,8.35,0,0,0,559.2,363.79Z" style="fill:#37474f"></path><path d="M556.7,363.74a5.85,5.85,0,1,0-6,5.73A5.85,5.85,0,0,0,556.7,363.74Z" style="fill:#455a64"></path><path d="M529.45,270.51l13.83,48.1a8,8,0,0,0,9.9,5.47h0a8,8,0,0,0,5.47-9.89l-13.83-48.1a8,8,0,0,0-9.89-5.48h0A8,8,0,0,0,529.45,270.51Z" style="fill:#455a64"></path><path d="M552.41,313.51a3,3,0,1,0,1,4.1A3,3,0,0,0,552.41,313.51Z" style="fill:#37474f"></path><path d="M538.6,265.49a3,3,0,1,0,1,4.1A3,3,0,0,0,538.6,265.49Z" style="fill:#37474f"></path></g><g id="freepik--speech-bubble--inject-2"><path d="M672.87,84.44a29.21,29.21,0,0,1-48.82,18.48l-14.62,2.15,7.32-12.64a28.91,28.91,0,0,1-2-14.07,29.22,29.22,0,1,1,58.13,6.08Z" style="fill:#fff"></path><path d="M672.87,84.44A29.41,29.41,0,0,1,667,99.25a31.8,31.8,0,0,1-2.65,3,33.43,33.43,0,0,1-3.08,2.61,28.48,28.48,0,0,1-7,3.92,28.36,28.36,0,0,1-11.93,2,26.24,26.24,0,0,1-4-.42,29.49,29.49,0,0,1-14.46-7.14l.35.11-14.6,2.24-1.06.16.53-.93,7.27-12.67,0,.5a29.51,29.51,0,1,1,56.65-8.2Zm0,0a28.9,28.9,0,0,0-33.14-31.62,28.63,28.63,0,0,0-12.06,4.76,30.12,30.12,0,0,0-8.75,9.54,28.94,28.94,0,0,0-3.71,12.36,29.3,29.3,0,0,0,2.06,12.73l.11.26-.14.24-7.36,12.61-.52-.77,14.63-2,.2,0,.14.13a28.81,28.81,0,0,0,14,7.21,25,25,0,0,0,4,.48,28.11,28.11,0,0,0,4,0,29,29,0,0,0,7.8-1.71,27.46,27.46,0,0,0,7-3.8,34.61,34.61,0,0,0,3.09-2.58,31.81,31.81,0,0,0,2.65-3A29.33,29.33,0,0,0,672.87,84.44Z" style="fill:#263238"></path><polygon points="640.39 98.06 627.91 85.43 632.1 81.29 639.39 88.67 654.54 64.92 659.51 68.09 640.39 98.06" style="fill:#7C8CFF"></polygon></g><g id="freepik--Floor--inject-2"><polygon points="81.29 475.48 154.72 475.24 228.14 475.15 375 474.98 521.86 475.15 595.28 475.24 668.71 475.48 595.28 475.72 521.86 475.81 375 475.98 228.14 475.81 154.72 475.72 81.29 475.48" style="fill:#263238"></polygon></g></svg>