<svg xmlns="http://www.w3.org/2000/svg" viewBox="0 0 500 500"><g id="freepik--background-complete--inject-2"><path d="M401.87,158.45a4.12,4.12,0,0,1-4.11-1.27c-.28-.31-.57-.62-.87-.92s-.61-.6-.93-.88a4.11,4.11,0,0,1-1.26-4.09l1.37-5.11-16.63-4.46-1.37,5.11a4.11,4.11,0,0,1-3.14,2.93,21.06,21.06,0,0,0-2.48.66,4.09,4.09,0,0,1-4.17-1l-3.73-3.72-12.18,12.17,3.73,3.73a4.09,4.09,0,0,1,1,4.17c-.26.82-.48,1.65-.66,2.48a4.07,4.07,0,0,1-2.93,3.14l-5.1,1.37,4.46,16.63L358,188a4.08,4.08,0,0,1,4.08,1.26c.29.32.58.62.88.92s.6.59.92.88a4.1,4.1,0,0,1,1.27,4.1l-1.38,5.11,16.63,4.46,1.36-5.09a4.1,4.1,0,0,1,3.14-2.94,24,24,0,0,0,2.49-.66,4.09,4.09,0,0,1,4.17,1l3.73,3.73,12.17-12.18-3.72-3.73a4.06,4.06,0,0,1-1-4.17,24,24,0,0,0,.66-2.49,4.1,4.1,0,0,1,2.93-3.14l5.09-1.36L407,157.08Zm-12,24.77a14.11,14.11,0,1,1,0-19.95A14.12,14.12,0,0,1,389.89,183.22Z" style="fill:#ebebeb;opacity:0.5"></path><path d="M127.28,86.73a4.12,4.12,0,0,1-4.11-1.27c-.28-.32-.57-.62-.87-.92s-.61-.6-.93-.88a4.11,4.11,0,0,1-1.26-4.09l1.37-5.11L104.85,70l-1.37,5.1A4.07,4.07,0,0,1,100.34,78c-.84.18-1.66.4-2.48.66a4.09,4.09,0,0,1-4.17-1L90,74,77.78,86.17l3.73,3.73a4.11,4.11,0,0,1,1,4.17,21.59,21.59,0,0,0-.66,2.48,4.1,4.1,0,0,1-2.93,3.14l-5.11,1.37,4.47,16.63,5.12-1.37a4.11,4.11,0,0,1,4.09,1.26c.28.31.57.62.87.92s.61.59.92.87a4.12,4.12,0,0,1,1.27,4.11l-1.38,5.11,16.63,4.46,1.36-5.1a4.1,4.1,0,0,1,3.14-2.93q1.26-.27,2.49-.66a4.06,4.06,0,0,1,4.17,1l3.73,3.72,12.18-12.18-3.73-3.72a4.1,4.1,0,0,1-1-4.18,21.06,21.06,0,0,0,.66-2.48,4.1,4.1,0,0,1,2.94-3.14l5.09-1.36-4.46-16.63Zm-12,24.77a14.11,14.11,0,1,1,0-20A14.14,14.14,0,0,1,115.3,111.5Z" style="fill:#ebebeb"></path><path d="M76,158.34a1.87,1.87,0,0,1-.91-1.73c0-.19,0-.38,0-.57s0-.39,0-.58a1.86,1.86,0,0,1,.9-1.72l2.08-1.2-3.9-6.77L72.1,147a1.85,1.85,0,0,1-1.95-.07c-.32-.21-.66-.4-1-.58a1.85,1.85,0,0,1-1-1.65v-2.39H60.31v2.39a1.87,1.87,0,0,1-1,1.65c-.35.18-.68.37-1,.58a1.84,1.84,0,0,1-1.94.07l-2.08-1.2-3.9,6.77,2.08,1.21a1.82,1.82,0,0,1,.9,1.71c0,.19,0,.38,0,.58s0,.38,0,.57a1.84,1.84,0,0,1-.9,1.72l-2.08,1.2,3.9,6.77,2.07-1.2a1.85,1.85,0,0,1,2,.07,9.12,9.12,0,0,0,1,.58,1.87,1.87,0,0,1,1,1.65v2.39h7.81V167.4a1.85,1.85,0,0,1,1-1.65,10.14,10.14,0,0,0,1-.58,1.85,1.85,0,0,1,2-.07l2.07,1.2,3.9-6.77Zm-11.79,4.1a6.4,6.4,0,1,1,6.39-6.4A6.41,6.41,0,0,1,64.22,162.44Z" style="fill:#ebebeb;opacity:0.5"></path><path d="M447.58,213.66a1.89,1.89,0,0,1-.91-1.73c0-.19,0-.38,0-.57s0-.39,0-.58a1.87,1.87,0,0,1,.91-1.72l2.07-1.2-3.9-6.77-2.08,1.2a1.84,1.84,0,0,1-1.94-.07c-.33-.21-.66-.4-1-.58a1.87,1.87,0,0,1-1-1.65V197.6h-7.81V200a1.85,1.85,0,0,1-1,1.65c-.34.18-.68.37-1,.58a1.85,1.85,0,0,1-2,.07l-2.08-1.2-3.9,6.77,2.08,1.21a1.85,1.85,0,0,1,.91,1.71c0,.19,0,.38,0,.58s0,.38,0,.57a1.87,1.87,0,0,1-.91,1.72l-2.08,1.2,3.9,6.77,2.07-1.2a1.85,1.85,0,0,1,1.95.07,10.14,10.14,0,0,0,1,.58,1.85,1.85,0,0,1,1,1.65v2.39h7.81v-2.39a1.87,1.87,0,0,1,1-1.65,9.12,9.12,0,0,0,1-.58,1.85,1.85,0,0,1,1.95-.07l2.07,1.2,3.9-6.77Zm-11.79,4.1a6.4,6.4,0,1,1,6.4-6.4A6.41,6.41,0,0,1,435.79,217.76Z" style="fill:#ebebeb"></path><path d="M299.65,300.89v164.7H402.84V300.89Zm93.82,107.7H309V364.16h84.45Zm0-55H309V309.14h84.45Z" style="fill:#dbdbdb"></path><rect x="402.84" y="300.89" width="46.66" height="164.7" style="fill:#ebebeb"></rect><rect x="309.02" y="309.13" width="20.07" height="44.44" style="fill:#ebebeb"></rect><path d="M393.72,455.13H309.29V418.26h84.43Zm-83.93-.5h83.43V418.76H309.79Z" style="fill:#ebebeb"></path><rect x="343.17" y="426.43" width="16.67" height="6.09" style="fill:#ebebeb"></rect><rect x="309.02" y="364.16" width="20.07" height="44.44" style="fill:#ebebeb"></rect><rect x="354.38" y="381.05" width="40.97" height="14.12" transform="translate(762.97 13.25) rotate(90)" style="fill:#a6a6a6"></rect><rect x="370.44" y="390.54" width="8.84" height="14.12" transform="translate(772.46 22.74) rotate(90)" style="fill:#dbdbdb"></rect><rect x="372.24" y="376.38" width="5.24" height="14.12" transform="translate(758.3 8.58) rotate(90)" style="fill:#dbdbdb"></rect><rect x="333.64" y="319.29" width="35.68" height="34.29" style="fill:#ebebeb"></rect><rect x="369.32" y="319.29" width="13.56" height="34.29" style="fill:#c7c7c7"></rect><polygon points="333.64 336.43 369.32 336.43 341.46 337.31 333.64 336.43" style="fill:#c7c7c7"></polygon><polygon points="369.32 349.43 333.64 349.43 361.51 350.31 369.32 349.43" style="fill:#c7c7c7"></polygon><polygon points="333.64 326.85 356.24 326.85 336.15 327.57 333.64 326.85" style="fill:#c7c7c7"></polygon><polygon points="369.32 344.38 346.72 344.38 366.81 345.11 369.32 344.38" style="fill:#c7c7c7"></polygon><polygon points="342.2 323.03 367.69 323.03 363.44 323.46 342.2 323.03" style="fill:#c7c7c7"></polygon><polygon points="337.11 340.11 362.6 340.11 358.35 340.54 337.11 340.11" style="fill:#c7c7c7"></polygon><polygon points="352.79 330.11 369.32 330.11 372.28 331.26 352.79 330.11" style="fill:#ebebeb"></polygon><polygon points="329.09 330.11 345.62 330.11 348.58 331.26 329.09 330.11" style="fill:#ebebeb"></polygon><polygon points="350.31 345.52 333.77 345.52 330.81 346.67 350.31 345.52" style="fill:#ebebeb"></polygon><polygon points="369.32 341.61 382.6 341.61 385.56 342.76 369.32 341.61" style="fill:#c7c7c7"></polygon><polygon points="373.96 336.43 384.26 336.43 382.88 335.49 373.96 336.43" style="fill:#c7c7c7"></polygon><rect x="381.92" y="364.89" width="11.55" height="43.71" style="fill:#ebebeb"></rect><path d="M387.7,373.51a2.41,2.41,0,1,1,2.4-2.41A2.41,2.41,0,0,1,387.7,373.51Z" style="fill:#fff"></path><path d="M387.7,372.48a1.38,1.38,0,1,1,1.37-1.38A1.38,1.38,0,0,1,387.7,372.48Z" style="fill:#a6a6a6"></path><rect x="382.38" y="390.62" width="10.63" height="11.55" transform="translate(784.09 8.7) rotate(90)" style="fill:#fff"></rect><rect x="324.09" y="399.57" width="43.71" height="9.09" style="fill:#c7c7c7"></rect><path d="M359.18,404.12a2.41,2.41,0,1,1,2.4,2.4A2.4,2.4,0,0,1,359.18,404.12Z" style="fill:#fff"></path><path d="M360.21,404.12a1.38,1.38,0,1,1,1.37,1.37A1.37,1.37,0,0,1,360.21,404.12Z" style="fill:#a6a6a6"></path><rect x="330.98" y="399.57" width="10.63" height="9.09" transform="translate(672.59 808.23) rotate(180)" style="fill:#fff"></rect></g><g id="freepik--Floor--inject-2"><path d="M48.81,465.6c128.89-.62,273.49-.62,402.38,0-128.89.62-273.49.62-402.38,0Z" style="fill:#263238"></path></g><g id="freepik--Plant--inject-2"><path d="M98.72,350.22a45.59,45.59,0,0,1-.89,17.53,49,49,0,0,1-2.68,7.75c-1.4,3.21-2.86,6.34-2.5,9.84.33.23-.83.19-.87-.15-9.37-5.33-21.4-6.31-28.61-15-3.42-4.13-5.14-9.37-6-14.61-.89-5.71-1.14-12,.34-17.65,1.24-4.75,4-9.34,8.49-11.67s10.65-2.2,15.51-.69C92,328.78,97.24,340.09,98.72,350.22Z" style="fill:#44D4C8"></path><path d="M103.53,419.63c-1.28-4.26-2.56-8.53-3.87-12.78-2.57-8.34-5.25-16.64-8.21-24.84q-2.65-7.38-5.61-14.6A87.38,87.38,0,0,1,87,358.34c.78-3.63,1.92-7.14,3-10.7.07-.22-.29-.34-.38-.13-2.1,4.9-4.85,11.17-4.92,17-2.29-5.46-4.73-10.84-7.37-16.13a68.76,68.76,0,0,1,.42-13.44.16.16,0,0,0-.32-.06,47.49,47.49,0,0,0-.92,11.86q-3-6-6.4-11.78c-.2-.35-.68,0-.5.35Q74.83,345.48,79.4,356a45,45,0,0,0-14.7-8.51c-.23-.08-.4.25-.17.35a53.48,53.48,0,0,1,15.9,10.53q3.31,7.71,6.31,15.54c-5.87-5.75-13.9-9.53-21.67-11.56-.26-.07-.33.33-.08.41,9,2.71,16,7.8,22.81,13.92q1.19,3.17,2.34,6.35,4.33,12,8.27,24.25c1.26,3.89,2.5,7.8,3.72,11.7,1.31,4.21,2.34,8.65,4,12.71.17.39.86.3.77-.17A119.46,119.46,0,0,0,103.53,419.63Z" style="fill:#263238"></path><path d="M88,342a23.34,23.34,0,0,0-3.38,8.41c0,.08.11.13.14.05a70.78,70.78,0,0,1,3.66-8.26C88.54,342,88.14,341.77,88,342Z" style="fill:#263238"></path><path d="M71.25,361.55a24.68,24.68,0,0,0-8.41-2.83c-.08,0-.13.1-.05.13,1.35.56,2.78,1,4.14,1.48S69.65,361.5,71,362A.24.24,0,0,0,71.25,361.55Z" style="fill:#263238"></path><path d="M66.54,338.05a16.46,16.46,0,0,0-2.71-1.67.14.14,0,0,0-.15.24,16.86,16.86,0,0,0,2.66,1.73C66.52,338.45,66.71,338.16,66.54,338.05Z" style="fill:#263238"></path><path d="M130.33,382.07c-6.76,2-13.54,3.86-20.29,5.84-.59.17-12-21.7-7.88-33,3.81-10.43,12.54-18.24,23-21.78,4.82-1.64,10.75-3,15.84-1.89,4.53,1,7.73,4.71,9.2,9,2,5.79,1.34,12.69.25,18.6A32.57,32.57,0,0,1,143.76,374C140.17,378.29,135.59,380.51,130.33,382.07Z" style="fill:#44D4C8"></path><path d="M140.12,361.28a89.65,89.65,0,0,1-13.24,5.21,56.71,56.71,0,0,0-8.84,3.2c2.85-6.36,6-12.58,9.3-18.75,4.36-1.26,8.95-3.23,12.24-6.32a.18.18,0,0,0-.24-.28c-3.6,2.54-7.57,4.07-11.55,5.79.9-1.66,1.8-3.32,2.73-5,.25-.46-.38-.91-.69-.47a143,143,0,0,0-9.59,16.12,73.6,73.6,0,0,1-.7-14.77c0-.12-.18-.13-.19,0a49.06,49.06,0,0,0,.16,16.22c-2.37,4.73-4.52,9.57-6.46,14.48-.77-3-1.77-5.85-2.44-8.82a40.62,40.62,0,0,1-1-13c0-.13-.18-.14-.2,0a45.81,45.81,0,0,0,2.84,23.86c-1.13,2.95-2.21,5.92-3.2,8.88a177,177,0,0,0-9,46.86.29.29,0,0,0,.57,0,232.53,232.53,0,0,1,10.07-46.3c1.95-5.89,4.21-11.61,6.68-17.22,4-1.18,8-2.78,11.88-4.13s7.74-2.86,11-5.37A.14.14,0,0,0,140.12,361.28Z" style="fill:#263238"></path><path d="M146.41,354.93c-4.13,1.46-8,3.52-12.17,5-.19.07-.08.38.12.34,4.36-.91,8.69-2.26,12.21-5.12C146.71,355.05,146.56,354.87,146.41,354.93Z" style="fill:#263238"></path><path d="M112.69,346c0-.21-.27-.34-.34-.12-1.13,3.81-1.91,7.85-.81,11.74a.15.15,0,0,0,.29,0C112,353.69,111.81,349.88,112.69,346Z" style="fill:#263238"></path><path d="M129.76,337.22a10.06,10.06,0,0,0-1.8,6.47c0,.15.24.23.28.06.51-2.18,1.35-4.16,2-6.28A.28.28,0,0,0,129.76,337.22Z" style="fill:#263238"></path><path d="M50,391.72c2,6.28,6.69,15,14.14,15,4.83,0,9.69-.53,14.53-.6,5.18-.08,10.38-.07,15.55.24.43,0-.62-15.52-13.08-23.09-3.49-2.12-7.76-2.8-11.72-3.65a54.24,54.24,0,0,0-13.84-1.45c-2.87.12-5.25.73-6.27,3.66S49.05,388.73,50,391.72Z" style="fill:#44D4C8"></path><path d="M55.36,383.86c3,.77,6.09,1.67,9.12,2.63A32.29,32.29,0,0,0,62,384c-1.3-1.08-2.74-2-4.14-2.9-.12-.08,0-.3.11-.24a17,17,0,0,1,7.34,5.84c3.79,1.22,7.54,2.57,11.15,4.06a41.37,41.37,0,0,1,7.14,3.76,29.45,29.45,0,0,0-2.58-4.5c-1.66-2.14-3.89-3.34-6.06-4.86a.19.19,0,0,1,.2-.33,17.71,17.71,0,0,1,9.71,10.54,41,41,0,0,1,7.07,6.42c8.24,9.36,14.74,21.82,14.76,34.53,0,.3-.49.39-.54.07A70.51,70.51,0,0,0,90.4,402.66c-.59-.68-1.19-1.34-1.81-2a57.31,57.31,0,0,0-6.81-.51c-2.65,0-5.28.39-7.92.61-4.35.35-9.16.4-13.09-1.79-.17-.09-.05-.4.14-.33,8.75,3.19,17.92-.85,26.69,1.05a40.94,40.94,0,0,0-12.93-8.34l-.81-.32c-5.61.67-11.54,2.13-17,.31a.13.13,0,0,1,.07-.26c5.28,1.32,10.35-.34,15.56-.6-5.68-2.21-11.46-4-17.16-6.17C54.86,384.16,54.84,383.72,55.36,383.86Z" style="fill:#263238"></path><path d="M52.89,389.38a74.49,74.49,0,0,0,8.17.62.06.06,0,0,1,0,.12,17,17,0,0,1-8.24-.53C52.69,389.55,52.75,389.36,52.89,389.38Z" style="fill:#263238"></path><path d="M71.34,384a13.41,13.41,0,0,1,4,2.81c.15.13,0,.39-.2.27-.69-.5-1.39-1-2.11-1.43a21,21,0,0,1-2-1.24A.25.25,0,0,1,71.34,384Z" style="fill:#263238"></path><path d="M115.33,404.22c-.09.21.21.4.32.19,0,0,0,0,0,0a.29.29,0,0,0,.19.12,125.22,125.22,0,0,0,15.22,2.66c4.12.36,8.87.59,12.48-1.8,4.88-3.24,8.1-11.9,5.46-17.41-3.13-6.53-12.55-3-17.27-.66A34.69,34.69,0,0,0,115.33,404.22Z" style="fill:#44D4C8"></path><path d="M111.68,407.24a48.27,48.27,0,0,1,9.09-6.91,31.08,31.08,0,0,1,9.22-9.4c.17-.12.33.16.16.29a41.66,41.66,0,0,0-7.76,8.17,85.62,85.62,0,0,1,11.4-5.19,15.2,15.2,0,0,1,6.12-6.14c.05,0,.12.05.07.09a25.12,25.12,0,0,0-5.53,5.8c2.31-.86,4.65-1.67,7-2.44.21-.07.29.25.09.33-4.16,1.62-8.42,3.34-12.54,5.32a48.08,48.08,0,0,0,15.19-.05c.14,0,.2.18.06.22a29.92,29.92,0,0,1-16.12.24,75.18,75.18,0,0,0-7.65,4.28,18.81,18.81,0,0,1,6.18.51,47.35,47.35,0,0,0,10.86,1.23c.14,0,.18.22,0,.24-6.3,1.09-12.26-1.78-18.5-1a48.06,48.06,0,0,0-6.51,5.31,48.84,48.84,0,0,0-9.48,13.38c-2.63,5.35-4,11-6.18,16.55a.2.2,0,0,1-.39-.11C98.31,427,103.74,415,111.68,407.24Z" style="fill:#263238"></path><path d="M130.68,392.3a7.4,7.4,0,0,1,1.61-2,6.47,6.47,0,0,1,1.86-1.39c.07,0,.1.06.06.11-.51.58-1.23,1-1.79,1.57s-1,1.23-1.59,1.78A.09.09,0,0,1,130.68,392.3Z" style="fill:#263238"></path><path d="M141.07,395.68c.93-.23,1.92-.21,2.87-.41a27.07,27.07,0,0,0,2.79-.83.11.11,0,0,1,.08.2,9.25,9.25,0,0,1-5.74,1.34A.16.16,0,0,1,141.07,395.68Z" style="fill:#263238"></path><polygon points="85.72 424.5 86.55 433.89 89.36 465.6 114.19 465.6 117.69 433.89 118.73 424.5 85.72 424.5" style="fill:#37474f"></polygon><polygon points="85.72 424.5 86.55 433.89 117.69 433.89 118.73 424.5 85.72 424.5" style="fill:#263238"></polygon><rect x="83.26" y="421.94" width="37.92" height="7.62" transform="translate(204.45 851.5) rotate(180)" style="fill:#37474f"></rect></g><g id="freepik--Arrows--inject-2"><polygon points="402.49 311.23 402.49 297.2 250 297.2 250 269 402.49 269 402.49 254.99 451.19 283.1 402.49 311.23" style="fill:#44D4C8"></polygon><g style="opacity:0.4"><polygon points="402.49 311.23 402.49 297.2 250 297.2 250 269 402.49 269 402.49 254.99 451.19 283.1 402.49 311.23"></polygon></g><path d="M250,297.2A127.95,127.95,0,1,1,323.54,274,127.39,127.39,0,0,1,250,297.2Zm0-227.61a99.7,99.7,0,1,0,76.58,35.85A99.93,99.93,0,0,0,250,69.59Z" style="fill:#44D4C8"></path><path d="M250,297.2A127.95,127.95,0,1,1,323.54,274,127.39,127.39,0,0,1,250,297.2Zm0-227.61a99.7,99.7,0,1,0,76.58,35.85A99.93,99.93,0,0,0,250,69.59Z" style="opacity:0.4"></path><path d="M377.91,169.3A127.88,127.88,0,0,1,250,297.2V269a99.66,99.66,0,1,0-90.49-141.64l12.84,4.71-43.16,36-9.64-55.4L133,117.62a127.92,127.92,0,0,1,245,51.68Z" style="fill:#44D4C8"></path><g style="opacity:0.30000000000000004"><path d="M377.91,169.3A127.88,127.88,0,0,1,250,297.2V269a99.66,99.66,0,1,0-90.49-141.64l12.84,4.71-43.16,36-9.64-55.4L133,117.62a127.92,127.92,0,0,1,245,51.68Z"></path></g><path d="M377.91,169.3A127.88,127.88,0,0,1,250,297.2V269a99.71,99.71,0,1,0,0-199.41,107.45,107.45,0,0,0-12,.67l2.67,13.4L187.43,65.59,229.7,28.5l2.79,14A134.71,134.71,0,0,1,250,41.39,127.89,127.89,0,0,1,377.91,169.3Z" style="fill:#44D4C8"></path><g style="opacity:0.2"><path d="M377.91,169.3A127.88,127.88,0,0,1,250,297.2V269a99.71,99.71,0,1,0,0-199.41,107.45,107.45,0,0,0-12,.67l2.67,13.4L187.43,65.59,229.7,28.5l2.79,14A134.71,134.71,0,0,1,250,41.39,127.89,127.89,0,0,1,377.91,169.3Z"></path></g><path d="M377.91,169.3A127.88,127.88,0,0,1,250,297.2V269a99.69,99.69,0,0,0,81.58-157l-10.49,8.76-9.63-55.41,52.8,19.36-11,9.17A128,128,0,0,1,377.91,169.3Z" style="fill:#44D4C8"></path><g style="opacity:0.1"><path d="M377.91,169.3A127.88,127.88,0,0,1,250,297.2V269a99.69,99.69,0,0,0,81.58-157l-10.49,8.76-9.63-55.41,52.8,19.36-11,9.17A128,128,0,0,1,377.91,169.3Z"></path></g><path d="M379.9,227.12l-13.36-5.05A127.93,127.93,0,0,1,250,297.2H48.81V269H250a99.74,99.74,0,0,0,90.09-56.91l-12.8-4.83,43.51-35.63Z" style="fill:#44D4C8"></path></g><g id="freepik--Texts--inject-2"><g style="opacity:0.4"><path d="M149.09,214.87a.55.55,0,0,1,.78,0,.56.56,0,0,1,.12.19h0a.69.69,0,0,1,.06.4.81.81,0,0,1-.18.44,2.65,2.65,0,0,1-1,.7.84.84,0,0,0-.34.29,1,1,0,0,0-.14.4,2.1,2.1,0,0,0,0,.6l.5,1.07,2-.92a.56.56,0,0,1,.47,1l-5.34,2.5a.54.54,0,0,1-.73-.27h0l-.76-1.61a2.14,2.14,0,0,1,1-2.85,2.09,2.09,0,0,1,1.81,0,1.92,1.92,0,0,1,.19-.48,1.88,1.88,0,0,1,.84-.75,2.59,2.59,0,0,0,.51-.29A.54.54,0,0,1,149.09,214.87Zm-3,3a1,1,0,0,0-.51,1.37l.53,1.12,1.86-.88-.52-1.11A1,1,0,0,0,146.05,217.84Z"></path><path d="M148.74,213.33l-5.46,2.21a.54.54,0,0,1-.72-.3h0v0l-1.21-3a.54.54,0,0,1,.3-.71.55.55,0,0,1,.72.29l1,2.51,1.7-.68-.88-2.16a.56.56,0,0,1,1-.42l.87,2.16,1.71-.69-1-2.51a.56.56,0,0,1,1-.42l1.22,3a0,0,0,0,1,0,0h0A.56.56,0,0,1,148.74,213.33Z"></path><path d="M146.27,205.56a.24.24,0,0,0,0,.09h0l0,.07a0,0,0,0,1,0,0,.24.24,0,0,0-.06.08L141.36,210a.55.55,0,0,1-.72-.82l3.76-3.33-5-.37a.55.55,0,0,1,.07-1.1l6.33.47h.1l.07,0h0l.07,0h0s0,0,.07.06l0,0a.25.25,0,0,0,0,.07v0a.36.36,0,0,1,0,.09.3.3,0,0,1,0,.1h0a.27.27,0,0,0,0,.09s0,0,0,0h0a.54.54,0,0,1,0,.1Z"></path><path d="M138.73,202.85a.55.55,0,0,1-.68-.37.57.57,0,0,1,.37-.7l5.66-1.65a.55.55,0,0,1,.69.38.54.54,0,0,1-.37.68Z"></path><path d="M143.58,198.35l-5.73,1.43a.54.54,0,0,1-.67-.4h0v0l-.79-3.14a.56.56,0,0,1,.4-.67.57.57,0,0,1,.68.4l.66,2.63,1.77-.44-.56-2.26a.56.56,0,0,1,.4-.67.55.55,0,0,1,.67.4l.57,2.26,1.78-.45-.65-2.63a.57.57,0,0,1,.41-.67.56.56,0,0,1,.66.4l.79,3.15s0,0,0,0h0A.54.54,0,0,1,143.58,198.35Z"></path><path d="M135,184.55l6.16,1.42a.24.24,0,0,1,.1,0h0l.07,0h0l.06.06h0s0,0,.07.08h0a.59.59,0,0,0,0,.08v0l0,.09a.27.27,0,0,1,0,.09v0a.23.23,0,0,0,0,.07v0a.18.18,0,0,1,0,.1h0a.29.29,0,0,1,0,.08l0,0a.12.12,0,0,0-.05,0s0,0,0,0l-.08.05-2.83,1.82,3.28.77.09,0a0,0,0,0,0,0,0,.18.18,0,0,1,.07,0h0l.06.05v0s.06.05.07.07h0s0,.06,0,.07v0a.32.32,0,0,1,0,.09.34.34,0,0,1,0,.1v0a.2.2,0,0,0,0,.07v0a.15.15,0,0,1,0,.1h0s0,.05,0,.08,0,0,0,0,0,0-.05.06h0l-.08.06L136.65,194a.53.53,0,0,1-.75-.17.54.54,0,0,1,.16-.75l4.23-2.72-3.24-.75a.55.55,0,0,1-.43-.46.59.59,0,0,1,.25-.57l2.8-1.79-4.89-1.13a.55.55,0,0,1-.41-.67A.53.53,0,0,1,135,184.55Z"></path><path d="M158.05,107.86l-4.79-3.45a.54.54,0,0,1-.12-.77l.69-1a3.5,3.5,0,0,1,5.68,4.09l-.69,1A.54.54,0,0,1,158.05,107.86Zm.2-1.23.36-.5a2.39,2.39,0,0,0-3.88-2.8l-.36.51Z"></path><path d="M162,102.48l-4.64-3.65a.54.54,0,0,1-.09-.77h0l2-2.55a.55.55,0,0,1,.77-.09.57.57,0,0,1,.1.78l-1.67,2.13,1.43,1.13,1.44-1.83a.56.56,0,1,1,.88.68l-1.44,1.83,1.44,1.14,1.68-2.13a.56.56,0,0,1,.78-.09.58.58,0,0,1,.09.78l-2,2.54h0v0A.55.55,0,0,1,162,102.48Z"></path><path d="M165.53,94.7l-.81.93,1.63,1.43a.55.55,0,1,1-.73.83L161.18,94a.54.54,0,0,1-.06-.77h0l1.17-1.34a2.14,2.14,0,1,1,3.23,2.81Zm-1.65.2.81-.93a1,1,0,1,0-1.55-1.35l-.81.92Z"></path><path d="M169.46,93.58l-4.25-4.09a.55.55,0,0,1,0-.78.56.56,0,0,1,.79,0l3.84,3.7,1.88-2a.56.56,0,0,1,.79,0,.55.55,0,0,1,0,.77l-2.25,2.34h0A.54.54,0,0,1,169.46,93.58Z"></path><path d="M173.31,82a3.62,3.62,0,0,1,2.46,1.17,3.66,3.66,0,0,1,1,2.54,3.26,3.26,0,0,1-1,2.41,3.38,3.38,0,0,1-2.52.88,3.73,3.73,0,0,1-3.44-3.72,3.38,3.38,0,0,1,1.07-2.45A3.23,3.23,0,0,1,173.31,82ZM174.94,84a2.58,2.58,0,0,0-1.69-.82,2.11,2.11,0,0,0-1.64.55,2.18,2.18,0,0,0-.71,1.62,2.56,2.56,0,0,0,.69,1.75,2.48,2.48,0,0,0,1.68.81,2.13,2.13,0,0,0,2.35-2.17A2.56,2.56,0,0,0,174.94,84Z"></path><path d="M179.11,77.24l.21,3.47L181,82.8a.55.55,0,0,1-.85.7l-1.72-2.09-3.36-.88a.51.51,0,0,1-.39-.65.52.52,0,0,1,.66-.39l2.81.72-.17-2.9a.55.55,0,0,1,1.09-.07Z"></path><path d="M272.3,55l-1.57-.27L269.84,60a.55.55,0,0,1-1.09-.19l.9-5.26-1.56-.27a.55.55,0,0,1-.45-.64.54.54,0,0,1,.64-.45l4.21.72a.55.55,0,0,1,.45.63A.57.57,0,0,1,272.3,55Z"></path><path d="M273.51,60.72l1.3-5.76a.54.54,0,0,1,.66-.41h0l3.16.71a.56.56,0,0,1,.41.66.57.57,0,0,1-.66.43l-2.64-.6-.41,1.78,2.28.52a.55.55,0,0,1,.41.65.56.56,0,0,1-.66.43l-2.27-.52-.41,1.8,2.64.6a.56.56,0,0,1,.42.66.57.57,0,0,1-.66.42L274,61.38s0,0,0,0h0A.53.53,0,0,1,273.51,60.72Z"></path><path d="M279.34,60.86a.53.53,0,0,1,.73.13,3.16,3.16,0,0,0,1.62,1.26,2.12,2.12,0,0,0,1.3,0,.88.88,0,0,0,.61-.57.54.54,0,0,0,0-.33.91.91,0,0,0-.21-.38,3.92,3.92,0,0,0-1.19-.82h0a5.35,5.35,0,0,1-1.13-.73,2.19,2.19,0,0,1-.68-1,1.54,1.54,0,0,1,0-.85,1.87,1.87,0,0,1,1.17-1.19,2.94,2.94,0,0,1,1.81,0,3.91,3.91,0,0,1,1.88,1.36.53.53,0,0,1-.06.73.51.51,0,0,1-.73-.05,2.85,2.85,0,0,0-1.37-1.06,1.85,1.85,0,0,0-1.17,0,.8.8,0,0,0-.54.5.58.58,0,0,0,0,.29,1,1,0,0,0,.19.32,3.45,3.45,0,0,0,1.08.77h0a5.5,5.5,0,0,1,1.21.79,2.31,2.31,0,0,1,.74,1.07,1.55,1.55,0,0,1,0,.88,1.88,1.88,0,0,1-1.25,1.25,3,3,0,0,1-1.93,0,4.28,4.28,0,0,1-2.19-1.66A.53.53,0,0,1,279.34,60.86Z"></path><path d="M291.21,60.24l-1.5-.52-1.75,5a.55.55,0,1,1-1-.36l1.75-5-1.49-.52a.56.56,0,0,1,.36-1.05l4,1.41a.53.53,0,0,1,.33.7A.55.55,0,0,1,291.21,60.24Z"></path><path d="M349.16,119.25l5.37-2.43a.54.54,0,0,1,.73.27l.49,1.08a3.5,3.5,0,0,1-6.38,2.88l-.49-1.08A.54.54,0,0,1,349.16,119.25Zm1,.78.26.56a2.39,2.39,0,0,0,4.36-2l-.26-.56Z"></path><path d="M351.83,125.3l5.5-2.14a.55.55,0,0,1,.72.31h0v0l1.18,3a.56.56,0,0,1-.32.71.55.55,0,0,1-.72-.3l-1-2.53-1.71.66.85,2.18a.56.56,0,0,1-.32.71.56.56,0,0,1-.72-.31l-.84-2.17-1.72.66,1,2.53a.55.55,0,1,1-1,.4l-1.18-3s0,0,0,0h0A.56.56,0,0,1,351.83,125.3Z"></path><path d="M354.22,133.12s0-.05,0-.09h0a.16.16,0,0,1,0-.07h0l.06-.08,4.8-4.13a.55.55,0,0,1,.71.83l-3.8,3.29,5,.43a.55.55,0,0,1-.09,1.1l-6.32-.55s-.07,0-.09,0h0s0,0-.08,0h0l-.07,0v0s-.06,0-.07-.06l0,0a.25.25,0,0,0,0-.07v0a.36.36,0,0,1,0-.09.3.3,0,0,1,0-.1h0a.27.27,0,0,0,0-.09s0,0,0,0h0a.54.54,0,0,1,0-.1Z"></path><path d="M356.07,137.6l5.71-1.51a.55.55,0,0,1,.67.4h0v0l.82,3.13a.55.55,0,0,1-.39.67.56.56,0,0,1-.68-.39l-.69-2.62-1.77.47.59,2.25a.55.55,0,0,1-1.07.28l-.6-2.25-1.78.47.69,2.62a.55.55,0,1,1-1.07.28l-.83-3.13s0,0,0,0h0A.54.54,0,0,1,356.07,137.6Z"></path><path d="M357.51,143.32l5.77-1.21a.54.54,0,0,1,.65.43.56.56,0,0,1-.42.66l-5.22,1.09.55,2.65a.55.55,0,0,1-1.08.23l-.67-3.17v0h0A.54.54,0,0,1,357.51,143.32Z"></path><path d="M364.9,153a3.68,3.68,0,0,1-5,.75,3.27,3.27,0,0,1-1.41-2.2,3.37,3.37,0,0,1,.69-2.59,3.69,3.69,0,0,1,2.36-1.35,3.6,3.6,0,0,1,2.64.61,3.28,3.28,0,0,1,1.42,2.26A3.2,3.2,0,0,1,364.9,153Zm-2.52.25a2.61,2.61,0,0,0,1.63-.93,2.18,2.18,0,0,0,.47-1.67,2.23,2.23,0,0,0-.94-1.5,2.56,2.56,0,0,0-1.84-.41,2.52,2.52,0,0,0-1.62.93,2.21,2.21,0,0,0-.47,1.71,2.16,2.16,0,0,0,.95,1.45A2.55,2.55,0,0,0,362.38,153.24Z"></path><path d="M362.08,158.87l-.11-1.23-2.16.19a.55.55,0,0,1-.09-1.1l5.87-.52a.56.56,0,0,1,.6.5h0l.16,1.78a2.14,2.14,0,1,1-4.27.37Zm1-1.32.11,1.22a1,1,0,1,0,2.05-.18l-.11-1.22Z"></path><path d="M304.7,272.8l-3-5.1a.54.54,0,0,1,.2-.75l1-.59a3.5,3.5,0,0,1,3.52,6l-1,.6A.56.56,0,0,1,304.7,272.8Zm.68-1.05.54-.31a2.39,2.39,0,0,0-2.41-4.13l-.54.32Z"></path><path d="M310.61,269.28l-3.25-4.93a.54.54,0,0,1,.16-.76h0v0l2.71-1.78a.55.55,0,0,1,.76.16.57.57,0,0,1-.15.77l-2.26,1.49,1,1.53,1.95-1.29a.57.57,0,0,1,.76.16.56.56,0,0,1-.15.77l-1.94,1.28,1,1.54,2.26-1.49a.56.56,0,0,1,.77.16.56.56,0,0,1-.16.76l-2.7,1.79h0A.55.55,0,0,1,310.61,269.28Z"></path><path d="M314.81,265a.53.53,0,0,1,.55-.5,3.17,3.17,0,0,0,2-.52,2.1,2.1,0,0,0,.78-1,.89.89,0,0,0-.08-.83.64.64,0,0,0-.26-.21,1,1,0,0,0-.42-.06,4,4,0,0,0-1.38.44h0a5.28,5.28,0,0,1-1.27.46,2.17,2.17,0,0,1-1.21-.07,1.48,1.48,0,0,1-.67-.52,1.83,1.83,0,0,1-.23-1.65,3,3,0,0,1,1.07-1.46,4,4,0,0,1,2.23-.66.51.51,0,0,1,.53.49.5.5,0,0,1-.48.54,3,3,0,0,0-1.67.45,2,2,0,0,0-.7.94.8.8,0,0,0,.07.73.51.51,0,0,0,.23.19.94.94,0,0,0,.37,0,3.45,3.45,0,0,0,1.26-.39h0a6.22,6.22,0,0,1,1.36-.49,2.34,2.34,0,0,1,1.29.07,1.69,1.69,0,0,1,.71.54,1.94,1.94,0,0,1,.23,1.76,3.13,3.13,0,0,1-1.15,1.56,4.29,4.29,0,0,1-2.65.73A.54.54,0,0,1,314.81,265Z"></path><path d="M317.44,257.1a.53.53,0,0,1,.08-.77.56.56,0,0,1,.78.07L322,261a.57.57,0,0,1-.09.78.53.53,0,0,1-.77-.08Z"></path><path d="M321.37,257.63a3.7,3.7,0,0,1,2.53-6.1.57.57,0,0,1,.62.52.57.57,0,0,1-.54.61,2.63,2.63,0,0,0-1.53.66,2.52,2.52,0,0,0-.85,1.75,2.42,2.42,0,0,0,.61,1.79,2.38,2.38,0,0,0,1.71.78,2.52,2.52,0,0,0,1.82-.67,2.73,2.73,0,0,0,.77-1.2l-.92-1-1.06,1a.58.58,0,0,1-.81,0,.56.56,0,0,1,0-.79l1.46-1.32h0a.56.56,0,0,1,.8,0l1.48,1.64a.55.55,0,0,1,.09.14s0,0,0,.05h0a.46.46,0,0,1,0,.31,3.72,3.72,0,0,1-1.16,2.1A3.63,3.63,0,0,1,321.37,257.63Z"></path><path d="M330.57,253.17a.56.56,0,0,1,0,.77.54.54,0,0,1-.78,0l-4.19-4h0a.55.55,0,0,1-.18-.48.54.54,0,0,1,.62-.46l5.45.75-3-2.84a.54.54,0,1,1,.75-.79l4.2,4a.55.55,0,0,1,0,.77.52.52,0,0,1-.42.16H333l-5.42-.76Z"></path><path d="M97.45,284.67H96.22v2.16a.56.56,0,0,1-1.11,0v-5.89a.55.55,0,0,1,.55-.55h1.79a2.14,2.14,0,1,1,0,4.28Zm-1.23-1.11h1.23a1,1,0,1,0,0-2.06H96.22Z"></path><path d="M101,286.83v-5.89a.55.55,0,0,1,.55-.55.56.56,0,0,1,.56.55v5.33h2.71a.56.56,0,0,1,0,1.11H101.5A.55.55,0,0,1,101,286.83Z"></path><path d="M110.14,285.73h-2.42l-.49,1.3a.56.56,0,0,1-.52.35.58.58,0,0,1-.19,0,.57.57,0,0,1-.33-.72l2.21-5.88a.56.56,0,0,1,.53-.35.55.55,0,0,1,.53.35l2.2,5.88a.57.57,0,0,1-.33.72.56.56,0,0,1-.7-.32Zm-.41-1.09-.8-2.15-.81,2.15Z"></path><path d="M114.15,286.83a.55.55,0,1,1-1.09,0V281h0a.54.54,0,0,1,.22-.46.55.55,0,0,1,.76.12l3.23,4.46V281a.54.54,0,0,1,.54-.54.55.55,0,0,1,.55.54v5.8a.55.55,0,0,1-.55.55.54.54,0,0,1-.41-.2l-.05-.06-3.2-4.43Z"></path><path d="M338,286.83v-5.89a.55.55,0,0,1,.55-.55.56.56,0,0,1,.56.55v5.33h2.71a.56.56,0,0,1,0,1.11h-3.27A.55.55,0,0,1,338,286.83Z"></path><path d="M347.25,285.73h-2.43l-.49,1.3a.56.56,0,0,1-.52.35.58.58,0,0,1-.19,0,.57.57,0,0,1-.33-.72l2.21-5.88a.56.56,0,0,1,.53-.35.55.55,0,0,1,.53.35l2.21,5.88a.57.57,0,0,1-.33.72.56.56,0,0,1-.7-.32Zm-.41-1.09-.81-2.15-.81,2.15Z"></path><path d="M352.78,287.38a2.88,2.88,0,0,1-2.89-2.88v-3.56a.54.54,0,0,1,.55-.55.56.56,0,0,1,.56.55v3.56a1.78,1.78,0,0,0,3.56,0v-3.56a.55.55,0,0,1,.56-.55.54.54,0,0,1,.55.55v3.56A2.89,2.89,0,0,1,352.78,287.38Z"></path><path d="M359,286.83a.55.55,0,1,1-1.09,0V281h0a.54.54,0,0,1,.22-.46.55.55,0,0,1,.76.12l3.22,4.46V281a.54.54,0,0,1,.54-.54.55.55,0,0,1,.55.54v5.8a.55.55,0,0,1-.55.55.54.54,0,0,1-.41-.2l-.05-.06L359,282.69Z"></path><path d="M365.28,283.79a3.67,3.67,0,0,1,3.67-3.6,3.74,3.74,0,0,1,2.31.78.57.57,0,0,1-.7.91,2.49,2.49,0,0,0-1.61-.55,2.65,2.65,0,0,0-1.8.72,2.47,2.47,0,0,0-.73,1.74,2.41,2.41,0,0,0,.73,1.73,2.65,2.65,0,0,0,1.8.72,2.51,2.51,0,0,0,1.61-.55.61.61,0,0,1,.8.11.59.59,0,0,1-.1.8,3.74,3.74,0,0,1-2.31.78A3.66,3.66,0,0,1,365.28,283.79Z"></path><path d="M373.32,286.83v-5.89a.54.54,0,0,1,.55-.55.55.55,0,0,1,.56.55v2.4H377v-2.4a.54.54,0,0,1,.55-.55.55.55,0,0,1,.56.55v5.89a.55.55,0,0,1-.56.55.54.54,0,0,1-.55-.55v-2.39h-2.59v2.39a.55.55,0,0,1-.56.55A.54.54,0,0,1,373.32,286.83Z"></path></g></g><g id="freepik--Character--inject-2"><path d="M184.89,127.43c-17.29,9.78-48.74,39.53-46.43,47.8,4.66,16.68,31.22,38,36.77,42.49,3.24,2.63,16.49-26.87,13.44-30.12-3.55-3.8-18.68-14.14-18.73-16.17-.05-1.54,12.55-18.08,21.84-32.15C202.55,123,193.13,122.77,184.89,127.43Z" style="fill: rgb(247, 169, 160);"></path><path d="M170.92,212.87c2.39,2.89,14.51,15.14,18.64,17.8s16.59,9.44,18.94,6.48-1.13-5.24-1.13-5.24,5.71,2,7.81-1.16-3.44-6.56-3.44-6.56,6,1.65,7.89-1.68-4.28-5.79-4.28-5.79,5.44,1.77,5.82-1.62c.46-4.09-9.93-6.22-14.27-9.5-1-.74-18.92-16.5-18.92-16.5Z" style="fill: rgb(247, 169, 160);"></path><path d="M215.88,216.94c-7.63-1.59-10.7-3.6-16.21-8.94-.11-.1-.29,0-.19.16,4.93,5.71,8.41,8.79,16.34,9.16C216.21,217.33,216.24,217,215.88,216.94Z" style="fill:#263238"></path><path d="M212.35,224.3c-7.78-2.34-11.12-4.5-17.31-9.66-.09-.07-.22.07-.14.15,5.65,5.57,9.19,8.57,17.27,9.89C212.54,224.74,212.71,224.41,212.35,224.3Z" style="fill:#263238"></path><path d="M207.06,231.64c-7.37-2.82-11.13-5-16.5-10.8a.14.14,0,0,0-.22.18c4.9,6.43,9.58,9.22,16.61,10.83C207.44,232,207.53,231.81,207.06,231.64Z" style="fill:#263238"></path><path d="M184.52,185.63s9.76.19,14,1.22,18.78,10.73,16.86,14c-2.47,4.2-11.95.25-16.34-2.29,0,0-5.71,9.72-13.12,8.36S184.52,185.63,184.52,185.63Z" style="fill: rgb(247, 169, 160);"></path><path d="M214.36,201.76c-5,2.2-10.57-1.5-15-3.65a.45.45,0,0,0-.66.33c-2.67,3.92-7.57,8.66-12.57,8.71a.12.12,0,0,0,0,.23c5.37.67,10.57-3.59,13.21-8.07,4.53,2.27,10.25,5.75,15.07,2.5A0,0,0,0,0,214.36,201.76Z" style="fill:#263238"></path><path d="M187.89,183.75,167.64,214s-32.19-29.81-30.4-40.84,30.21-37,45.73-45.65,16.86.2,9.94,11.83-22,32.14-21.74,32.71S187.89,183.75,187.89,183.75Z" style="fill:#455a64"></path><path d="M172.84,200.11c1.84-1.73,3.65-3.5,5.45-5.27.87-.85,1.75-1.7,2.59-2.58s1.9-1.84,2.73-2.85c.06-.07,0-.16-.09-.1-1.06.77-2,1.71-3,2.56s-1.82,1.6-2.73,2.42c-1.87,1.69-3.75,3.39-5.59,5.12-3.68,3.49-7.25,7.06-10.79,10.69a.1.1,0,1,0,.13.14C165.36,206.93,169.14,203.58,172.84,200.11Z" style="fill:#263238"></path><path d="M192.92,139.34c-6.92,11.63-22,32.14-21.75,32.71s16.73,11.7,16.73,11.7L167.64,214s-25.29-23.43-29.79-36.43l56-53.43C198.49,125,197.57,131.51,192.92,139.34Z" style="fill:#37474f"></path><path d="M143.21,392.85s-1.07,47.9-1.07,47.93c.27,8.84.65,16.6,1.23,20.59a.13.13,0,0,0,0,.06,6.29,6.29,0,0,0,.73,2.71l.06.06c2.68,1.7,73.44,1.66,75.91.82s.29-7.93-2.46-10.12-29.86-14.28-29.86-14.28l-.5-47.86Z" style="fill: rgb(247, 169, 160);"></path><path d="M142.35,431.28s-.21,9.47-.21,9.5c.27,8.84.65,16.6,1.23,20.59a.13.13,0,0,0,0,.06,11.75,11.75,0,0,0,.73,2.71l.06.06c2.68,1.7,73.44,1.66,75.91.82s.29-7.93-2.46-10.12-29.86-14.28-29.86-14.28l-.2-9.64Z" style="fill:#fff"></path><path d="M192.1,440.53c-4.73-.65-10.43.34-13.85,3.85-.14.14.06.33.21.27a66,66,0,0,1,13.65-3.53A.3.3,0,0,0,192.1,440.53Z" style="fill:#263238"></path><path d="M195.58,442.41c-4.73-.66-10.43.34-13.85,3.85-.14.14.06.32.21.27A66.17,66.17,0,0,1,195.59,443,.3.3,0,0,0,195.58,442.41Z" style="fill:#263238"></path><path d="M199.06,444.28c-4.73-.65-10.43.35-13.85,3.86-.13.13.06.32.21.27a65.54,65.54,0,0,1,13.65-3.53A.3.3,0,0,0,199.06,444.28Z" style="fill:#263238"></path><path d="M220.08,465c-2.47.84-73.22.89-75.91-.82-1-.64-1.65-10.94-2-23.42,0-.13,0-.26,0-.39l45.64-.54v.77s27.09,12.1,29.85,14.29S222.55,464.2,220.08,465Z" style="fill:#37474f"></path><path d="M142.13,440.38v.4c.39,12.48,1,22.79,2,23.42,1.21.77,16.56,1.19,33.14,1.34,19.84.17,41.43-.06,42.77-.51,2.47-.83.28-7.94-2.46-10.13s-29.85-14.28-29.85-14.28l0-.77-15.23.18Z" style="fill:#44D4C8"></path><path d="M219.28,462.28c-11.93-.28-60.06-.31-71.87.32-.1,0-.1.07,0,.07,11.81.54,59.94.18,71.87-.19C219.53,462.47,219.53,462.29,219.28,462.28Z" style="fill:#263238"></path><path d="M172.56,440c1.32,7.61,3.32,18.83,4.75,25.51,19.84.17,41.43-.06,42.77-.51,2.47-.83.28-7.94-2.46-10.13s-29.85-14.28-29.85-14.28l0-.77Z" style="opacity:0.1"></path><path d="M138.73,440.2l51.18.49s1.29-89.27,1.52-117.06c.25-31.74-1.55-127-1.55-127H151.61s-10.27,21-4.4,44.6l1.62,85Z" style="fill:#263238"></path><path d="M142.52,431.24a37,37,0,0,1,4.08-.32c1.51-.11,3-.22,4.54-.29,2.91-.12,5.82-.17,8.73-.18,5.88,0,11.76,0,17.63.2,3.35.11,6.69.24,10,.43a.11.11,0,0,1,0,.21c-5.83.21-11.66.31-17.48.42s-11.66.22-17.48.11c-1.67,0-3.34,0-5-.14s-3.37,0-5-.24C142.45,431.42,142.41,431.26,142.52,431.24Z" style="fill:#37474f"></path><path d="M185.23,384.24c.59-13.78.42-32.5.8-46.29q1.14-41.35.6-82.75c-.2-15.47-.61-30.95-1.07-46.42,0-.17.26-.16.27,0,1.46,27.69,2,55.44,2,83.18,0,27.58.07,60.11-1.29,87.66-.77,15.47-.71,31.94-2.16,47.36,0,.13-.22.13-.21,0C184.84,413.07,184.63,398.16,185.23,384.24Z" style="fill:#37474f"></path><path d="M197.2,393.71s.39,46.27.39,46.31c0,8.85.21,16.61.68,20.61a.2.2,0,0,0,0,.07,6.13,6.13,0,0,0,.66,2.73l.05.05c2.64,1.78,73.37,3.61,75.86,2.85s.5-7.92-2.19-10.18-29.46-15.08-29.46-15.08l-.83-46.25Z" style="fill: rgb(247, 169, 160);"></path><path d="M197.51,430.52s.08,9.46.08,9.5c0,8.85.21,16.61.68,20.61a.2.2,0,0,0,0,.07,11.72,11.72,0,0,0,.66,2.73l.05.05c2.64,1.78,73.37,3.61,75.86,2.85s.5-7.92-2.19-10.18-29.46-15.08-29.46-15.08l.05-9.64Z" style="fill:#fff"></path><path d="M247.53,441.1c-4.71-.78-10.43.06-13.95,3.48-.13.14.06.33.21.28a65.89,65.89,0,0,1,13.74-3.17A.3.3,0,0,0,247.53,441.1Z" style="fill:#263238"></path><path d="M251,443.07c-4.71-.78-10.43.06-14,3.48-.13.13.06.33.21.27A66.5,66.5,0,0,1,251,443.66.3.3,0,0,0,251,443.07Z" style="fill:#263238"></path><path d="M254.39,445c-4.71-.77-10.43.07-13.95,3.49-.13.13.06.32.21.27a66.5,66.5,0,0,1,13.74-3.16A.3.3,0,0,0,254.39,445Z" style="fill:#263238"></path><path d="M274.85,466.33c-2.49.77-73.22-1.07-75.86-2.85-1-.66-1.35-11-1.4-23.46v-.39l45.65.67,0,.77s26.76,12.82,29.46,15.08S277.35,465.57,274.85,466.33Z" style="fill:#44D4C8"></path><path d="M274.12,463.57c-11.91-.61-60-1.91-71.85-1.6-.09,0-.1.07,0,.07,11.8.86,59.92,1.77,71.85,1.72C274.37,463.76,274.38,463.58,274.12,463.57Z" style="fill:#263238"></path><path d="M173.81,245.65s21,66.18,21.38,78.35c.32,10.37-1,116.78-1,116.78l53.15.32S242.85,332.58,242,321.77c-1.55-20.21-19.25-75.68-31.91-125.11H152.8s.5,25.89,12.27,44.6C165.07,241.26,170.4,243.73,173.81,245.65Z" style="fill:#263238"></path><path d="M197,431c6.14-.18,12.51-.36,18.65-.2s12.2.24,18.28.6c3.45.21,6.9.32,10.34.66a.1.1,0,0,1,0,.19c-6.14.36-12.3.29-18.45.23s-12.19-.12-18.28-.4c-3.45-.16-6.9-.33-10.34-.57C196.84,431.46,196.64,431,197,431Z" style="fill:#37474f"></path><path d="M208.63,227.85c1.9,6.32,3.5,12.74,5.19,19.12s3.42,12.86,5.11,19.3c3.28,12.45,6.51,24.92,9,37.56a227.41,227.41,0,0,1,4.25,38.5c.28,13.17,0,26.37-.08,39.55s-.2,26.49-.43,39.74c0,1.65-.07,3.3-.13,4.94a.12.12,0,0,1-.24,0c-.35-13.18-.17-26.38-.12-39.56s.21-26.38.1-39.56a236.56,236.56,0,0,0-3.38-39c-2.22-12.69-5.35-25.19-8.59-37.64-1.84-7.11-3.71-14.21-5.55-21.32s-3.85-14.29-5.48-21.5A.2.2,0,0,1,208.63,227.85Z" style="fill:#37474f"></path><path d="M187,246.93a47.34,47.34,0,0,1-7.89-.72,74.66,74.66,0,0,1-7.65-2.12,61,61,0,0,0-7.5-1.22,26.42,26.42,0,0,1-7.35-2.19c-.11-.06-.2.11-.09.16a46.25,46.25,0,0,0,7,3.06c2.52.79,5.16.9,7.71,1.53a64.51,64.51,0,0,0,7.87,1.81,28.56,28.56,0,0,0,7.89-.14C187.09,247.09,187.06,246.93,187,246.93Z" style="fill:#37474f"></path><path d="M190.31,299.58c-.5-2-1-3.93-1.51-5.88-1.07-3.95-2.17-7.91-3.36-11.82-2.37-7.79-4.61-15.62-7.12-23.36-1.43-4.39-2.7-8.84-4.37-13.15a.09.09,0,0,0-.17.06c.84,4,2,7.94,3.09,11.9s2.2,7.89,3.34,11.82c2.27,7.82,4.49,15.65,7,23.41.7,2.17,1.41,4.34,2.16,6.5s1.37,4.47,2.29,6.62a.1.1,0,0,0,.19-.06C191.46,303.58,190.83,301.59,190.31,299.58Z" style="fill:#37474f"></path><path d="M301.58,193.47l5.06-15.09-11.24-4.77a46.21,46.21,0,0,0-1.62-17.73L304,149.73,297,135.47,285.67,140A46.17,46.17,0,0,0,272,128.32l2.84-11.26L259.77,112l-4.54,10.69A46.4,46.4,0,0,0,236.71,124l-5.6-9.36-14.25,7.08,4.08,10.1a45.82,45.82,0,0,0-12.57,14.49l-9.94-2.5-5.07,15.1,9.56,4.06a45.85,45.85,0,0,0,1.65,19.44L196,187.51,203,201.76l9.68-3.91a45.91,45.91,0,0,0,15,12.29l-2.53,10.06,15.09,5.06,4.3-10.12a46.61,46.61,0,0,0,18.67-2l5.67,9.49,14.27-7.08-4.4-10.9a45.94,45.94,0,0,0,11.46-14.05Zm-58.52-2.22a23.67,23.67,0,1,1,29.57-15.69A23.67,23.67,0,0,1,243.06,191.25Z" style="fill:#dbdbdb"></path><path d="M244.08,187.92a20.18,20.18,0,1,1,25.22-13.38A20.2,20.2,0,0,1,244.08,187.92Zm11.25-36.68a18.18,18.18,0,1,0,12,22.71A18.21,18.21,0,0,0,255.33,151.24Z" style="fill:#dbdbdb"></path><path d="M206.84,138.48c-3.86.37-10.24-6.81-12.14-11.79-.13-.34.82-3.62,1.78-7.66.57-2.45,1.15-5.19,1.5-7.74l15.42,6.07a41.09,41.09,0,0,0-2.89,9.55,6.35,6.35,0,0,0,0,1.06,1,1,0,0,1,0,.17C210.53,130.17,210.57,138.11,206.84,138.48Z" style="fill: rgb(247, 169, 160);"></path><path d="M210.48,128v.19a10,10,0,0,1-1.66-.14c-9.33-1.67-10.34-12.52-10.39-16.53l15,5.88a41.28,41.28,0,0,0-2.89,9.55A6.26,6.26,0,0,0,210.48,128Z" style="fill:#263238"></path><path d="M192.55,95.31c-.79,5.92,4.87,21.69,9.48,24.66,6.67,4.3,16.26,3.23,19.57-4.49,3.22-7.48-4.52-27.9-9.54-30.46C204.67,81.25,193.72,86.58,192.55,95.31Z" style="fill: rgb(247, 169, 160);"></path><path d="M210.65,102.41s-.06.08-.05.12c.4,1.06.67,2.34-.17,3,0,0,0,.08,0,.06C211.58,105,211.2,103.35,210.65,102.41Z" style="fill:#263238"></path><path d="M209.32,101.62c-1.76.45-.73,3.94.9,3.53S210.8,101.24,209.32,101.62Z" style="fill:#263238"></path><path d="M216.73,100.6s.1,0,.11.07c.29,1.09.8,2.29,1.88,2.37,0,0,.05,0,0,.06C217.49,103.28,216.82,101.68,216.73,100.6Z" style="fill:#263238"></path><path d="M217.36,99.18c1.7-.64,2.87,2.81,1.29,3.41S215.93,99.72,217.36,99.18Z" style="fill:#263238"></path><path d="M207.47,100.43a14.93,14.93,0,0,0,1.21-.88c.46-.34.87-.57,1.07-1.13a.77.77,0,0,0-.38-.86,1.91,1.91,0,0,0-1.91.36,2.76,2.76,0,0,0-1.2,1.62A.82.82,0,0,0,207.47,100.43Z" style="fill:#263238"></path><path d="M218.19,97a12.3,12.3,0,0,1-1.49,0,2.34,2.34,0,0,1-1.54-.24.77.77,0,0,1-.22-.91,1.89,1.89,0,0,1,1.72-.88,2.77,2.77,0,0,1,2,.54A.82.82,0,0,1,218.19,97Z" style="fill:#263238"></path><path d="M212.41,112.59c.34.17.7.45,1.1.36a3.09,3.09,0,0,0,1.09-.61s.07,0,.06,0a1.51,1.51,0,0,1-1.2,1,1.19,1.19,0,0,1-1.13-.7C212.29,112.61,212.37,112.56,212.41,112.59Z" style="fill:#263238"></path><path d="M212.6,109a3.82,3.82,0,0,0,2.94.91,4.78,4.78,0,0,0,1.34-.33l.25-.1.22-.11a.28.28,0,0,0,.15-.31h0a.49.49,0,0,0,0-.11h0l0-.09c-.22-.84-.68-2.09-.68-2.09.35.07,2.11.3,2-.12A57.59,57.59,0,0,0,214,95.91a.11.11,0,0,0-.19.09c1.1,3.45,2.8,6.69,3.95,10.14a7.07,7.07,0,0,0-1.89,0c-.11.07.92,2.39,1,2.78v0a5.32,5.32,0,0,1-4.16-.06C212.57,108.84,212.5,108.94,212.6,109Z" style="fill:#263238"></path><path d="M216.27,109.31a4.63,4.63,0,0,1-1.35,1.88,2.17,2.17,0,0,1-1.18.43c-.93,0-1.18-.76-1.22-1.49a4.7,4.7,0,0,1,.08-1.15A5.86,5.86,0,0,0,216.27,109.31Z" style="fill:#263238"></path><path d="M214.92,111.19a2.17,2.17,0,0,1-1.18.43c-.93,0-1.18-.76-1.22-1.49A2.12,2.12,0,0,1,214.92,111.19Z" style="fill:#ff97b8"></path><path d="M195.41,110.83c4.26-1.18,4.68-6.92,2.29-10.57,0,0,11.59-2.45,9-11.53,0,0,4.34,3.24,9.41,1.6l1.6,2.69c1-.73,1.08-4.39-2.59-5.94,0,0-1.76-4.36-6-5.87a6.41,6.41,0,0,0-6.83,1.4,9.73,9.73,0,0,0-7.26.71,8.28,8.28,0,0,0-4.26,6.28s-5.11,3-4.67,7.22a8.6,8.6,0,0,0,3.38,6.13s-.83,2,1,5.09C191.74,110,194.12,111.18,195.41,110.83Z" style="fill:#263238"></path><path d="M206.15,88a11.47,11.47,0,0,1,.8,2.16,9.65,9.65,0,0,1,.34,2.25,5.88,5.88,0,0,1-1.44,4.09A9.42,9.42,0,0,1,202.13,99c-.72.24-1.44.52-2.18.71s-1.5.35-2.25.55c.77-.08,1.54-.19,2.31-.29s1.51-.38,2.27-.57a9.6,9.6,0,0,0,4-2.51,6.24,6.24,0,0,0,1.43-4.47A9.31,9.31,0,0,0,206.15,88Z" style="fill:#263238"></path><path d="M190.78,89.6A11,11,0,0,0,187,91.93a6.55,6.55,0,0,0-2.07,4,6.9,6.9,0,0,0,.21,2.27,6.46,6.46,0,0,0,.86,2.09,6,6,0,0,0,3.48,2.68,6.64,6.64,0,0,1-3.12-2.89,7.38,7.38,0,0,1-.89-4.1,5.73,5.73,0,0,1,.58-2,8.4,8.4,0,0,1,1.25-1.72A13.88,13.88,0,0,1,190.78,89.6Z" style="fill:#263238"></path><path d="M202.3,82.61a10.92,10.92,0,0,1,3-1.78,6.72,6.72,0,0,1,3.37-.42,6.91,6.91,0,0,1,3.09,1.41,12.23,12.23,0,0,1,2.4,2.57,8.86,8.86,0,0,0-2.13-2.89,6.45,6.45,0,0,0-3.28-1.62,6.37,6.37,0,0,0-3.61.56A8.33,8.33,0,0,0,202.3,82.61Z" style="fill:#263238"></path><path d="M213.68,91.15a12.09,12.09,0,0,1-4-.62,7.73,7.73,0,0,1-1.77-.89,9.27,9.27,0,0,1-1.53-1.36A5.09,5.09,0,0,0,207.65,90,5.53,5.53,0,0,0,209.5,91a6.89,6.89,0,0,0,2.1.38A6.37,6.37,0,0,0,213.68,91.15Z" style="fill:#263238"></path><path d="M198.75,108s-4.64-4.56-6.78-2.82,2,8.84,5,9.36a2.89,2.89,0,0,0,3.52-2.23Z" style="fill: rgb(247, 169, 160);"></path><path d="M193.22,107.19a0,0,0,0,0,0,.07c2.11.43,3.48,2.06,4.55,3.8a1.61,1.61,0,0,0-2.43,0c0,.05,0,.12.08.1a1.77,1.77,0,0,1,2,.25,8.37,8.37,0,0,1,1.21,1.38c.13.16.43,0,.32-.18l0,0C198.53,110.07,195.94,106.94,193.22,107.19Z" style="fill:#263238"></path><polygon points="193.25 124.93 194.07 118.69 211.3 128.61 211.8 134.73 193.25 124.93" style="fill:#ebebeb"></polygon><path d="M143.57,208.5c.13.22,73.81,13.7,74.62,13.09,1.13-.86,3.7-73.16-7.67-89.57-2.8-4-13.65-9.74-17.65-7.86C182.51,129,175,141.86,170.3,149.27c-3.5,5.5-8.28,15.09-12.81,25C150,190.58,143.11,207.7,143.57,208.5Z" style="fill:#455a64"></path><path d="M201,144.89c5.47,18.6,15.68,47.32,27.46,52.79,5.78,2.68,36.7-4.12,46-6.35,4-1-8.23-28.09-12.59-28.12s-22.86,5.42-25,4c-2.74-1.77-12.17-17-22.79-30.21C201.62,121.49,196.57,129.78,201,144.89Z" style="fill: rgb(247, 169, 160);"></path><path d="M298.08,154c1.1,2-1.9,4.16-1.9,4.16a6.94,6.94,0,0,1,3.68,2.93c1.38,2.49-1.93,5.74-1.93,5.74a8.55,8.55,0,0,1,3.39,3.7c1.08,2.52-1.78,6.28-1.78,6.28a7.5,7.5,0,0,1,.93,5.13c-1,4.69-7.94,7.14-12.32,8.75s-18.28,2.05-20.92,2.41l-10.54-28s17.57-12.77,23-13.93C284.23,150.18,295.74,149.63,298.08,154Z" style="fill: rgb(247, 169, 160);"></path><path d="M296.08,158.05c-5.1-.13-10.21,1-15.14,2.07-.11,0-.07.2,0,.17,4.89-1.15,10.2-1,15.12-2C296.24,158.27,296.21,158.05,296.08,158.05Z" style="fill:#263238"></path><path d="M297.71,166.47a13.35,13.35,0,0,0-3.41.7q-1.77.5-3.54,1.05c-2.35.74-4.69,1.53-7,2.39-.1,0-.07.2,0,.17,2.35-.73,4.71-1.43,7.08-2.06,1.19-.32,2.38-.63,3.57-.92a16,16,0,0,0,3.33-1A.18.18,0,0,0,297.71,166.47Z" style="fill:#263238"></path><path d="M299.44,176.81a9.06,9.06,0,0,0-3,.79l-3.2,1.06c-2.14.69-4.27,1.38-6.43,2-.11,0-.07.2,0,.17,2.19-.62,4.4-1.2,6.59-1.84,1.08-.31,2.15-.63,3.22-1a8.41,8.41,0,0,0,2.85-1.12S299.49,176.81,299.44,176.81Z" style="fill:#263238"></path><path d="M255,163.16,265.24,198s-35.61,4.72-42.16-1.26C212,186.59,202.33,157.38,199.46,142s4.58-18.67,14.43-6.19,22.39,30,23.16,30.62S255,163.16,255,163.16Z" style="fill:#455a64"></path><path d="M252.87,181.56c-.7-2.44-1.46-4.85-2.22-7.26-.37-1.16-.72-2.32-1.13-3.47s-.78-2.54-1.29-3.74a.07.07,0,0,0-.14,0c.21,1.29.62,2.57.91,3.85s.61,2.35.92,3.52c.66,2.44,1.32,4.89,2,7.31,1.43,4.87,3,9.67,4.62,14.47a.1.1,0,0,0,.19-.05C255.55,191.31,254.28,186.42,252.87,181.56Z" style="fill:#263238"></path><path d="M219.34,192.1c-2.41-3-10.14-17.92-15-33.95-1.31-4.31-2.59-8.63-3.9-12.94a0,0,0,0,0-.07,0c.45,2.67,1,5.31,1.69,7.94-.08-.18-.15-.35-.23-.52-.49-1.05-1-2.08-1.54-3.11,0-.06-.14,0-.11.05.43,1.1.86,2.2,1.34,3.28.3.68.65,1.35,1,2,.3,1.14.6,2.28,1,3.41,10,30.44,15.43,33.32,15.69,33.86C219.22,192.27,219.42,192.19,219.34,192.1Z" style="fill:#263238"></path></g><g id="freepik--speech-bubble--inject-2"><path d="M274.87,79.35a22.61,22.61,0,0,1-37.79,14.3l-11.31,1.66,5.66-9.78a22.36,22.36,0,0,1-1.55-10.89,22.62,22.62,0,0,1,45,4.71Z" style="fill:#fff"></path><path d="M274.87,79.35a22.75,22.75,0,0,1-4.56,11.46,27.08,27.08,0,0,1-2.05,2.36,24.09,24.09,0,0,1-2.39,2,22.15,22.15,0,0,1-5.46,3,22.65,22.65,0,0,1-6.09,1.45,21.92,21.92,0,0,1-3.14.06,19.31,19.31,0,0,1-3.13-.32,22.81,22.81,0,0,1-11.19-5.53l.27.08-11.31,1.74-.82.13.42-.73,5.63-9.8,0,.39a22.9,22.9,0,0,1,1.39-20.16,22.77,22.77,0,0,1,35.69-4.87A22.78,22.78,0,0,1,274.87,79.35Zm0,0a22.37,22.37,0,0,0-25.65-24.48,22.26,22.26,0,0,0-9.34,3.69,23.3,23.3,0,0,0-6.77,7.38,22.38,22.38,0,0,0-2.87,9.57,22.7,22.7,0,0,0,1.59,9.85l.09.21-.11.18-5.7,9.76-.4-.59L237,93.33l.16,0,.11.1A22.24,22.24,0,0,0,248.13,99a19.81,19.81,0,0,0,3.07.38,22.91,22.91,0,0,0,3.1,0,22.45,22.45,0,0,0,6-1.33,21.13,21.13,0,0,0,5.45-2.94,20.16,20.16,0,0,0,4.45-4.33A22.79,22.79,0,0,0,274.87,79.35Z" style="fill:#263238"></path><polygon points="249.51 89.89 239.85 80.11 243.09 76.91 248.74 82.62 260.46 64.24 264.31 66.69 249.51 89.89" style="fill:#44D4C8"></polygon></g></svg>