<svg xmlns="http://www.w3.org/2000/svg" viewBox="0 0 500 500"><path fill="#2A9D8F" d="M241.313 12.4356C371.91 7.89547 481.47 110.068 486.042 240.664C490.615 371.261 388.47 480.846 257.875 485.451C127.233 490.058 17.6013 387.869 13.027 257.226C8.45262 126.584 110.669 16.9773 241.313 12.4356Z"/><path fill="#F5FAFA" d="M342.33 119.851C342.669 119.813 343.009 119.787 343.349 119.772C356.352 119.134 374.149 128.094 383.659 136.915C396.436 148.765 405.961 163.948 406.762 181.78C407.702 202.695 398.14 215.371 384.853 229.724C427.471 317.436 374.998 361.53 293.587 383.319C243.917 396.613 189.306 384.404 145.517 358.989C93.0704 327.096 88.1004 281.836 114.916 229.464C99.6 215.54 89.2147 195.917 93.1859 174.746C96.4039 157.591 108.593 141.108 122.983 131.322C133.29 124.311 147.929 118.269 160.549 120.741C175.733 123.931 184.896 136.837 192.859 148.835C194.448 148.119 196.159 147.446 197.786 146.812C232.94 133.086 272.106 133.885 306.67 149.035C314.359 135.875 326.225 121.453 342.33 119.851Z"/><path fill="#2A9D8F" d="M202.63 244.836C208.466 244.104 214.772 247.782 217.198 253.097C221.786 263.152 216.547 273.44 212.413 282.628C209.076 290.047 205.625 297.307 202.248 304.697C198.076 314.054 194.563 323.687 190.498 333.084C190.018 334.197 189.134 335.707 187.948 336.131C181.377 338.484 172.133 336.58 165.971 333.988C163.427 332.837 161.056 331.571 158.789 329.932C152.195 325.139 147.81 317.891 146.624 309.826C144.945 298.765 149.015 286.412 155.767 277.757C167.086 263.247 183.881 247.648 202.63 244.836Z"/><path fill="#2A9D8F" d="M293.557 244.786C313.958 244.166 338.513 268.134 348.089 284.7C358.045 301.925 353.708 323.201 335.898 333.024C328.966 336.505 317.769 338.87 310.431 335.416C308.103 331.455 306.086 325.775 304.329 321.372C302.137 315.885 299.847 310.438 297.462 305.032C295.207 299.817 292.861 294.641 290.425 289.507C285.192 278.735 275.939 264.022 282.695 252.042C285.197 247.605 288.912 246.064 293.557 244.786Z"/><path fill="#2A9D8F" d="M229.487 315.849C233.203 315.489 242.154 315.742 246.42 315.741L262.36 315.741C265.363 315.742 271.152 315.447 273.815 316.248C291.589 321.598 270.429 335.894 264.625 339.089C262.019 340.677 255.034 343.835 252.263 344.418C245.091 345.166 237.372 340.373 231.49 336.852C221.804 331.054 209.592 318.035 229.487 315.849Z"/><path fill="#2A9D8F" d="M156.409 156.356C161.284 155.881 168.034 157.267 172.573 159.012C169.058 160.843 165.164 163.76 161.967 166.112C148.018 176.378 138.499 188.493 129.034 202.87C127.334 205.479 125.919 207.882 124.361 210.581C122.77 205.806 121.062 202.061 120.724 196.91C119.306 175.321 135.265 158.139 156.409 156.356Z"/><path fill="#2A9D8F" d="M338.411 156.356C342.908 155.763 349.529 157.149 353.752 158.716C363.413 162.197 371.268 169.416 375.548 178.75C380.662 190.076 379.291 199.534 375.083 210.63C374.357 209.202 373.289 207.534 372.443 206.137C363.912 192.186 354.617 180.047 341.888 169.614C336.741 165.395 332.114 162.506 326.849 158.68C331.019 157.606 334.089 156.694 338.411 156.356Z"/></svg>