<svg xmlns="http://www.w3.org/2000/svg" xmlns:xlink="http://www.w3.org/1999/xlink" width="100%" height="100%" style="display:block" viewBox="0 0 848 1264"><path fill="#0E202D" d="M101.094 368.752C93.8416 366.423 87.4601 364.393 80.6679 361.084C56.8844 349.62 39.5523 327.651 32.3562 302.142C8.19802 216.504 53.0388 114.088 139.901 85.1525C168.768 75.5362 199.542 73.5986 227.13 87.1247C247.637 97.179 267.652 119.851 274.631 141.523L275.517 144.211C277.237 150.042 278.915 155.886 280.548 161.741C295.855 152.85 315.024 147.153 332.03 142.391C338.604 140.55 345.683 139.838 351.878 136.913C375.323 125.841 415.034 78.0904 441.214 84.8229C446.687 86.2305 451.072 89.3648 453.906 94.2771C457.762 100.96 457.928 108.213 457.907 115.687C473.818 112.945 495.103 112.042 508.897 121.598C517.852 127.802 519.678 135.371 521.369 145.428C530.108 148.479 538.809 151.64 547.468 154.91L553.981 157.7L562.766 161.913C572.25 103.487 621.651 70.4387 679.572 79.8814C744.406 90.4509 796.569 144.722 811.164 208.042L812.38 212.262C826.338 277.503 813.792 347.925 741.765 368.269C742.968 371.899 745.846 379.934 746.54 383.337L748.212 387.669C752.085 398.954 755.917 410.909 760.456 421.899C768.747 441.978 777.719 461.838 784.507 482.507C785.11 484.315 785.854 486.27 786.209 488.128L788.821 497.381C792.462 510.149 800.546 545.184 782.667 552.189C778.385 553.867 773.694 551.37 769.678 549.566C766.344 574.305 756.44 601.278 739.227 620.106C732.776 627.163 729.889 626.603 721.159 627.878C716.623 631.958 708.69 639.581 704.256 643.021C702.278 667.287 701.758 677.068 692.334 700.433C694.3 703.057 695.363 704.211 697.681 706.547L700.276 709.27C733.401 744.819 765.432 797.616 785.86 841.555C793.676 858.366 792.147 880.607 780.927 895.783C782.879 911.426 789.978 924.523 778.219 937.249C778.369 969.349 773.46 1001.66 749.724 1025.39C733.312 1041.8 701.547 1054.58 679.661 1043.24L678.823 1042.75C669.41 1038.02 668.308 1033.73 661.142 1028.52L658.526 1028.39C654.158 1026.67 650.258 1025.08 646.427 1022.34C640.953 1051.73 639.166 1078.29 629.035 1107.3C636.457 1118.52 636.213 1123.92 634.574 1137.38C638.086 1143.56 646.429 1156.87 651.408 1161.15C672.932 1179.62 689.57 1196.25 681.976 1227.46C680.393 1233.97 677.089 1239.43 671.308 1243.58L669.852 1244.49C660.115 1251.47 642.409 1253.2 630.411 1254.85C573.677 1262.65 521.679 1248.94 469.443 1227.53L466.352 1226.41C450.383 1220.61 439.809 1215.37 438.968 1196.36C438.598 1182.55 439.442 1168.36 440.208 1154.54C440.893 1142.16 439.563 1124.71 443.864 1113.26C444.398 1112.1 445.802 1110.22 446.58 1109.1C447.877 1106.31 444.123 1089.72 443.443 1084.85L434.182 1084.99C429.054 1085.79 412.781 1085.07 407.312 1084.29C405.438 1086.18 405.085 1095.26 404.058 1099.07L402.49 1107.25C410.123 1122.07 408.825 1128.3 408.901 1144.89C408.995 1165.2 413.476 1186.6 409.046 1206.61C407.75 1212.09 402.457 1216.53 398.692 1219.78L397.971 1219.94C394.413 1221.75 384.982 1226.15 381.302 1227.15L376.16 1229.3C329.059 1246.74 283.309 1261.79 232.057 1255.92C218.675 1254.39 191.121 1252.48 180.415 1244.49L179.495 1244.03C165.755 1234.56 165.026 1219.99 166.989 1204.56C169.625 1183.84 185.373 1173.8 198.972 1160.44C205.217 1154.3 210.689 1145.32 215.472 1137.9C215.363 1137.04 215.259 1136.19 215.159 1135.33C213.872 1124.23 213.149 1117.23 220.257 1108.27L219.336 1104.24C211.38 1077.48 206.134 1046.26 202.961 1018.51C198.837 1022.25 196.333 1025.12 191.015 1026.92C189.072 1027.48 185.983 1028.46 184.107 1028.82C183.749 1029.2 183.388 1029.59 183.026 1029.97C156.869 1057.62 121.793 1049.35 96.177 1025.29C71.3174 1001.95 68.3378 969.899 67.8571 937.433C66.8693 936.463 64.3896 933.945 63.695 932.955C58.0933 924.971 62.7767 906.269 64.4994 897.014C52.3102 876.172 52.5814 865.597 59.1585 842.856C60.1072 840.155 61.0938 837.683 62.1688 835.031C69.6399 818.055 77.0573 805.939 86.6832 790.192C104.132 761.648 123.195 733.66 145.42 708.588C149.502 703.984 154.844 697.791 159.382 693.853C152.24 679.053 149.748 665.716 148.874 649.489C145.681 646.223 137.065 640.349 132.17 635.841L130.037 634.128C125.927 631.035 122.641 628.203 118.771 624.833L118.209 624.771C91.2711 621.653 75.6998 571.744 71.9286 548.786C67.6708 550.647 63.8932 551.965 59.2132 550.831C56.1753 550.094 53.8912 548.235 52.2905 545.587C36.7122 519.819 74.8961 439.396 85.4238 413.403C91.045 399.525 97.0883 383.209 101.094 368.752Z"/><path fill="#0E202D" d="M406.881 1080.87C412.996 1079.65 438.975 1079.76 444.092 1081.18C441.571 1082.44 428.197 1080.67 422.977 1081.8L423.356 1082.63C427.731 1083.3 436.979 1081.4 439.028 1083.2C437.979 1084.16 435.659 1084.59 434.182 1084.99C429.054 1085.79 412.781 1085.07 407.312 1084.29C407.598 1083.06 407.203 1082.12 406.881 1080.87Z"/><path fill="#0E202D" d="M222.936 1092.68C223.303 1096.73 224.389 1109.97 223.206 1113.26C221.632 1112.3 221.078 1110.23 220.257 1108.27L219.336 1104.24C222.525 1101.08 221.913 1097.42 222.936 1092.68Z"/><path fill="#0E202D" d="M786.209 488.128L788.821 497.381L787.87 497.224L787.291 495.822C786.888 498.231 786.508 503.009 785.114 504.522L784.552 503.912C784.002 499.39 783.395 491.736 786.209 488.128Z"/><path fill="#0E202D" d="M376.16 1229.3L374.97 1226.78C372.591 1224.8 369.437 1224.66 366.423 1224.38L365.944 1223.61L366.657 1223.29C371.047 1223.88 380.414 1222.52 381.302 1227.15L376.16 1229.3Z"/><path fill="#0E202D" d="M62.1688 835.031C64.2213 837.493 64.5979 845.314 62.2034 847.383C60.9925 844.345 61.9557 843.483 60.339 842.26L59.1585 842.856C60.1072 840.155 61.0938 837.683 62.1688 835.031Z"/><path fill="#0E202D" d="M547.468 154.91L553.981 157.7C551.926 159.687 546.336 160.982 544.266 158.556C544.842 156.517 545.583 156.457 547.468 154.91Z"/><path fill="#0E202D" d="M808.585 213.185C808.288 209.687 808.046 209.221 811.164 208.042L812.38 212.262C811.568 215.443 811.101 216.985 809.877 220.021C809.68 216.949 809.413 216.106 808.585 213.185Z"/><path fill="#0E202D" d="M275.517 144.211C274.172 147.803 274.712 150.511 273.348 153.899L272.688 153.47C271.714 149.301 271.442 144.597 274.631 141.523L275.517 144.211Z"/><path fill="#0E202D" d="M678.823 1042.75L679.338 1041.04C683.184 1039.38 693.572 1040.39 698.035 1040.66C691.259 1042.21 686.473 1040.82 679.661 1043.24L678.823 1042.75Z"/><path fill="#0E202D" d="M466.352 1226.41C470.581 1223.16 477.123 1224.4 482.743 1224.62C478.325 1225.85 473.938 1226.65 469.443 1227.53L466.352 1226.41Z"/><path fill="#0E202D" d="M184.107 1028.82C183.687 1027.27 183.525 1026.82 183.453 1025.24C186.237 1022.97 189.095 1024.14 191.015 1026.92C189.072 1027.48 185.983 1028.46 184.107 1028.82Z"/><path fill="#0E202D" d="M746.54 383.337L748.212 387.669C747.019 389.48 746.3 390.39 745.57 392.464L744.333 393.043C744.214 388.975 743.101 385.722 746.54 383.337Z"/><path fill="#0E202D" d="M659.405 1239.48C663.94 1239.9 669.349 1239.27 671.308 1243.58L669.852 1244.49C666.901 1242.77 662.591 1240.94 659.405 1239.48Z"/><path fill="#0E202D" d="M658.526 1028.39C657.962 1025.9 657.698 1026.54 658.654 1024.81C660.728 1023.9 659.838 1024.03 662.033 1024.25L663.232 1025.28C662.897 1027.35 662.962 1026.73 661.142 1028.52L658.526 1028.39Z"/><path fill="#0E202D" d="M446.58 1109.1C448.84 1113.97 446.181 1114.69 446.019 1120.07C445.797 1116.9 445.74 1115.92 443.864 1113.26C444.398 1112.1 445.802 1110.22 446.58 1109.1Z"/><path fill="#0E202D" d="M697.681 706.547L700.276 709.27C699.356 711.382 699.12 712.522 696.695 712.371L695.998 711.09C695.914 708.866 696.385 708.525 697.681 706.547Z"/><path fill="#0E202D" d="M179.495 1244.03C179.924 1241.41 179.472 1242.36 181.116 1240.4C183.223 1239.72 182.409 1239.65 184.294 1240.35L184.451 1241.34C183.374 1242.58 181.92 1243.82 180.415 1244.49L179.495 1244.03Z"/><path fill="#0E202D" d="M397.971 1219.94C395.826 1219.28 394.522 1219.02 392.679 1217.67L392.612 1216.77C395.801 1215.29 397.714 1216.8 398.692 1219.78L397.971 1219.94Z"/><path fill="#0E202D" d="M130.037 634.128C132.204 632.436 133.097 631.886 135.697 632.996L135.98 634.067C134.385 635.62 134.632 635.173 132.17 635.841L130.037 634.128Z"/><path fill="#0E202D" d="M808.585 213.185C809.413 216.106 809.68 216.949 809.877 220.021C809.9 222.229 809.664 223.673 809.361 225.825L809.075 225.752C808.258 220.937 808.453 218.001 808.585 213.185Z"/><path fill="#0E202D" d="M745.57 392.464C745.627 394.703 745.875 396.148 744.969 398.18C744.06 396.874 744.329 394.741 744.333 393.043L745.57 392.464Z"/><path fill="#F5FAFA" d="M422.121 113.769C426.113 110.999 433.133 104.864 437.276 109.774C439.067 116.009 434.095 124.252 430.595 129.119L428.199 131.912L421.976 138.273C424.049 140.081 424.406 140.928 424.582 143.697C424.646 144.794 424.685 145.892 424.699 146.991C443.432 140.36 463.402 133.269 483.585 135.967C490.059 136.832 499.039 138.62 499.405 146.723L499.767 147.472C493.811 172.983 449.833 174.523 429.653 178.802C436.285 180.458 440.476 181.267 447.093 182.261C454.665 183.4 469.231 184.281 475.718 187.244L477.987 187.768C480.883 189.992 482.452 191.225 484.445 194.345C484.613 194.726 484.911 195.034 485.285 195.215C485.602 197.217 485.956 199.275 486.228 201.278C485.523 202.762 484.706 204.634 483.906 206.027C472.882 214.672 453.757 208.673 441.35 205.464C439.487 209.902 434.588 210.592 430.886 208.099C431.611 206.237 432.056 205.085 432.565 203.128L432.673 202.704C423.947 199.524 414.952 195.319 406.523 192.397C422.784 211.274 465.453 236.123 489.663 221.582C491.488 220.517 492.736 219.458 494.377 218.156C496.472 216.416 497.715 214.454 499.301 212.248L497.068 210.843C495.101 206.84 495.357 193.462 498.452 190.041C496.771 186.784 493.534 183.451 491.001 180.757C501.341 174.496 501.17 176.675 511.54 166.528C515.536 167.554 520.626 169.52 524.604 170.928L528.23 171.998C532.097 173.292 543.111 177.951 545.349 178.448L547.402 179.359C556.948 183.803 567.982 188.848 577.056 194.063L580.792 196.106C631.53 227.461 665.609 262.299 693.842 315.546C697.569 324.348 702.559 332.665 706.275 341.306C719.483 372.016 728.432 403.897 741.196 434.819C753.317 464.184 768.385 493.254 776.669 523.915C779.423 523.546 779.567 523.012 781.391 524.306C783.23 528.132 782.479 529.257 781.126 533.252C780.089 533.945 779.344 534.151 778.19 534.57C774.634 532.18 771.087 529.077 767.767 526.318L765.492 524.483L761.127 520.212C761.38 527.005 761.843 534.45 761.215 541.159C758.768 535.457 754.613 524.516 751.816 519.534C754.851 548.227 749.403 577.247 732.734 601.106C732.607 594.699 732.54 588.291 732.534 581.883C722.793 596.039 715.95 602.699 703.48 614.905C701.468 616.615 698.861 618.706 696.99 620.481C693.593 623.226 688.911 627.241 685.377 629.578L684.863 630.286L684.472 630.524C681.47 632.372 678.463 634.637 675.575 636.693C661.851 646.462 646.396 654.319 631.384 661.796C625.616 664.45 618.577 667.815 612.672 669.989L611.554 668.736C573.366 658.046 560.729 665.954 536.175 693.857C478.471 706.249 413.376 707.755 354.984 700.016C344.078 698.571 331.964 696.243 321.031 694.295C310.001 682.692 305.483 672.037 287.104 665.087C268.352 657.995 252.939 662.218 235.675 669.647C229.839 667.165 223.689 663.957 217.772 661.913L215.971 660.76C212.418 659.523 204.815 655.533 200.623 653.734L199.982 653.394C191.651 648.769 180.122 641.59 172.066 637.634C166.521 633.075 156.629 627.023 149.969 621.875C148.199 623.46 146.497 624.314 144.498 622.853C144.292 620.557 144.679 620.688 145.849 618.431L139.914 613.422L138.523 612.015C131.296 606.275 123.197 597.343 117.113 590.525C114.405 591.588 115.095 591.8 112.81 591.183L112.099 589.921C112.389 587.927 112.404 587.867 113.755 586.449C109.594 580.028 105.937 574.654 101.873 567.972C101.539 572.187 103.033 583.712 101.891 585.451C99.9285 583.581 96.8751 575.895 95.6428 573.115C86.6595 552.853 83.5335 532.17 89.2982 510.624C79.7319 518.999 75.3376 524.458 64.3132 533.099L67.4161 519.305C67.8156 517.499 68.5165 515.221 69.0185 513.393C76.1395 487.954 94.2051 453.493 104.33 428.146C114.719 402.139 122.73 376.537 132.846 350.757C148.15 311.666 170.858 275.897 199.724 245.416C209.147 235.636 218.459 227.6 228.668 218.678L229.876 217.844C236.872 212.87 243.895 207.934 250.946 203.038L251.738 202.426C258.031 199.372 267.114 192.982 274.161 189.36C281.826 185.42 290.084 182.165 297.374 178.31C299.781 177.857 311.406 173.223 314.147 172.166L319.115 170.556C325.433 168.547 331.56 166.743 337.909 165.058C341.965 163.982 353.674 161.71 357.045 160.05C378.755 149.355 399.016 129.906 418.907 116.04L422.121 113.769Z"/><path fill="#0E202D" d="M421.976 138.273C424.049 140.081 424.406 140.928 424.582 143.697C424.646 144.794 424.685 145.892 424.699 146.991C419.77 148.261 409.541 152.315 404.104 154.167L421.976 138.273Z"/><path fill="#0E202D" d="M499.301 212.248L497.068 210.843C495.101 206.84 495.357 193.462 498.452 190.041L499.797 193.075C501.568 198.881 501.978 203.144 500.363 209.158L499.301 212.248Z"/><path fill="#0E202D" d="M499.797 193.075C501.568 198.881 501.978 203.144 500.363 209.158C496.363 206.317 497.297 196.519 499.797 193.075Z"/><path fill="#0E202D" d="M776.669 523.915C779.423 523.546 779.567 523.012 781.391 524.306C783.23 528.132 782.479 529.257 781.126 533.252C780.089 533.945 779.344 534.151 778.19 534.57C778.142 532.513 777.026 526.246 776.669 523.915Z"/><path fill="#0E202D" d="M432.673 202.704C435.426 203.608 438.591 204.732 441.35 205.464C439.487 209.902 434.588 210.592 430.886 208.099C431.611 206.237 432.056 205.085 432.565 203.128L432.673 202.704Z"/><path fill="#0E202D" d="M145.849 618.431L149.969 621.875C148.199 623.46 146.497 624.314 144.498 622.853C144.292 620.557 144.679 620.688 145.849 618.431Z"/><path fill="#0E202D" d="M117.113 590.525C114.405 591.588 115.095 591.8 112.81 591.183L112.099 589.921C112.389 587.927 112.404 587.867 113.755 586.449L117.113 590.525Z"/><path fill="#45B5A8" d="M641.845 555.039C620.107 567.229 594.46 570.423 570.395 563.937C550.14 558.305 534.02 538.832 524.838 520.471C507.155 484.493 489.844 439.081 500.965 398.726C512.267 357.715 553.508 340.474 592.559 352.978C651.395 371.818 704.205 440.289 686.099 503.762C680.139 524.654 662.009 545.074 642.517 554.655L641.845 555.039Z"/><path fill="#2A9D8F" d="M641.845 555.039L641.233 554.858C637.731 553.855 633.171 554.426 632.106 553.555C634.817 551.736 639.35 551.39 642.037 553.376L642.517 554.655L641.845 555.039Z"/><path fill="#0E202D" d="M533.847 430.2C537.51 423.708 543.732 419.248 550.888 417.192C570.062 411.685 590.158 426.65 596.495 444.274C596.707 444.862 596.687 445.511 596.691 446.128C600.236 453.254 603.232 459.642 603.603 467.803C604.207 481.1 597.262 493.441 585.211 499.221C576.157 503.465 565.772 503.869 556.415 500.341C551.795 498.651 540.095 492.135 539.706 486.568C534.187 479.751 529.836 471.833 527.862 463.229C525.331 452.308 527.191 440.83 533.041 431.267L533.847 430.2Z"/><path fill="#F5FAFA" d="M581.009 431.546C587.543 435.763 591.825 440.292 596.691 446.128C600.236 453.254 603.232 459.642 603.603 467.803C604.207 481.1 597.262 493.441 585.211 499.221C576.157 503.465 565.772 503.869 556.415 500.341C551.795 498.651 540.095 492.135 539.706 486.568C546.726 492.6 559.804 498.785 568.644 493.089C570.392 492.209 572.043 490.957 573.656 489.826C575.954 487.984 576.848 486.865 578.748 484.637L581.324 480.931C582.297 479.046 583.609 475.441 584.443 473.343C588.807 459.166 587.166 444.891 581.009 431.546Z"/><path fill="#0E202D" d="M567.481 489.393C560.788 489.553 555.865 489.474 549.184 489.073C550.317 487.998 566.3 488.125 569.096 488.106L567.481 489.393Z"/><path fill="#0E202D" d="M579.096 479.153C578.861 477.766 579.093 477.525 579.428 476.09C580.814 474.335 582.287 474.1 584.443 473.343C583.609 475.441 582.297 479.046 581.324 480.931L579.096 479.153Z"/><path fill="#0E202D" d="M533.847 430.2C536.901 431.97 536.348 436.75 535.335 439.725L534.686 440.193C533.376 436.95 533.92 434.347 533.041 431.267L533.847 430.2Z"/><path fill="#0E202D" d="M569.096 488.106C571.331 488.059 571.777 488.536 573.656 489.826C572.043 490.957 570.392 492.209 568.644 493.089C567.926 492.062 567.76 490.657 567.481 489.393L569.096 488.106Z"/><path fill="#0E202D" d="M579.096 479.153L581.324 480.931L578.748 484.637C577.318 483.41 577.116 483.341 576.355 481.676C577.052 479.811 576.842 480.401 579.096 479.153Z"/><path fill="#F5FAFA" d="M561.645 427.289L563.975 427.942C571.157 434.674 569.998 440.269 566.357 448.385C551.123 459.837 547.286 427.054 561.645 427.289Z"/><path fill="#0E202D" d="M572.48 431.839C577.237 435.147 576.528 440.684 576.176 445.746C574.6 443.257 572.191 434.843 572.48 431.839Z"/><path fill="#0E202D" d="M552.054 453.909C557.211 454.773 565.939 452.291 568.896 455.206C565.777 455.711 555.552 455.895 552.576 455.136L552.054 453.909Z"/><path fill="#0E202D" d="M533.737 463.748C536.199 465.51 536.131 472.492 536.28 475.438C534.503 475.125 535.258 475.514 533.974 474.164C533.174 471.091 533.589 467.004 533.737 463.748Z"/><path fill="#0E202D" d="M561.645 427.289C563.662 424.246 564.615 423.675 568.272 423.732L568.918 424.597C567.829 426.524 566.034 426.712 563.975 427.942L561.645 427.289Z"/><path fill="#2A9D8F" d="M606.215 470.088C606.705 471.634 607.512 476.903 607.083 478.707L606.411 478.833C605.738 477.482 606.153 471.965 606.215 470.088Z"/><path fill="#45B5A8" d="M212.17 553.302C192.299 543.484 177.128 526.192 169.979 505.212C161.484 480.435 166.378 456.734 177.462 432.605C198.249 386.237 276.59 334.11 326.76 359.517C381.995 387.488 351.806 477.711 331.411 519.037C306.976 568.55 264.707 578.117 217.215 556.012L212.17 553.302Z"/><path fill="#2A9D8F" d="M212.17 553.302C215.082 551.072 219.617 552.127 223.615 552.481L223.885 553.095C220.791 554.943 219.592 554.572 217.215 556.012L212.17 553.302Z"/><path fill="#0E202D" d="M258.754 441.016C259.474 435.416 267.708 426.595 272.242 423.36C311.503 395.349 345.305 440.952 322.195 478.083L321.273 479.243C321.127 479.527 320.47 480.857 320.325 481.007C318.42 483.229 316.491 485.656 314.234 487.485L313.413 488.296L313.515 488.838C312.937 493.022 301.778 498.44 298.166 499.899C300.399 502.306 302.168 500.231 304.056 502.964C302.198 505.355 293.695 502.918 291.118 501.739C259.567 504.583 239.001 475.598 254.866 447.221C256.039 445.121 257.45 443.045 258.754 441.016Z"/><path fill="#F5FAFA" d="M258.754 441.016C264.642 434.465 266.888 432.923 274.33 428.273C267.323 446.221 262.756 471.32 277.879 486.506L278.571 487.065C279.049 487.597 279.994 488.744 280.521 489.1C282.623 490.729 283.939 491.814 286.297 493.075C293.384 497.432 303.584 495.336 310.039 490.73L310.473 490.543L313.515 488.838C312.937 493.022 301.778 498.44 298.166 499.899C300.399 502.306 302.168 500.231 304.056 502.964C302.198 505.355 293.695 502.918 291.118 501.739C259.567 504.583 239.001 475.598 254.866 447.221C256.039 445.121 257.45 443.045 258.754 441.016Z"/><path fill="#2A9D8F" d="M291.118 501.739L298.166 499.899C300.399 502.306 302.168 500.231 304.056 502.964C302.198 505.355 293.695 502.918 291.118 501.739Z"/><path fill="#0E202D" d="M286.297 493.075C288.005 489.686 287.586 489.197 291.907 489.644C297.219 490.193 305.113 488.994 310.039 490.73C303.584 495.336 293.384 497.432 286.297 493.075Z"/><path fill="#0E202D" d="M280.521 489.1C283.313 487.794 305.563 487.842 309.035 488.536C310.479 489.648 310.082 488.955 310.473 490.543L310.039 490.73C305.113 488.994 297.219 490.193 291.907 489.644C287.586 489.197 288.005 489.686 286.297 493.075C283.939 491.814 282.623 490.729 280.521 489.1Z"/><path fill="#0E202D" d="M316.389 479.64L320.325 481.007C318.42 483.229 316.491 485.656 314.234 487.485C315.574 484.503 313.95 484.191 316.389 479.64Z"/><path fill="#0E202D" d="M313.413 488.296C312.732 486.424 312.291 483.695 312.607 481.705C313.893 479.707 313.315 480.353 316.389 479.64C313.95 484.191 315.574 484.503 314.234 487.485L313.413 488.296Z"/><path fill="#0E202D" d="M277.879 486.506C277.824 484.235 277.508 482.264 278.53 480.322L279.174 480.541C279.988 483.141 279.955 483.474 279.404 486.151L278.571 487.065L277.879 486.506Z"/><path fill="#0E202D" d="M320.435 467.657C321.459 471.698 321.736 473.907 322.195 478.083L321.273 479.243C319.61 477.332 320.327 470.456 320.435 467.657Z"/><path fill="#F5FAFA" d="M309.761 427.553C312.787 427.425 314.939 428.725 317.496 430.108L317.749 430.647C321.432 438.59 320.906 440.524 317.819 448.945C316.486 450.172 314.404 451.676 312.923 452.816C299.444 453.032 300.265 435.354 309.761 427.553Z"/><path fill="#0E202D" d="M297.126 431.832C298.062 434.361 297.556 445.613 297.18 448.579C295.324 444.905 296.126 435.815 297.126 431.832Z"/><path fill="#2A9D8F" d="M279.036 358.328C283.853 358.51 315.357 357.839 316.97 359.502L312.659 359.771C301.074 359.886 284.316 360.385 273.106 359.655L273.821 358.8C275.96 359.007 276.359 358.921 278.484 358.454L279.036 358.328Z"/><path fill="#2A9D8F" d="M344.599 463.945L345.235 464.52C345.968 467.45 345.775 474.757 345.477 477.854C343.357 474.86 344.382 467.981 344.599 463.945Z"/><path fill="#2A9D8F" d="M182.634 426.837C183.507 429.59 183.556 428.591 182.978 431.027L182.372 430.899C181.635 429.376 182.159 428.825 182.634 426.837Z"/><path fill="#0E202D" d="M387.027 522.128C379.423 517.596 369.205 509.177 367.06 500.226C366.499 497.886 366.881 495.733 368.264 493.755C372.57 487.601 382.46 485.836 389.399 484.864C409.502 482.047 472.436 479.409 487.429 490.689C489.718 492.412 491.761 494.829 492.196 497.741C492.769 501.571 490.457 505.036 488.178 507.877C484.337 512.664 477.217 519.7 471.48 522.148L470.676 522.74C459.967 530.866 451.291 535.322 438.357 539.339L438.079 556.219C454.594 562.258 475.476 565.631 490.136 552.715C494.402 548.956 500.029 539.407 506.342 541.658C510.458 543.126 512.074 548.46 509.938 552.096C504.18 562.784 495.101 571.031 483.445 574.828C468.315 580.021 446.692 578.021 432.399 571.431C429.774 571.188 428.875 571.128 426.281 572.147C415.269 578.317 395.262 580.594 382.883 577.944C367.751 574.706 357.968 567.469 349.45 554.956C347.442 551.037 347.679 549.013 350.175 545.45C357.442 540.281 364.108 549.542 369.122 554.422C371.392 555.961 373.63 557.561 376.05 558.845C393.236 565.481 405.136 562.745 421.632 556.835C421.522 553.327 421.451 542.143 420.49 539.514L419.625 539.446C407.832 535.737 397.557 530.064 387.713 522.701L387.027 522.128Z"/><path fill="#0E202D" d="M426.281 572.147L425.235 570.605C423.806 570.161 423.618 570.222 422.517 569.168L422.74 568.642C427.052 568.575 441.609 568.124 445.21 568.894C441.513 570.426 437.272 569.103 432.399 571.431C429.774 571.188 428.875 571.128 426.281 572.147Z"/><path fill="#0E202D" d="M350.175 545.45C353.087 548.523 352.549 552.121 349.45 554.956C347.442 551.037 347.679 549.013 350.175 545.45Z"/><path fill="#0E202D" d="M369.122 554.422C371.392 555.961 373.63 557.561 376.05 558.845C373.723 560.279 370.498 560.39 368.352 558.556C368.069 556.535 368.26 556.372 369.122 554.422Z"/><path fill="#0E202D" d="M387.027 522.128C388.503 519.422 391.783 519.638 393.826 521.42C392.375 522.498 389.799 522.444 387.713 522.701L387.027 522.128Z"/><path fill="#0E202D" d="M470.676 522.74C468.51 522.402 466.781 522.271 464.786 521.354C466.835 519.235 469.714 519.986 471.48 522.148L470.676 522.74Z"/><path fill="#0E202D" d="M419.625 539.446C420.457 536.964 419.907 537.34 421.659 536.118C423.507 536.502 422.811 536.022 423.836 537.57L423.441 538.803C422.054 539.426 422.084 539.49 420.49 539.514L419.625 539.446Z"/><path fill="#0E202D" d="M385.306 566.176C388.63 566.006 406.515 565.846 408.652 566.874L408.409 567.466C405.123 568.006 386.775 568.613 384.782 566.925L385.306 566.176Z"/><path fill="#0E202D" d="M432.559 544.146L433.618 543.863C433.806 546.887 433.39 554.517 433.073 557.404L432.712 557.629C432.145 553.668 431.503 548.047 432.559 544.146Z"/><path fill="#0E202D" d="M400.913 528.6C403.731 528.277 407.122 527.647 409.414 529.446C405.772 530.074 403.54 531.273 400.913 528.6Z"/><path fill="#0E202D" d="M448.792 528.627C452.575 528.132 456.398 527.202 459.061 530.057C455.645 529.52 451.267 530.051 448.792 528.627Z"/><path fill="#0E202D" d="M432.559 544.146C432.591 542.176 432.42 539.451 433.156 537.742C434.001 540.894 433.137 541.945 433.618 543.863L432.559 544.146Z"/><path fill="#0E202D" d="M299.28 321.141C345.598 318.888 371.528 367.351 339.911 359.194C331.238 356.906 323.718 352.128 315.345 349.296C308.421 347.121 301.049 346.044 294.26 343.441C276.353 336.576 282.027 323.225 299.28 321.141Z"/><path fill="#0E202D" d="M322.024 325.559L322.522 325.803L322.577 326.683C319.295 328.648 296.085 327.782 291.01 327.531L290.94 326.554C293.02 326.027 296.626 326.301 298.874 326.367C306.696 326.595 314.228 326.203 322.024 325.559Z"/><path fill="#0E202D" d="M329.886 352.533C333.251 351.879 345.056 352.837 348.995 353.275L349.064 354.146C344.062 354.589 333.943 355.175 329.886 352.533Z"/><path fill="#0E202D" d="M307.374 344.627C310.607 344.434 317.834 343.385 319.981 345.559C315.623 345.765 310.377 346.797 307.374 344.627Z"/><path fill="#0E202D" d="M542.976 322.495C552.286 320.807 562.391 319.423 570.63 325.173L571.303 326C575.958 329.741 575.943 334.331 572.148 338.763L570.282 340.779C561.595 344.784 553.67 346.637 544.485 349.279C539.522 350.706 535.152 353.266 530.893 354.711C528.223 355.922 524.895 357.541 522.209 358.526C507.21 362.622 501.369 357.501 508.846 343.286L510.704 340.772C517.213 333.229 524.721 329.381 533.562 325.524L542.976 322.495Z"/><path fill="#0E202D" d="M542.976 322.495C552.286 320.807 562.391 319.423 570.63 325.173L571.303 326C575.958 329.741 575.943 334.331 572.148 338.763L570.282 340.779C568.002 338.25 567.628 339.474 565.326 337.501L565.321 337.072C566.702 336.763 567.085 336.754 568.308 335.965C568.464 332.747 568.319 332.119 567.632 328.973C567.362 328.652 567.091 328.33 566.82 328.008C558.45 326.896 543.95 328.931 536.164 327.061C535.487 326.079 534.699 325.949 533.562 325.524L542.976 322.495Z"/><path fill="#0E202D" d="M542.976 322.495C552.286 320.807 562.391 319.423 570.63 325.173C566.34 326.09 549.109 327.127 544.533 325.571C543.424 325.193 543.311 323.69 542.976 322.495Z"/><path fill="#0E202D" d="M571.303 326C575.958 329.741 575.943 334.331 572.148 338.763C568.658 335.257 568.345 329.867 571.303 326Z"/><path fill="#0E202D" d="M510.704 340.772C512.034 342.949 512.173 353.991 511.207 356.083C508.58 353.035 511.359 346.776 508.846 343.286L510.704 340.772Z"/><path fill="#0E202D" d="M522.716 354.689L527.699 354.172L530.893 354.711C528.223 355.922 524.895 357.541 522.209 358.526L522.716 354.689Z"/><path fill="#0E202D" d="M522.716 354.689L520.955 354.066L520.721 353.195C523.027 352.092 525.178 352.053 527.636 352.682C527.941 353.8 528.057 353.356 527.699 354.172L522.716 354.689Z"/><path fill="#0E202D" d="M550.372 344.069L551.448 344.444L551.243 345.253C542.891 348.144 545.172 346.128 538.174 345.293L537.563 345.223L536.487 345.957L535.915 345.62L536.598 344.712C540.051 343.96 546.614 344.108 550.372 344.069Z"/><path fill="#0E202D" d="M520.435 334.24C522.648 333.997 523.914 333.925 526.14 333.945L526.913 334.838C524.793 335.777 522.435 335.109 520.435 334.24Z"/><path fill="#2A9D8F" d="M329.489 710.695C373.503 720.928 440.444 720.642 485.644 716.449C498.435 715.262 513.065 712.627 526.197 711.057C511.717 745.156 503.027 789.923 524.904 823.392C533.258 836.171 551.424 843.102 566.202 843.538C576.452 843.841 585.347 842.661 595.506 845.851C607.729 848.947 631 839.513 641.325 832.097C641.986 834.614 642.751 837.072 643.382 839.833C650.381 870.457 678.691 914.133 651.351 942.117C647.394 946.167 636.535 948.093 630.902 949.423C613.529 953.705 595.937 957.047 578.204 959.435C582.481 943.334 586.235 922.054 583.338 905.516C580.829 902.868 572.223 896.983 568.768 894.246C557.134 884.95 547.037 873.878 538.85 861.438C534.747 855.29 532.009 849.704 529.158 842.923C527.163 838.177 524.905 831.739 521.909 827.69C514.728 827.545 504.757 828.289 497.408 828.612C482.971 829.311 468.523 829.775 454.071 830.005C410.107 830.64 371.7 829.353 327.926 827.519C322.697 832.554 321.126 841.374 317.594 848.236C304.33 874.003 288.397 889.123 265.07 904.911C262.371 923.026 266.368 941.755 270.32 959.405C261.192 958.254 249.8 956.146 240.419 954.295C228.285 951.901 212.191 948.768 200.844 944.076C198.439 943.082 194.735 939.026 193.299 936.764C177.956 912.604 191.775 882.757 200.044 858.796C203.553 848.627 207.091 837.039 209.228 826.707C224.015 836.758 243.902 846.314 262 843.299C265.072 842.788 269.456 840.516 272.453 840.558C285.406 840.739 297.837 841.319 310.068 835.966C348.821 820.643 347.219 766.926 337.974 733.535C335.843 725.838 332.517 718.088 329.489 710.695Z"/><path fill="#45B5A8" d="M332.057 836.93C348.227 836.69 370.001 839.062 387.298 839.303C430.114 839.899 473.702 840.122 516.402 836.675C519.1 842.084 520.991 848.329 524.069 854.32C535.867 877.215 553.493 896.593 575.169 910.501C575.566 928.455 573.244 944.409 567.286 961.426C555.587 963.775 528.97 965.975 516.661 966.97C449.067 972.762 384.069 972.956 316.618 965.446C304.971 964.15 293.147 962.47 281.515 961.471C275.407 946.681 273.384 926.552 273.486 910.669C302.39 891.364 319.823 869.214 332.057 836.93Z"/><path fill="#1A6B61" d="M179.065 100.865C179.478 100.823 179.892 100.789 180.306 100.763C204.883 99.0518 233.08 112.712 245.313 134.225C252.167 146.279 259.206 163.4 260.116 177.297C195.887 211.972 149.001 271.365 119.148 336.892C117.742 339.638 115.29 346.27 114.041 349.408C71.0687 340.488 52.25 311.312 49.3021 269.716C46.266 226.876 59.6355 181.345 87.4152 148.536C110.367 121.036 143.373 103.869 179.065 100.865Z"/><path fill="#1A6B61" d="M654.644 101.475C658.455 100.781 669.279 101.285 673.218 101.842C707.156 106.641 737.481 125.238 758.342 152.02C785.862 187.89 798.182 233.139 792.648 278.009C788.57 310.085 774.014 334.447 741.554 345.039C737.347 346.412 730.499 350.864 727.649 346.552C696.278 274.07 653.486 216.131 582.897 176.984C586.274 136.959 613.702 105.308 654.644 101.475Z"/><path fill="#F5FAFA" d="M217.212 1002.24C317.103 1026.2 420.397 1032.63 522.488 1021.24C557.199 1017.62 598.593 1011.2 632.423 1002.1C628.176 1042.04 624.549 1063.57 614.798 1101.84C610.311 1092.2 604.095 1087.17 593.472 1085.05C573.193 1081 535.744 1082.92 525.799 1104.12C524.562 1107.54 523.317 1110.52 523.353 1114.21L519.581 1114.62C510.615 1114.71 501.866 1116.64 492.974 1116.54L492.534 1116.87C490.834 1117.05 490.257 1117.16 488.602 1117.6L488.698 1117.8C486.014 1118.26 477.827 1119.55 475.832 1117.83L478.928 1117.5L480.059 1114.66C473.63 1112.9 469.695 1111.82 463.774 1108.85C461.681 1100.76 459.837 1087.57 458.403 1079.03C463.765 1078.23 469.045 1076.96 474.177 1075.21L474.65 1075.12C485.443 1072.11 497.954 1066.3 504.82 1057.23C483.908 1061.97 465.403 1066.53 443.866 1068.34C412.273 1070.98 384.691 1066.47 354.177 1059.26C352.284 1060.89 352.157 1061.97 351.461 1064.32C364.998 1072.8 375.899 1076.48 391.612 1079.13C389.22 1089.96 388.129 1098.43 386.352 1109.28C372.159 1114.87 361.383 1117.2 345.911 1115.96C340.218 1115.51 332.716 1114.47 327.244 1114.39C325.135 1104.91 322.99 1098.03 314.382 1092.76C303.893 1086.24 291.527 1084.05 279.359 1083.59C271.863 1083.3 264.134 1083.22 256.774 1084.94C245.996 1087.45 239.207 1092.27 235.077 1102.45C226.053 1069.66 220.073 1036.12 217.212 1002.24Z"/><path fill="#0E202D" d="M480.059 1114.66L492.974 1116.54L492.534 1116.87C490.834 1117.05 490.257 1117.16 488.602 1117.6L488.698 1117.8C486.014 1118.26 477.827 1119.55 475.832 1117.83L478.928 1117.5L480.059 1114.66Z"/><path fill="#0E202D" d="M345.211 1057.8C348.34 1058.17 351.08 1058.68 354.177 1059.26C352.284 1060.89 352.157 1061.97 351.461 1064.32C348.481 1062.15 347.235 1060.78 345.211 1057.8Z"/><path fill="#2A9D8F" d="M165.355 708.358C166.303 708.969 172.052 717.955 173.06 719.412C172.117 723.568 171.39 727.77 170.882 732.001C167.078 763.568 179.455 792.173 198.573 816.524C195.664 826.877 191.961 841.039 188.448 850.937C181.302 871.074 174.624 885.365 173.242 907.275C154.29 903.064 136.816 899.716 117.732 896.123C107.33 894.451 88.0401 891.85 78.3597 889.108C55.3684 866.028 84.9278 822.842 97.6289 801.405C113.055 775.369 130.108 750.062 149.595 726.877C154.826 720.654 160.215 714.603 165.355 708.358Z"/><path fill="#2A9D8F" d="M685.096 715.08C685.525 715.438 686.094 715.898 686.466 716.31C717.934 751.148 743.307 791.65 765.708 832.773C774.502 848.916 781.768 874.44 767.261 889.3C756.756 891.844 742.009 893.889 731.056 895.7C712.613 898.974 694.234 902.598 675.929 906.57C675.479 886.763 667.583 870.815 661.449 852.537C658.3 843.155 655.325 832.271 652.528 822.693C676.32 798.317 691.697 755.598 681.224 722.123C682.312 719.425 683.572 717.542 685.096 715.08Z"/><path fill="#1A6B61" d="M200.725 955.662C221.879 963.053 252.418 968.29 274.95 971.741C386.92 988.889 539.059 987.912 648.297 956.034C649.186 965.039 650.266 974.548 646.122 982.565C645.249 983.509 643.517 985.272 642.342 985.641C626.523 990.612 605 994.841 588.995 997.78C481.109 1017.96 370.424 1018.06 262.504 998.054C248.129 995.333 219.213 989.981 205.7 985.167C198.577 976.07 200.4 967.046 200.725 955.662Z"/><path fill="#F5FAFA" d="M662.106 956.675C673.318 954.732 687.224 954.118 698.958 952.663C720.357 950.076 741.563 946.09 762.441 940.73C761.803 963.381 760.232 978.245 749.824 999.132L749.329 999.814C744.696 1006.88 740.976 1011.78 734.314 1017.2C737.252 1006.65 737.51 1002.38 736.285 991.521C731.107 1004.58 725.317 1022.77 711.545 1028.71C698.973 1034.13 685.438 1030.78 676.153 1020.93C677.293 1019.88 680.859 1016.73 681.662 1015.73L681.148 1014.75C679.84 1014.28 662.451 1016.31 656.957 1015.2L656.985 1014.57C658.862 1013.56 660.05 1013.28 662.063 1012.67C655.511 1009.65 654.611 1007.88 652.03 1001.32L651.323 997.845C652.519 994.672 655.8 993.375 657.656 990.619C663.801 981.499 664.084 967.131 662.106 956.675Z"/><path fill="#0E202D" d="M678.386 1005.45C681.888 1001.34 688.981 989.671 690.42 988.39L691.286 988.577C693.451 996.199 687.581 1010.67 681.662 1015.73L681.148 1014.75C679.84 1014.28 662.451 1016.31 656.957 1015.2L656.985 1014.57C658.862 1013.56 660.05 1013.28 662.063 1012.67L665.905 1012.8C672.672 1010.9 673.01 1010.4 678.386 1005.45Z"/><path fill="#0E202D" d="M665.905 1012.8C672.672 1010.9 673.01 1010.4 678.386 1005.45C677.701 1012.64 672.543 1017.11 665.905 1012.8Z"/><path fill="#F5FAFA" d="M83.4154 940.674C106.042 946.299 128.988 950.555 152.127 953.419C163.71 954.827 175.405 955.154 187.014 956.837C185.739 964.791 185.53 979.382 189.321 986.371L189.641 986.889C191.484 990.976 193.386 992.492 195.638 995.929C193.432 1004.53 192.418 1008.57 184.172 1012.8C170.435 1012.03 165.385 1004.27 158.884 993.029C156.802 994.888 155.492 995.646 155.13 998.5C157.891 1010.02 161.597 1013.23 169.928 1021.09C158.467 1032.47 142.241 1035.39 128.676 1025.19C118.212 1017.32 115.817 1003.41 109.94 992.778L109.54 992.065C108.2 1002.07 109.495 1006.88 111.45 1016.75C88.3486 997.373 83.8447 969.18 83.4154 940.674Z"/><path fill="#0E202D" d="M155.13 998.5C154.696 995.805 153.388 989.847 155.116 987.749C157.076 988.951 157.602 990.767 158.884 993.029C156.802 994.888 155.492 995.646 155.13 998.5Z"/><path fill="#E9C46A" d="M636.349 706.787C646.723 701.307 647.153 705.47 656.622 704.453C661.259 707.264 666.259 715.089 667.046 720.488C668.351 718.123 669.619 716.152 671.08 713.89C671.363 716.742 671.575 725.455 670.978 728.081L669.875 729.02C670.972 736.506 671.832 743.157 671.147 750.738L671.934 751.137C672.327 753.914 671.774 769.186 669.904 770.692L670.19 770.162L669.557 769.685L668.647 766.199C664.177 784.849 652.79 807.54 636.818 818.679C621.719 832.988 608.487 823.045 603.84 805.884C598.178 784.979 602.296 755.259 612.693 736.409L612.903 735.571C613.624 732.543 617.051 727.525 618.819 724.734L620.338 722.333C624.526 716.658 626.891 713.643 632.478 709.178L636.349 706.787Z"/><path fill="#0E202D" d="M667.046 720.488C668.351 718.123 669.619 716.152 671.08 713.89C671.363 716.742 671.575 725.455 670.978 728.081L669.875 729.02C668.853 726.177 667.963 723.366 667.046 720.488Z"/><path fill="#0E202D" d="M671.147 750.738L671.934 751.137C672.327 753.914 671.774 769.186 669.904 770.692L670.19 770.162L669.557 769.685L668.647 766.199C669.939 761.383 670.677 755.7 671.147 750.738Z"/><path fill="#E9C46A" d="M636.349 706.787C638.012 707.782 638.154 707.97 639.112 709.661L638.893 711.133C637.147 712.307 637.938 712.021 635.612 711.909C633.854 710.956 633.576 710.831 632.478 709.178L636.349 706.787Z"/><path fill="#E9C46A" d="M612.903 735.571C615.325 737.463 616.34 741.025 614.447 743.657C613.342 742.265 612.708 738.111 612.693 736.409L612.903 735.571Z"/><path fill="#E9C46A" d="M628.861 817.355C631.34 817.123 633.827 816.631 636.07 817.645L636.818 818.679C633.316 819.229 631.836 819.67 628.861 817.355Z"/><path fill="#E9C46A" d="M620.338 722.333C621.56 724.062 622.286 724.684 622.217 726.765L621.483 727.509C619.807 726.698 619.79 726.438 618.819 724.734L620.338 722.333Z"/><path fill="#E9C46A" d="M664.389 751.577C665.932 753.639 666.382 762.349 666.531 765.186L666.019 765.426C665.724 763.35 665.485 761.013 664.89 759.029L664.699 761.456C664.743 764.543 664.6 767.701 664.498 770.793C663.953 765.55 663.801 756.772 664.389 751.577Z"/><path fill="#E9C46A" d="M208.223 700.45C222.179 703.691 229.72 712.255 237.284 723.945C241.86 731.018 249.86 748.958 250.509 757.095C254.434 769.436 255.344 795.403 250.134 807.294C248.431 811.151 244.967 817.252 241.475 819.681C234.944 825.375 226.54 821.98 220.276 818.153C213.756 815.465 202.033 799.814 198.381 793.497L196.24 789.704C186.862 771.956 181.235 751.368 184.141 730.98C184.714 726.955 187.885 720.999 187.085 717.48L187.915 717.027C188.619 714.931 189.254 714.029 190.371 712.161C191.386 709.473 197.014 704.111 199.307 702.164C202.859 700.853 204.507 700.664 208.223 700.45Z"/><path fill="#E9C46A" d="M250.134 807.294C245.943 802.578 248.483 769.256 248.267 761.456C248.214 759.55 249.218 758.34 250.509 757.095C254.434 769.436 255.344 795.403 250.134 807.294Z"/><path fill="#C49A30" d="M220.276 818.153C224.826 818.514 239.786 817.933 241.475 819.681C234.944 825.375 226.54 821.98 220.276 818.153Z"/><path fill="#E9C46A" d="M190.371 712.161C191.842 715.13 191.193 727.682 190.789 731.174C190.346 727.386 189.772 720.115 187.915 717.027C188.619 714.931 189.254 714.029 190.371 712.161Z"/><path fill="#E9C46A" d="M196.24 789.704C196.705 787.704 196.748 786.281 198.271 785.035L199.278 785.446C200.463 788.27 200.277 791.02 198.381 793.497L196.24 789.704Z"/><path fill="#E9C46A" d="M255.491 676.135C252.322 673.425 248.716 674.132 247.7 672.811C249.648 671.611 278.308 672.402 282.334 673.302C280.317 674.435 279.461 673.401 276.514 675.568C319.53 686.187 340.964 766.551 324.982 803.698C327.636 810.562 325.389 814.572 317.982 814.98C310.516 823.306 299.75 826.971 288.793 827.607C288.257 827.641 287.72 827.66 287.183 827.664L289.601 822.724L291.845 818.816C294.57 812.095 295.978 807.979 297.268 800.872C294.689 797.138 297.829 774.491 297.02 768.744C297.02 768.744 297.796 767.378 297.898 767.198C297.663 761.33 295.835 754.085 294.456 748.353C288.682 724.36 278.062 700.015 258.98 683.633C256.563 681.558 253.397 680.043 251.389 677.635C252.05 676.627 253.992 676.495 255.491 676.135Z"/><path fill="#0E202D" d="M255.491 676.135C252.322 673.425 248.716 674.132 247.7 672.811C249.648 671.611 278.308 672.402 282.334 673.302C280.317 674.435 279.461 673.401 276.514 675.568C268.207 674.485 263.967 674.592 255.491 676.135Z"/><path fill="#0E202D" d="M297.898 767.198C299.487 777.513 299.567 790.653 297.268 800.872C294.689 797.138 297.829 774.491 297.02 768.744C297.02 768.744 297.796 767.378 297.898 767.198Z"/><path fill="#0E202D" d="M324.982 803.698C327.636 810.562 325.389 814.572 317.982 814.98C321.688 810.916 322.744 808.736 324.982 803.698Z"/><path fill="#E9C46A" d="M555.52 691.248C567.924 678.93 580.235 675.63 597.341 678.428C599.392 678.838 601.559 678.938 602.83 680.397C602.104 682.586 598.981 684.14 596.838 685.496C585.848 694.451 582.182 700.496 575.029 712.299C576.171 714.292 576.057 715.826 576.222 718.136C575.398 720.067 575.938 719.599 574.341 720.279L571.872 718.956L571.599 718.919L569.975 722.751C568.164 727.424 566.176 732.289 564.638 737.041L562.111 744.73L562.027 745.731C554.86 772.683 553.642 794.835 563.219 821.108C564.669 823.631 567.224 827.137 566.95 829.776C564.979 830.733 565.326 830.387 562.811 830.24L555.627 828.822C552.339 827.749 550.959 827.162 547.856 825.622C541.542 822.259 538.456 820.252 534.728 814.149C533.234 812.197 532.735 810.961 531.716 808.779C531.485 808.472 531.256 808.192 531.101 807.837C521.151 785.013 524.524 760.355 530.622 737.834L532.223 732.304C537.765 717.41 542.199 707.933 552.012 695.033C551.209 692.906 550.601 689.747 552.163 687.933C554.269 688.664 554.054 689.13 555.52 691.248Z"/><path fill="#E9C46A" d="M547.856 825.622C549.839 824.126 558.523 823.599 562.447 822.611L563.219 821.108C564.669 823.631 567.224 827.137 566.95 829.776C564.979 830.733 565.326 830.387 562.811 830.24L555.627 828.822C552.339 827.749 550.959 827.162 547.856 825.622Z"/><path fill="#E9C46A" d="M562.027 745.731L560.791 745.012C559.879 741.249 559.784 732.47 561.858 729.213C562.642 730.892 562.393 733.68 562.387 735.661L564.638 737.041L562.111 744.73L562.027 745.731Z"/><path fill="#E9C46A" d="M562.111 744.73C560.463 742.702 560.174 737.581 562.387 735.661L564.638 737.041L562.111 744.73Z"/><path fill="#E9C46A" d="M597.341 678.428C599.392 678.838 601.559 678.938 602.83 680.397C602.104 682.586 598.981 684.14 596.838 685.496C595.92 682.851 596.007 680.94 597.341 678.428Z"/><path fill="#E9C46A" d="M531.716 808.779C535.476 807.852 533.434 802.194 535.323 801.115C536.621 803.414 536.138 811.944 534.728 814.149C533.234 812.197 532.735 810.961 531.716 808.779Z"/><path fill="#E9C46A" d="M569.975 722.751L568.848 721.607C568.119 717.845 567.685 716.187 569.096 712.493L569.702 712.343C570.286 714.847 570.796 716.501 571.599 718.919L569.975 722.751Z"/><path fill="#0E202D" d="M575.029 712.299C576.171 714.292 576.057 715.826 576.222 718.136C575.398 720.067 575.938 719.599 574.341 720.279L571.872 718.956C572.573 716.863 573.999 714.313 575.029 712.299Z"/><path fill="#0E202D" d="M552.012 695.033C551.209 692.906 550.601 689.747 552.163 687.933C554.269 688.664 554.054 689.13 555.52 691.248L552.012 695.033Z"/><path fill="#9B7FD4" d="M255.705 1166.05C268.623 1166.39 281.856 1175.74 290.29 1174.38C290.447 1174.6 290.603 1174.83 290.759 1175.06C287.594 1176.95 284.607 1175.39 280.664 1174.55L280.826 1174.47C279.732 1175.38 279.85 1174.9 279.744 1175.87C285.204 1181.19 288.271 1181.15 293.427 1175.38C294.991 1173.63 295.684 1172.3 295.29 1169.97L296.031 1169.05C297.504 1179.99 287.371 1182.25 279.22 1177.66L278.819 1176.99C276.645 1175.52 274.664 1175.96 271.719 1175.53C263.435 1199.02 295.097 1189.39 306.41 1201.57C309.089 1204.6 311.767 1206.62 311.632 1210.38C309.991 1211.88 310.245 1211.44 307.77 1212.03C301.728 1212.42 285.9 1215.7 278.317 1216.57C249.798 1219.87 220.918 1218.01 193.056 1211.08L191.691 1211.84C190.943 1214.53 190.757 1215.55 190.441 1218.31C187.153 1217.19 183.273 1215.39 180.035 1213.98C182.137 1212.3 178.944 1210.02 180.663 1206.08C182.531 1194.26 189.514 1187.78 197.789 1180.2C204.358 1179.6 207.878 1179.59 213.989 1176.84L213.015 1176.04C227.922 1169.79 211.202 1166.22 235.272 1166.48C240.208 1166.17 251.798 1167.35 255.705 1166.05Z"/><path fill="#0E202D" d="M255.705 1166.05C268.623 1166.39 281.856 1175.74 290.29 1174.38C290.447 1174.6 290.603 1174.83 290.759 1175.06C287.594 1176.95 284.607 1175.39 280.664 1174.55L280.826 1174.47C279.732 1175.38 279.85 1174.9 279.744 1175.87C285.204 1181.19 288.271 1181.15 293.427 1175.38C294.991 1173.63 295.684 1172.3 295.29 1169.97L296.031 1169.05C297.504 1179.99 287.371 1182.25 279.22 1177.66L278.819 1176.99C276.645 1175.52 274.664 1175.96 271.719 1175.53C259.175 1170.35 236.129 1169.35 222.725 1170.43C219.679 1173.36 217.981 1175.31 213.989 1176.84L213.015 1176.04C227.922 1169.79 211.202 1166.22 235.272 1166.48C240.208 1166.17 251.798 1167.35 255.705 1166.05Z"/><path fill="#0E202D" d="M180.663 1206.08C184.661 1207.76 188.974 1209.7 193.056 1211.08L191.691 1211.84C190.943 1214.53 190.757 1215.55 190.441 1218.31C187.153 1217.19 183.273 1215.39 180.035 1213.98C182.137 1212.3 178.944 1210.02 180.663 1206.08Z"/><path fill="#9B7FD4" d="M306.41 1201.57C309.089 1204.6 311.767 1206.62 311.632 1210.38C309.991 1211.88 310.245 1211.44 307.77 1212.03C306.297 1211.96 304.638 1210.7 302.291 1210.22C297.846 1209.31 294.108 1208.99 289.655 1208.52C293.443 1207.65 299.572 1208.09 303.599 1207.68C305.678 1207.47 304.275 1204.9 306.41 1201.57Z"/><path fill="#9B7FD4" d="M264.174 1175.58C266.545 1177.39 265.942 1182.05 265.454 1184.63C263.498 1183.24 263.399 1177.74 264.174 1175.58Z"/><path fill="#9B7FD4" d="M537.332 1210.71C548.755 1187.24 561.554 1200.72 577.952 1187.63C581.242 1185 577.245 1176.73 579.991 1175.49C592.949 1169.63 613.03 1169.75 626.902 1170.29C629.157 1172.37 630.605 1173.53 633.075 1175.36C635.974 1174.66 637.762 1174.14 640.193 1176.68C639.976 1177.82 640.281 1177.4 639.482 1178.07C642.53 1179.43 648.465 1179.77 651.967 1180.12C661.27 1186.79 665.856 1195.08 669.501 1205.49C661.685 1210.27 652.259 1212.39 643.324 1214.08C607.952 1220.79 572.287 1218.52 537.332 1210.71Z"/><path fill="#0E202D" d="M633.075 1175.36C635.974 1174.66 637.762 1174.14 640.193 1176.68C639.976 1177.82 640.281 1177.4 639.482 1178.07C637.316 1177.45 635.135 1176.32 633.075 1175.36Z"/><path fill="#E9C46A" d="M223.378 686.373C229.079 684.645 232.374 684.428 238.082 686.418C265.457 695.178 279.281 736.529 284.248 761.798C284.667 765.285 285.104 770.81 285.646 773.992C285.755 772.266 285.793 771.53 286.166 769.854L287.501 769.544C287.673 776.272 287.266 804.41 288.355 808.281C289.645 808.291 289.447 808.115 290.731 807.27C292.084 811.266 287.701 813.03 291.845 818.816L289.601 822.724C288.49 821.409 286.651 807.672 284.154 802.074C283.53 804.159 282.52 807.882 281.711 809.761C279.714 815.391 276.079 822.211 270.976 825.594C268.274 827.251 267.139 827.951 264.211 829.133C256.436 831.198 252.791 830.884 244.717 830.066L247.603 827.403L246.117 825.543L249.427 822.654L249.352 822.323C248.174 820.932 248.251 819.965 248.467 818.26C250.237 815.574 250.869 816.002 253.525 816.93C271.9 786.065 256.305 726.16 230.132 703.163C223.677 697.492 218.588 695.501 210.614 693.298C214.687 689.646 218.114 687.646 223.378 686.373Z"/><path fill="#E9C46A" d="M249.427 822.654C257.526 824.467 265.928 821.423 270.976 825.594C268.274 827.251 267.139 827.951 264.211 829.133C256.436 831.198 252.791 830.884 244.717 830.066L247.603 827.403L246.117 825.543L249.427 822.654Z"/><path fill="#C49A30" d="M247.603 827.403C254.638 826.363 257.861 825.333 264.211 829.133C256.436 831.198 252.791 830.884 244.717 830.066L247.603 827.403Z"/><path fill="#0E202D" d="M285.646 773.992C285.755 772.266 285.793 771.53 286.166 769.854L287.501 769.544C287.673 776.272 287.266 804.41 288.355 808.281C289.645 808.291 289.447 808.115 290.731 807.27C292.084 811.266 287.701 813.03 291.845 818.816L289.601 822.724C288.49 821.409 286.651 807.672 284.154 802.074C284.797 798.612 285.024 796.427 285.28 792.902C286.378 790.124 285.76 777.352 285.646 773.992Z"/><path fill="#E9C46A" d="M281.711 809.761C279.225 807.656 279.459 792.592 281.514 789.737C282.657 790.657 282.459 795.617 283.749 797.762C283.823 794.295 283.372 795.559 285.28 792.902C285.024 796.427 284.797 798.612 284.154 802.074C283.53 804.159 282.52 807.882 281.711 809.761Z"/><path fill="#E9C46A" d="M223.378 686.373C229.079 684.645 232.374 684.428 238.082 686.418C235.241 688.202 226.17 688.125 223.378 686.373Z"/><path fill="#0E202D" d="M249.352 822.323C248.174 820.932 248.251 819.965 248.467 818.26C250.237 815.574 250.869 816.002 253.525 816.93C252.032 819.47 251.624 820.421 249.352 822.323Z"/><path fill="#E9C46A" d="M612.702 690.666C617.078 688.24 621.518 688.07 626.343 688.36C631.532 689.25 638.587 691.53 642.34 695.354L642.071 696.049L641.749 696.172L635.603 698.095C633.801 699.36 632.611 700.112 630.688 701.183C600.096 722.466 581.61 787.159 602.786 820.798C605.83 825.633 609.617 828.22 614.327 831.22C572.584 841.815 568.405 804.49 569.598 773.379C566.108 769.162 570.837 762.987 570.633 761.077C570.172 756.763 569.339 757.252 569.821 751.556C570.227 749.354 574.174 744.732 575.861 743.552C576.555 742.265 580.055 731.966 580.993 729.741C587.165 715.089 594.345 703.065 607.256 693.552L612.702 690.666Z"/><path fill="#C49A30" d="M626.343 688.36C631.532 689.25 638.587 691.53 642.34 695.354L642.071 696.049L641.749 696.172L635.603 698.095C636.383 695.465 639.075 696.685 640.308 695.054L639.424 694.742C633.713 697.223 627.571 694.773 626.343 688.36Z"/><path fill="#0E202D" d="M569.821 751.556C570.227 749.354 574.174 744.732 575.861 743.552C574.037 749.274 572.648 754.496 571.824 760.473C570.632 757.123 570.381 755.089 569.821 751.556Z"/><path fill="#E9C46A" d="M607.256 693.552L612.702 690.666C614.253 692.668 615.123 693.019 615.141 695.116C612.792 696.912 610.866 695.902 608.231 695.072L607.256 693.552Z"/><path fill="#0E202D" d="M569.821 751.556C570.381 755.089 570.632 757.123 571.824 760.473L569.598 773.379C566.108 769.162 570.837 762.987 570.633 761.077C570.172 756.763 569.339 757.252 569.821 751.556Z"/><path fill="#E9C46A" d="M600.512 727.212L601.627 727.773C603.037 731.423 601.051 734.199 600.291 738.436L600.189 739.026L600.098 739.503C599.636 735.539 599.538 731.099 600.512 727.212Z"/><path fill="#6A50A8" d="M451.979 1187.63C456.145 1189.81 460.371 1191.86 464.653 1193.8C527.902 1221.63 603.488 1239.87 670.405 1213.92C669.881 1220.15 669.683 1223.33 667.111 1229.04C660.073 1237.2 648.253 1237.75 638.465 1239.62C585.686 1249.69 533.45 1238.4 484.273 1218.78C475.024 1215.08 463.699 1212.22 456.005 1205.65C451.755 1202.02 452.127 1192.82 451.979 1187.63Z"/><path fill="#6A50A8" d="M397.464 1187.73C397.485 1193.46 398.291 1202.63 393.305 1206.43C385.613 1212.25 375.278 1214.89 366.29 1218.38C326.527 1233.83 285.042 1245.97 241.9 1242.99C227.319 1241.98 213.225 1240.3 198.978 1237.2C185.373 1234.25 178.713 1228.84 180.035 1213.98C183.273 1215.39 187.153 1217.19 190.441 1218.31C258.388 1237.56 335.947 1219.24 397.464 1187.73Z"/><path fill="#0E202D" d="M553.127 1146.29C559.113 1142.39 565.39 1138.95 571.903 1136C580.491 1132.18 605.251 1124.3 613.522 1127.45C615.216 1129.16 614.79 1128.3 615.118 1130.69C614.151 1132.5 614.692 1131.9 612.416 1132.81L613.656 1133.16C613.354 1145.12 617.245 1139.47 618.223 1143.96C620.789 1145.55 623.509 1146.71 624.337 1149.49L623.945 1151.95C624.705 1154.31 623.567 1153.7 624.43 1156.84C629.871 1158.18 635.598 1158.46 632.982 1165.45L632.564 1166.98L631.334 1167.35C631.254 1166.94 631.174 1166.53 631.094 1166.11C627.475 1165.74 620.263 1168.21 618.958 1167.93C614.165 1166.91 597.884 1167.09 594.782 1166C586.629 1166.33 578.131 1169.41 570.585 1172.27C568.913 1172.92 565.834 1174.03 564.34 1174.78L564.151 1175.43C562.022 1175.69 561.817 1175.45 559.778 1174.5L558.633 1172.99C558.951 1176.41 561.677 1174.96 558.89 1178.03C561.72 1179.9 565.998 1178.25 569.192 1177.57L569.638 1178.15C559.648 1183.51 548.681 1175.44 555.617 1165.55L555.658 1164.73C551.143 1162.82 550.749 1162.96 545.91 1163.2C531.621 1156.47 543.008 1149.79 542.855 1144.75C540.702 1143.93 539.715 1144.49 537.168 1144.85L537.033 1144.22C538.421 1143.51 539.46 1143.2 540.944 1142.71C542.299 1143.48 543.154 1143.31 544.634 1143.23C545.286 1144.86 545.144 1144.22 544.767 1146.13L543.238 1147.91C543.52 1148.47 543.762 1148.98 544.017 1149.56L542.464 1152.42L542.788 1153.24C545.793 1151.21 548.424 1145.28 552.166 1145.64L553.127 1146.29Z"/><path fill="#E9C46A" d="M609.739 1147.64C614.855 1149.56 618.535 1151.14 623.945 1151.95C624.705 1154.31 623.567 1153.7 624.43 1156.84C629.871 1158.18 635.598 1158.46 632.982 1165.45L632.564 1166.98L631.334 1167.35C631.254 1166.94 631.174 1166.53 631.094 1166.11C627.475 1165.74 620.263 1168.21 618.958 1167.93C614.165 1166.91 597.884 1167.09 594.782 1166C586.629 1166.33 578.131 1169.41 570.585 1172.27C568.913 1172.92 565.834 1174.03 564.34 1174.78C561.853 1174.29 560.928 1173.72 559.488 1171.77L558.669 1170.27L558.286 1169.38C559.607 1163.16 565.143 1165.15 567.297 1161.24C565.155 1160.17 564.205 1160.05 563.919 1157.63C566.806 1160.2 578.304 1154.75 583.195 1153.89C586.136 1152.64 593.125 1151.77 596.543 1151.25L598.682 1149.57C599.937 1149.98 600.819 1150.16 601.847 1151C604.035 1151.26 609.831 1151.08 612.298 1151.07L609.475 1148.76L609.739 1147.64Z"/><path fill="#0E202D" d="M609.739 1147.64C614.855 1149.56 618.535 1151.14 623.945 1151.95C624.705 1154.31 623.567 1153.7 624.43 1156.84C611.912 1155.7 600.022 1155.39 587.628 1158.14L587.049 1157.28C585.952 1156.58 581.064 1157.06 578.577 1156.82L579.03 1156.08C580.824 1155.44 581.717 1155.09 583.195 1153.89C586.136 1152.64 593.125 1151.77 596.543 1151.25L598.682 1149.57C599.937 1149.98 600.819 1150.16 601.847 1151C604.035 1151.26 609.831 1151.08 612.298 1151.07L609.475 1148.76L609.739 1147.64Z"/><path fill="#9B7FD4" d="M598.682 1149.57C599.937 1149.98 600.819 1150.16 601.847 1151L596.543 1151.25L598.682 1149.57Z"/><path fill="#0E202D" d="M563.919 1157.63C566.806 1160.2 578.304 1154.75 583.195 1153.89C581.717 1155.09 580.824 1155.44 579.03 1156.08L578.577 1156.82C581.064 1157.06 585.952 1156.58 587.049 1157.28L587.628 1158.14C579.588 1160.27 564.143 1163.96 558.669 1170.27L558.286 1169.38C559.607 1163.16 565.143 1165.15 567.297 1161.24C565.155 1160.17 564.205 1160.05 563.919 1157.63Z"/><path fill="#0E202D" d="M594.782 1166C603.559 1163.82 624.236 1163.78 632.982 1165.45L632.564 1166.98L631.334 1167.35C631.254 1166.94 631.174 1166.53 631.094 1166.11C627.475 1165.74 620.263 1168.21 618.958 1167.93C614.165 1166.91 597.884 1167.09 594.782 1166Z"/><path fill="#C49A30" d="M559.488 1171.77C564.085 1171.63 566.042 1171.67 570.585 1172.27C568.913 1172.92 565.834 1174.03 564.34 1174.78C561.853 1174.29 560.928 1173.72 559.488 1171.77Z"/><path fill="#C49A30" d="M553.127 1146.29C559.113 1142.39 565.39 1138.95 571.903 1136C580.491 1132.18 605.251 1124.3 613.522 1127.45C615.216 1129.16 614.79 1128.3 615.118 1130.69C614.151 1132.5 614.692 1131.9 612.416 1132.81C596.146 1134.86 582.097 1138.89 567.282 1146.39C562.716 1148.7 557.716 1152.52 553.061 1155.07C550.897 1152.46 546.727 1152.8 543.779 1153.62C546.849 1150.31 549.428 1148.77 553.127 1146.29Z"/><path fill="#9B7FD4" d="M583.593 1145.5C589.146 1146.73 593.242 1147.88 598.682 1149.57L596.543 1151.25C593.125 1151.77 586.136 1152.64 583.195 1153.89C578.304 1154.75 566.806 1160.2 563.919 1157.63L563.214 1155.73C565.194 1152.6 579.341 1147.22 583.593 1145.5Z"/><path fill="#C49A30" d="M608.101 1139.15C611.876 1141.27 614.255 1142.31 618.223 1143.96C620.789 1145.55 623.509 1146.71 624.337 1149.49L623.945 1151.95C618.535 1151.14 614.855 1149.56 609.739 1147.64C606.466 1145.64 597.257 1143.11 593.402 1141.99C598.611 1140.57 602.773 1139.97 608.101 1139.15Z"/><path fill="#E9C46A" d="M543.779 1153.62C546.727 1152.8 550.897 1152.46 553.061 1155.07C550.982 1156.48 549.144 1157.63 546.585 1157.09C544.769 1155.99 544.755 1155.63 543.779 1153.62Z"/><path fill="#9B7FD4" d="M391.318 1118.19L392.907 1118.64C396.607 1122.5 395.586 1138.57 395.552 1144.59C379.536 1157.85 374.75 1170.36 372.055 1190.2C364.188 1177.36 358.663 1170.66 347.474 1160.72C339.312 1153.87 330.939 1148.31 321.735 1143C332.886 1132.93 323.066 1130.67 322.146 1126.13C325.138 1123.3 337.631 1125.14 342.053 1125.7C360.028 1127.97 374.64 1125.94 391.318 1118.19Z"/><path fill="#9B7FD4" d="M457.035 1118.1C460.479 1118.65 466.316 1121.57 469.973 1122.79C476.164 1124.85 482.182 1125.86 488.663 1126.35C493.422 1126.7 498.199 1126.69 502.956 1126.32C507.364 1125.97 525.74 1122.48 527.855 1126.6C522.061 1132.25 520.563 1137.11 528.017 1142.33L528.675 1142.78C521.315 1146.79 509.594 1154.09 503.412 1159.5C490.579 1171.37 487.08 1176.1 477.146 1190.33C475.757 1169.67 469.605 1158.52 454.362 1144.4C454.247 1136.78 453.157 1124.17 457.035 1118.1Z"/><path fill="#1A6B61" d="M78.7586 900.925C111.926 906.503 140.156 911.837 173.147 918.806C173.682 924.698 175.708 930.231 177.837 935.698C178.466 937.314 180.445 940.99 179.908 942.365L177.727 942.509C162.538 940.522 147.624 939.028 132.401 936.773C112.654 933.847 94.766 929.573 75.4211 925.289C75.6411 918.413 77.4937 907.778 78.7586 900.925Z"/><path fill="#1A6B61" d="M762.66 901.959C763.931 901.684 764.95 901.798 766.243 901.845C768.361 904.196 770.252 920.904 770.433 924.836C738.343 933.906 708.732 937.873 675.952 941.733C673.567 941.85 670.404 942.336 667.976 942.642C673.829 932.934 674.965 929.321 676.185 918.214C688.83 916.309 702.067 912.038 714.811 910.096C730.536 907.699 746.898 903.576 762.66 901.959Z"/><path fill="#9B7FD4" d="M539.213 1124.06C537.984 1122.42 533.439 1118.45 533.211 1117.14C530.54 1101.72 551.005 1095.76 562.402 1094.41C576.909 1092.69 592.072 1092.23 604.127 1101.23C604.667 1103.42 604.748 1104.12 605.975 1105.98L606.762 1106.02C607.715 1109.62 608.702 1117.37 606.604 1120.57C605.302 1120.21 605.719 1120.6 605.07 1119.7L604.717 1120.75C602.85 1122.02 583.438 1125.93 581.422 1125.65C566.146 1123.47 554.809 1122.62 539.213 1124.06Z"/><path fill="#0E202D" d="M605.975 1105.98L606.762 1106.02C607.715 1109.62 608.702 1117.37 606.604 1120.57C605.302 1120.21 605.719 1120.6 605.07 1119.7C606.082 1114.04 606.205 1111.75 605.975 1105.98Z"/><path fill="#9B7FD4" d="M266.525 1093.89C278.169 1091.89 299.437 1095.06 309.179 1101.63C315.171 1105.67 316.615 1111.37 317.615 1118.04C313.775 1120.1 313.25 1120.78 310.514 1124.06C303.683 1123.43 299.264 1123.27 292.345 1123.27C282.104 1123.76 277.397 1124.5 267.323 1126.68C259.949 1123.99 252.6 1122.62 244.899 1121.26C244.535 1119.14 244.218 1117.02 243.947 1114.89C241.92 1098.48 252.897 1095.38 266.525 1093.89Z"/><path fill="#2A9D8F" d="M537.168 1144.85C539.715 1144.49 540.702 1143.93 542.855 1144.75C543.008 1149.79 531.621 1156.47 545.91 1163.2L544.871 1164.14C530.378 1170.64 511.717 1186.96 503.218 1200.43C496.372 1197.56 490.002 1195.84 482.766 1192.58C492.735 1176.51 506.295 1162.97 522.379 1153.03C525.769 1150.98 535.134 1146.79 537.168 1144.85Z"/><path fill="#2A9D8F" d="M305.923 1143.31C311.909 1144.05 319.498 1148.66 324.798 1151.64C343.329 1162.03 355.601 1175.18 366.986 1192.88C363.845 1193.99 360.294 1195.51 357.165 1196.76C353.563 1198.07 349.943 1199.32 346.304 1200.53C333.879 1182.3 323.555 1174.03 303.837 1163.42C317.492 1155.41 308.527 1152.61 305.923 1143.31Z"/><path fill="#C49A30" d="M670.946 656.714C677.534 651.695 683.934 648.685 690.628 642.861C691.225 657.404 689.776 663.484 686.506 677.712L683.908 685.751C681.133 694.635 675.792 705.897 671.08 713.89C669.619 716.152 668.351 718.123 667.046 720.488C666.259 715.089 661.259 707.264 656.622 704.453C661.395 696.715 654.127 697.575 657.587 690.747L655.431 680.76C658.062 679.912 660.011 678.555 662.572 677.932L663.281 679.007C666.367 675.312 670.1 661.818 670.946 656.714Z"/><path fill="#0E202D" d="M655.431 680.76C658.062 679.912 660.011 678.555 662.572 677.932L663.281 679.007C661.604 682.873 659.727 687.138 657.587 690.747L655.431 680.76Z"/><path fill="#C49A30" d="M243.179 1139.41C245.672 1139.87 253.023 1140.8 254.146 1142.79L255.312 1143.38C252.16 1146.34 244.125 1146.83 239.978 1149.69L240.22 1150.42C243.26 1151.43 244.363 1151.23 247.544 1151.03C252.502 1147.88 259.562 1147.24 265.246 1145.45C270.349 1147.27 282.588 1151.53 285.776 1155.61C286.029 1157.83 284.847 1158.38 282.981 1159.27L282.223 1160.49C273.339 1160.25 268.173 1153.83 258.027 1155.04L258.24 1155.45L258.839 1155.56C263.254 1156.4 271.401 1159.41 276.016 1160.95L275.856 1161.89C280.846 1163.93 287.929 1165.58 290.468 1169.92C290.866 1172 290.778 1172.3 290.29 1174.38C281.856 1175.74 268.623 1166.39 255.705 1166.05C251.798 1167.35 240.208 1166.17 235.272 1166.48C228.603 1164.02 217.761 1168.02 215.002 1165.64L215.323 1163.93C217.139 1156.28 226.836 1156.76 233.379 1156.09C230.874 1155.7 230.944 1156.06 228.729 1156.02C226.391 1155.97 228.533 1155.23 226.353 1152.94L227.077 1152.05L226.154 1150.88C225.781 1146.05 229.092 1145.24 233.021 1143.77C235.978 1142.18 240 1140.69 243.179 1139.41Z"/><path fill="#0E202D" d="M243.179 1139.41C245.672 1139.87 253.023 1140.8 254.146 1142.79L255.312 1143.38C252.16 1146.34 244.125 1146.83 239.978 1149.69L240.22 1150.42C243.26 1151.43 244.363 1151.23 247.544 1151.03C252.502 1147.88 259.562 1147.24 265.246 1145.45C270.349 1147.27 282.588 1151.53 285.776 1155.61C286.029 1157.83 284.847 1158.38 282.981 1159.27L282.223 1160.49C273.339 1160.25 268.173 1153.83 258.027 1155.04L258.24 1155.45L258.839 1155.56C263.254 1156.4 271.401 1159.41 276.016 1160.95L275.856 1161.89C270.368 1160.66 265.059 1158.75 259.232 1157.65C250.052 1155.92 242.598 1156.16 233.379 1156.09C230.874 1155.7 230.944 1156.06 228.729 1156.02C226.391 1155.97 228.533 1155.23 226.353 1152.94L227.077 1152.05L226.154 1150.88C225.781 1146.05 229.092 1145.24 233.021 1143.77C235.978 1142.18 240 1140.69 243.179 1139.41Z"/><path fill="#9B7FD4" d="M247.544 1151.03C252.502 1147.88 259.562 1147.24 265.246 1145.45C270.349 1147.27 282.588 1151.53 285.776 1155.61C286.029 1157.83 284.847 1158.38 282.981 1159.27C271.498 1153.59 260.113 1151.96 247.544 1151.03Z"/><path fill="#E9C46A" d="M243.179 1139.41C245.672 1139.87 253.023 1140.8 254.146 1142.79C249.117 1144.15 244.771 1145.74 239.875 1147.5C237.49 1146.02 235.534 1145.03 233.021 1143.77C235.978 1142.18 240 1140.69 243.179 1139.41Z"/><path fill="#C49A30" d="M227.077 1152.05L226.154 1150.88C225.781 1146.05 229.092 1145.24 233.021 1143.77C235.534 1145.03 237.49 1146.02 239.875 1147.5C236.057 1148.94 230.913 1151.05 227.077 1152.05Z"/><path fill="#0E202D" d="M235.272 1166.48C228.603 1164.02 217.761 1168.02 215.002 1165.64L215.323 1163.93C219.904 1165.83 243.261 1163.12 255.705 1166.05C251.798 1167.35 240.208 1166.17 235.272 1166.48Z"/><path fill="#C49A30" d="M162.125 648.136C169.106 652.303 176.029 656.564 182.894 660.92C186.936 672.129 191.299 681.27 197.141 691.621C197.795 692.78 196.259 695.092 195.658 696.26C199.466 696.306 204.704 695.983 207.994 697.424C208.74 699.079 208.563 698.429 208.223 700.45C204.507 700.664 202.859 700.853 199.307 702.164C197.014 704.111 191.386 709.473 190.371 712.161C189.254 714.029 188.619 714.931 187.915 717.027L187.085 717.48C184.701 715.951 180.532 707.911 179.012 705.179C168.867 686.945 162.957 669.085 162.125 648.136Z"/><path fill="#0E202D" d="M195.658 696.26C199.466 696.306 204.704 695.983 207.994 697.424C208.74 699.079 208.563 698.429 208.223 700.45C204.507 700.664 202.859 700.853 199.307 702.164C196.958 700.687 196.158 698.925 195.658 696.26Z"/><path fill="#9B7FD4" d="M545.91 1163.2C550.749 1162.96 551.143 1162.82 555.658 1164.73L555.617 1165.55C548.681 1175.44 559.648 1183.51 569.638 1178.15C570.733 1178.4 571.069 1178.84 571.942 1179.58C574.212 1188.1 556.311 1188.36 550.881 1189.99C541.153 1192.92 535.577 1200.31 530.851 1208.85C525.076 1207.61 515.137 1204.2 508.914 1202.41C518.397 1188.97 530.967 1177.99 545.569 1170.41L545.393 1169.85C544.42 1166.65 545.469 1166.76 544.871 1164.14L545.91 1163.2Z"/><path fill="#0E202D" d="M545.91 1163.2C550.749 1162.96 551.143 1162.82 555.658 1164.73L555.617 1165.55C551.816 1165.77 548.594 1169.39 545.569 1170.41L545.393 1169.85C544.42 1166.65 545.469 1166.76 544.871 1164.14L545.91 1163.2Z"/><path fill="#9B7FD4" d="M296.031 1169.05L293.953 1165.3C296.358 1165.23 306.207 1171.22 308.787 1172.83C320.764 1180.29 333.142 1190.38 340.785 1202.42C333.944 1204.48 325.88 1206.57 319.241 1208.74C310.137 1192.89 302.601 1189.55 285.654 1187.31C282.141 1186.85 277.65 1184.93 277.599 1180.73C278.144 1179.41 278.311 1178.81 279.22 1177.66C287.371 1182.25 297.504 1179.99 296.031 1169.05Z"/><path fill="#C49A30" d="M239.37 1126.54C256.571 1125.76 282.828 1137 297.157 1146.26C300.305 1148.29 306.716 1151.63 306.005 1155.7C304.14 1157.16 303.894 1157.32 301.562 1157.68C297.753 1155.91 291.242 1151.61 287.221 1149.33C275.494 1142.66 262.003 1137.27 248.783 1134.6C245.14 1133.86 238.572 1133.39 235.574 1131.66C234.536 1129.76 234.572 1130.5 235.054 1128.77C236.57 1127.14 237.18 1127.11 239.37 1126.54Z"/><path fill="#9B7FD4" d="M396.164 1152.38C396.741 1150.75 397.456 1149.89 398.799 1149.1L398.664 1150.79L399.302 1151.45C399.343 1155.65 399.968 1181.99 398.764 1184.44C397.352 1182.69 397.347 1181.25 397.215 1178.97C392.851 1181.81 383.163 1186.06 378.075 1188.42C380.013 1178.36 382.179 1169.29 388.153 1160.68C389.71 1158.44 393.76 1153.4 396.164 1152.38Z"/><path fill="#0E202D" d="M396.164 1152.38C396.741 1150.75 397.456 1149.89 398.799 1149.1L398.664 1150.79L399.302 1151.45C399.343 1155.65 399.968 1181.99 398.764 1184.44C397.352 1182.69 397.347 1181.25 397.215 1178.97C396.555 1170.67 396.314 1160.66 396.164 1152.38Z"/><path fill="#9B7FD4" d="M453.743 1152.6C463.716 1158.77 469.998 1177.05 471.255 1188.08C465.526 1185.81 458.374 1182.06 452.719 1179.28C453.143 1170.39 453.484 1161.49 453.743 1152.6Z"/><path fill="#C49A30" d="M299.93 1128.36C301.393 1127.91 306.607 1125.98 307.386 1126.12C311.931 1126.96 320.822 1128.28 322.846 1132.74C322.715 1134.14 322.947 1134.56 322.192 1135.35C321.72 1135.88 320 1137.78 319.264 1137.72C304.461 1136.41 291.947 1136.99 278.567 1130.08C285.612 1128.44 292.734 1128.44 299.93 1128.36Z"/><path fill="#0E202D" d="M299.93 1128.36C301.393 1127.91 306.607 1125.98 307.386 1126.12C311.931 1126.96 320.822 1128.28 322.846 1132.74C322.715 1134.14 322.947 1134.56 322.192 1135.35C319.577 1129.03 306.07 1129.01 299.93 1128.36Z"/><path fill="#C49A30" d="M528.374 1134.13C533.699 1126.6 563.01 1128.16 571.343 1130.24C555.737 1137.74 553.709 1134.29 538.187 1136.93C535.567 1137.51 533.022 1138.37 530.483 1137.68C528.543 1136.1 529.161 1136.92 528.374 1134.13Z"/><path fill="#E9C46A" d="M528.374 1134.13C530.848 1134.29 536.3 1134.66 537.947 1136.21L538.187 1136.93C535.567 1137.51 533.022 1138.37 530.483 1137.68C528.543 1136.1 529.161 1136.92 528.374 1134.13Z"/><path fill="#0E202D" d="M525.799 1104.12C527.825 1107.97 532.028 1112.81 530.282 1117.75C529.387 1120.28 528.201 1119.53 528.371 1122.91C527.202 1123.62 507.88 1120.84 504.929 1120.55L504.667 1120.32C510.442 1120.18 517.935 1119.49 523.252 1121.24C524.732 1121.73 525.101 1121.67 526.648 1121.28L527.014 1120.54C524.284 1119.43 510.73 1118.89 510.4 1118.42C514.198 1117.38 519.626 1118.1 523.414 1119.07C521.101 1117.91 520.769 1116.85 519.581 1114.62L523.353 1114.21C523.317 1110.52 524.562 1107.54 525.799 1104.12Z"/><path fill="#0E202D" d="M519.581 1114.62L523.353 1114.21C523.416 1115.78 523.542 1117.52 523.414 1119.07C521.101 1117.91 520.769 1116.85 519.581 1114.62Z"/><path fill="#2A9D8F" d="M652.915 667.101L653.395 667.141L653.9 667.772C653.158 671.782 649.367 678.386 647.265 682.14C645.136 681.126 642.859 679.901 640.744 678.813L634.764 676.463L652.915 667.101Z"/><path fill="#0E202D" d="M520.024 749.068C524.041 755.608 523.115 788.337 521.305 796.025L520.849 796.59C519.539 790.171 520.287 782.575 520.161 775.864C519.994 766.995 519.668 757.91 520.024 749.068Z"/><path fill="#0E202D" d="M398.799 1149.1C399.306 1147.48 399.511 1147.1 398.977 1145.47C396.213 1142.52 395.525 1140.82 396.018 1136.62C396.491 1132.59 396.194 1122.55 398.389 1119.58L399.319 1119.91C400.239 1123.8 400.373 1148.09 399.302 1151.45L398.664 1150.79L398.799 1149.1Z"/><path fill="#0E202D" d="M611.554 668.736L612.672 669.989C609.952 672.837 594.146 673.686 589.554 673.79C583.78 673.905 578.017 673.247 572.418 671.834L572.023 670.218C581.704 671.6 602.683 672.425 611.554 668.736Z"/><path fill="#9B7FD4" d="M620.946 1128.23C618.26 1123.71 613.059 1122.79 614.594 1118.22C616.422 1116.88 615.558 1117.23 617.991 1117.06C620.005 1117.95 620.135 1118.35 621.555 1120.15C622.526 1124.6 622.147 1129.57 621.751 1134.1L619.735 1133.98L620.946 1128.23Z"/><path fill="#9B7FD4" d="M621.555 1120.15C622.526 1124.6 622.147 1129.57 621.751 1134.1L619.735 1133.98L620.946 1128.23C621.681 1126.68 621.529 1122.1 621.555 1120.15Z"/><path fill="#9B7FD4" d="M227.783 1127.6C227.617 1122.46 227.426 1119.59 232.557 1116.74L234.146 1116.74C238.094 1122.57 230.562 1123.53 229.089 1129.79L227.783 1127.6Z"/><path fill="#0E202D" d="M189.321 986.371C190.685 980.001 189.521 954.898 191.064 951.791C192.626 954.555 192.155 983.077 190.743 986.46L189.641 986.889L189.321 986.371Z"/><path fill="#0E202D" d="M461.661 214.417C465.722 213.676 474.774 213.993 478.845 214.801L479.127 215.344C475.577 216.185 471.936 215.973 468.282 215.939C462.048 215.96 456.03 217.584 452.023 217.315L451.414 216.166C455.54 214.502 457.272 214.586 461.661 214.417Z"/><path fill="#0E202D" d="M686.506 677.712C686.763 678.067 687.536 679.087 687.478 679.523C686.82 684.451 691.112 698.908 690.084 702.693C686.1 695.724 688.513 689.036 683.908 685.751L686.506 677.712Z"/><path fill="#0E202D" d="M474.177 1075.21C468.82 1071.62 459.95 1075.58 455.896 1072.5L456.198 1071.61C460.01 1070.15 471.418 1070.14 474.391 1073.08L474.65 1075.12L474.177 1075.21Z"/><path fill="#0E202D" d="M287.628 747.294L289.301 747C288.252 752.344 287.662 755.951 287.553 761.426C287.516 763.234 287.659 768.345 287.501 769.544L286.166 769.854C285.793 771.53 285.755 772.266 285.646 773.992C285.104 770.81 284.667 765.285 284.248 761.798C287.049 758.293 286.714 752.623 287.628 747.294Z"/><path fill="#0E202D" d="M347.313 1015.58L351.211 1015.74L351.39 1016.11C346.608 1018.59 329.222 1017.71 322.318 1018.17L321.555 1018.22L321.413 1017.85L321.326 1018.06L321.002 1017.36C319.904 1017.36 319.158 1017.14 318.08 1016.92C322.563 1015.94 339.735 1016.54 347.313 1015.58Z"/><path fill="#0E202D" d="M502.967 144.034C502.498 141.815 502.377 140.894 502.259 138.629L502.994 138.076C504.688 142.097 504.794 148.365 503.869 152.604C503.465 154.808 503.309 156.268 502.289 158.306C502.065 153.726 502.658 151.155 499.767 147.472L499.405 146.723L502.967 144.034Z"/><path fill="#0E202D" d="M502.967 144.034C502.498 141.815 502.377 140.894 502.259 138.629L502.994 138.076C504.688 142.097 504.794 148.365 503.869 152.604C503.837 149.93 504.078 146.315 502.967 144.034Z"/><path fill="#2A9D8F" d="M200.993 670.371C203.575 671.486 210.334 674.056 211.878 676.1L210.793 677.182L205.634 679.996C204.054 677.322 201.362 673.266 200.993 670.371Z"/><path fill="#0E202D" d="M489.028 118.183C489.894 118.061 492.375 118.98 493.299 119.297C491.13 119.951 469.987 119.845 466.39 119.864C464.619 119.81 463.771 119.697 462.016 119.418C462.756 118.834 462.398 118.953 462.989 118.84L462.183 119.063L463.26 119.258L463.645 118.743C471.827 118.019 480.597 118.511 489.028 118.183Z"/><path fill="#0E202D" d="M622.76 1079.87C623.508 1082.1 623.665 1090.49 623.913 1093.56C624.251 1097.74 626.978 1107.99 625.491 1111.16C625.395 1110.98 625.298 1110.8 625.202 1110.62C624.208 1102.36 620.072 1087.44 622.76 1079.87Z"/><path fill="#0E202D" d="M652.03 1001.32L651.098 1000.85C649.19 1003.65 650.785 1004.46 649.308 1007.96L648.326 1007.85C648.07 1002.56 648.112 998.14 648.219 992.85L649.01 992.325C650.198 993.277 650.854 996.222 651.323 997.845L652.03 1001.32Z"/><path fill="#0E202D" d="M765.492 524.483L767.767 526.318C767.772 533.032 766.925 532.187 772.835 534.442L772.758 535.21C768.412 535.439 768.33 534.875 767.084 539.111C766.42 536.069 764.585 527.138 765.492 524.483Z"/><path fill="#0E202D" d="M627.666 1247.93C631.528 1248.01 644.399 1247.97 647.541 1249.01C647.99 1250.16 647.92 1249.54 647.321 1250.95C640.14 1249.84 633.076 1250 626.007 1248.72L627.666 1247.93Z"/><path fill="#0E202D" d="M765.867 942.555L767.245 943.14C768.555 946.607 767.581 963.191 767.405 967.876C766.246 965.716 765.91 946.167 765.867 942.555Z"/><path fill="#0E202D" d="M530.622 737.834C528.688 735.589 527.109 725.173 527.883 722.289L528.738 721.851C528.977 726.325 529.301 727.998 531.843 731.749L532.223 732.304L530.622 737.834Z"/><path fill="#0E202D" d="M67.4161 519.305C65.3563 513.345 62.3466 515.041 64.7841 505.638C67.1323 509.226 63.7445 510.956 69.0185 513.393C68.5165 515.221 67.8156 517.499 67.4161 519.305Z"/><path fill="#0E202D" d="M555.627 828.822L562.811 830.24C560.604 832.007 548.733 831.606 546.021 830.326C549.638 829.923 552.103 829.645 555.627 828.822Z"/><path fill="#0E202D" d="M703.603 943.924C707.647 943.578 726.403 944.041 729.438 945.218C720.811 946.084 712.101 945.648 703.603 943.924Z"/><path fill="#0E202D" d="M635.603 698.095L641.749 696.172C639.432 702.381 636.958 702.362 630.688 701.183C632.611 700.112 633.801 699.36 635.603 698.095Z"/><path fill="#0E202D" d="M489.663 221.582C488.309 219.986 487.51 218.79 487.42 216.831L488.491 215.784C491.068 215.309 492.796 216.107 494.377 218.156C492.736 219.458 491.488 220.517 489.663 221.582Z"/><path fill="#0E202D" d="M314.147 172.166C309.415 167.85 307.529 171.125 304.365 168.894L305.293 168.359C311.105 168.282 314.497 167.401 319.115 170.556L314.147 172.166Z"/><path fill="#0E202D" d="M524.604 170.928C528.539 167.601 530.607 168.341 535.959 168.655L536.254 169.137C532.611 171.228 531.564 170.284 528.23 171.998L524.604 170.928Z"/><path fill="#0E202D" d="M545.349 178.448C546.039 177.385 545.971 176.92 547.268 176.741C550.353 176.316 556.364 175.528 558.796 177.801L559.019 179.336L558.317 179.697C554.866 176.504 551.284 177.375 547.402 179.359L545.349 178.448Z"/><path fill="#0E202D" d="M685.377 629.578C689.975 631.309 691.059 629.898 695.459 627.915C695.384 633.807 686.391 632.906 684.863 630.286L685.377 629.578Z"/><path fill="#9B7FD4" d="M227.783 1127.6L229.089 1129.79C229.576 1133.52 231.24 1134.79 231.832 1138.07C230.587 1138.95 230.609 1139.08 229.043 1139.06C227.978 1136.77 227.921 1130.36 227.783 1127.6Z"/><path fill="#0E202D" d="M198.786 991.636C201.308 994.258 199.602 1003.81 199.214 1007.48L198.376 1006.56C197.904 1003.13 198.053 995.017 198.786 991.636Z"/><path fill="#0E202D" d="M757.849 895.242C760.847 894.928 765.632 893.95 768.042 895.615L768.17 897.775C765.453 897.512 759.855 897.215 757.596 896.223L757.849 895.242Z"/><path fill="#0E202D" d="M349.042 702.042L350.243 701.878C351.098 702.449 350.783 702.061 351.154 703.068C348.76 703.931 344.413 703.735 341.682 703.759C340.578 703.766 336.816 703.78 336.25 703.031C340.021 702.237 345.099 702.205 349.042 702.042Z"/><path fill="#0E202D" d="M503.545 702.654C507.361 702.538 518.666 701.52 521.075 703.476C517.612 703.841 506.003 704.63 503.545 702.654Z"/><path fill="#0E202D" d="M631.384 661.796C634.775 661.513 638.549 660.768 641.372 662.575L641.775 663.658C638.579 664.066 635.67 664.632 632.648 663.352L631.384 661.796Z"/><path fill="#0E202D" d="M317.297 1239.58C320.524 1239.08 332.601 1239.8 335.47 1241.16L334.938 1241.56C327.682 1240.7 323.745 1242.13 317.297 1239.58Z"/><path fill="#9B7FD4" d="M211.424 1166.84C212.7 1167.75 213.167 1167.93 213.821 1169.37C212.622 1171.44 210.708 1171.83 208.203 1173.09L206.735 1173.1C206.766 1172.1 210.511 1167.95 211.424 1166.84Z"/><path fill="#9B7FD4" d="M637.901 1166.74C639.773 1167.8 641.496 1170.13 642.79 1171.84L642.31 1172.72C639.844 1171.95 636.729 1171.67 636.243 1169.03L637.901 1166.74Z"/><path fill="#0E202D" d="M227.263 680.323C231.279 680.123 235.505 680.298 239.426 681.222L239.109 681.796L236.979 681.853C233.11 681.52 227.852 681.61 223.797 681.488L223.722 681.062L227.263 680.323Z"/><path fill="#0E202D" d="M582.412 708.072C585.911 709.256 586.114 712.854 586.344 715.987C582.19 715.06 582.476 711.447 582.412 708.072Z"/><path fill="#0E202D" d="M430.595 129.119C431.572 131.272 432.534 134.485 431.865 136.825L430.892 136.909C429.218 135.477 428.954 134.019 428.199 131.912L430.595 129.119Z"/><path fill="#0E202D" d="M262.995 1008.2C269.38 1007.7 276.878 1007.87 283.373 1007.86C280.792 1008.94 277.4 1009.52 274.62 1010.11L273.528 1009.4C274.86 1009.13 274.53 1009.34 275.633 1008.67C272.025 1008.17 265.462 1008.7 261.609 1008.89L261.238 1008.49L262.995 1008.2Z"/><path fill="#0E202D" d="M215.971 660.76L217.772 661.913C215.426 663.969 207.233 663.771 204.152 663.75C208.809 662.143 211.078 661.266 215.971 660.76Z"/><path fill="#0E202D" d="M161.541 636.726C161.502 636.359 161.601 636.002 161.665 635.613L162.318 637.934C165.03 640.226 167.593 637.228 172.066 637.634L171.5 638.701C168.587 640.527 164.209 640.918 161.515 638.484L161.541 636.726Z"/><path fill="#0E202D" d="M610.457 1000.73C614.384 1000.19 621.105 1000.29 624.945 1001.23L624.273 1001.34C618.577 1000.43 618.839 1003.19 610.457 1000.73Z"/><path fill="#0E202D" d="M250.946 203.038C248.751 201.735 244.581 201.671 241.505 201.034C243.098 200.592 249.205 199.597 250.695 200.363C251.594 200.825 251.421 201.231 251.738 202.426L250.946 203.038Z"/><path fill="#0E202D" d="M668.167 645.763C669.761 645.488 670.56 645.496 671.545 646.658C669.838 648.151 669.399 647.686 666.704 647.809C664.926 647.849 664.121 648.159 662.726 647.385C664.468 646.023 665.94 646.069 668.167 645.763Z"/><path fill="#0E202D" d="M88.9689 562.687C90.57 564.795 90.0602 571.979 89.9066 574.721C88.0797 572.489 87.763 565.36 88.9689 562.687Z"/><path fill="#0E202D" d="M693.842 315.546C693.945 312.211 693.97 308.874 693.917 305.537C694.248 305.343 694.616 305.066 694.947 305.013C695.998 307.532 695.661 311.452 695.1 314.077L693.842 315.546Z"/><path fill="#0E202D" d="M224.814 1075.46L225.703 1076.28C226.142 1079.86 225.89 1084.6 225.809 1088.3C223.645 1085.22 224.542 1079.42 224.814 1075.46Z"/><path fill="#9B7FD4" d="M619.735 1133.98L621.751 1134.1L621.49 1137.6C620.214 1139.07 621.011 1138.6 618.928 1138.87L618.144 1138.03C617.774 1135.99 618.253 1136.14 619.735 1133.98Z"/><path fill="#0E202D" d="M760.974 560.142C761.696 561.429 762.223 571.473 761.368 572.893L760.641 573.015C759.821 569.506 760.338 563.716 760.974 560.142Z"/><path fill="#0E202D" d="M577.056 194.063C578.641 192.507 581.622 191.625 583.746 192.351L583.941 193.324C582.902 194.263 581.852 195.191 580.792 196.106L577.056 194.063Z"/><path fill="#0E202D" d="M128.908 344.12C130.82 345.973 130.514 352.177 130.668 355.326C127.829 354.012 128.776 346.953 128.908 344.12Z"/><path fill="#0E202D" d="M486.228 201.278C487.71 202.927 488.317 205.484 487.305 207.513L486.205 207.802C485.359 207.229 484.594 206.783 483.906 206.027C484.706 204.634 485.523 202.762 486.228 201.278Z"/><path fill="#0E202D" d="M564.459 184.196C567.848 184.38 571.464 184.428 574.717 185.309L574.431 185.737C572.194 185.842 565.482 186.563 563.922 185.511L564.459 184.196Z"/><path fill="#0E202D" d="M138.523 612.015L139.914 613.422L138.751 616.192C137.047 616.67 137.727 616.617 135.861 615.971C135.224 614.422 135.288 615.208 135.748 613.53L138.523 612.015Z"/><path fill="#0E202D" d="M749.824 999.132C752.572 1001.87 751.675 1004.05 751.099 1007.71C749.628 1006.4 749.684 1001.83 749.329 999.814L749.824 999.132Z"/><path fill="#0E202D" d="M743.012 360.713C746.488 360.333 750.418 360.389 753.911 360.555L753.876 360.938L749.645 361.682L751.372 362.339L751.377 362.728C748.588 362.409 745.163 362.346 743.012 360.713Z"/><path fill="#0E202D" d="M287.314 176.864C289.907 176.539 295.049 175.617 297.198 177.166L297.374 178.31C294.112 177.905 288.949 178.34 287.314 176.864Z"/><path fill="#0E202D" d="M200.623 653.734L200.428 654.556C198.251 656.337 194.786 656.02 192.754 654.079L199.982 653.394L200.623 653.734Z"/><path fill="#0E202D" d="M148.91 85.9246C150.2 85.4914 154.273 86.1661 155.345 87.1454C154.237 87.9135 151.261 87.7965 149.736 87.8564C147.855 87.8017 147.138 87.8788 145.373 87.3163C146.732 87.148 148.089 86.9694 149.445 86.7803L148.91 85.9246Z"/><path fill="#0E202D" d="M710.511 335.588C712.527 338.062 711.579 343.502 711.302 346.895L710.402 345.912C710.149 342.145 710.318 339.323 710.511 335.588Z"/><path fill="#0E202D" d="M264.232 693.402L265.872 694.121L266.269 695.305C265.4 697.212 264.786 697.353 262.9 698.522L262.082 697.962C261.975 696.143 263.126 694.997 264.232 693.402Z"/><path fill="#0E202D" d="M79.5842 522.093C81.0963 523.739 80.8285 526.816 80.8208 529.014C78.6528 527.866 78.8335 528.41 78.1083 526.646C78.9066 524.926 79.0654 524.432 79.482 522.566L79.5842 522.093Z"/><path fill="#C49A30" d="M244.717 830.066C243.471 829.616 243.519 829.58 242.481 828.728C243.14 826.894 244.137 826.783 246.117 825.543L247.603 827.403L244.717 830.066Z"/><path fill="#0E202D" d="M418.907 116.04L416.854 113.687L416.98 112.503L418.131 111.993C420.217 112.32 420.645 112.307 422.121 113.769L418.907 116.04Z"/><path fill="#0E202D" d="M438.512 119.034C440.238 121.121 439.41 125.878 439.119 128.464L438.116 127.504C437.604 125.286 438.243 121.448 438.512 119.034Z"/><path fill="#0E202D" d="M701.377 320.024C703.966 322.037 703.443 326.871 703.294 329.871C702.043 327.429 701.588 322.754 701.377 320.024Z"/><path fill="#0E202D" d="M424.866 104.596C427.237 104.146 429.625 103.697 431.56 105.244C429.1 105.571 427.399 105.748 424.914 105.851L424.866 104.596Z"/><path fill="#0E202D" d="M272.257 706.345L273.331 706.791C274.752 708.846 274.379 709.163 274.65 711.831L272.878 711.383C271.644 709.489 272.129 708.964 272.257 706.345Z"/><path fill="#0E202D" d="M287.628 747.294C287.91 745.017 287.876 743.131 289.204 741.345L289.778 741.86C289.904 744.196 289.79 744.697 289.301 747L287.628 747.294Z"/><path fill="#0E202D" d="M475.718 187.244C477.519 184.571 476.665 185.079 479.089 184.065L479.901 184.512C479.641 186.508 479.628 185.959 477.987 187.768L475.718 187.244Z"/><path fill="#0E202D" d="M764.819 479.91C765.353 480.18 766.116 480.75 766.635 481.107C767.642 483.183 767.176 485.144 766.965 487.527C765.626 484.212 765.388 483.433 764.819 479.91Z"/><path fill="#0E202D" d="M177.77 645.147C179.913 645.086 181.372 644.711 182.649 645.88L181.981 647.247C180.009 647.042 177.801 647.191 176.781 646L177.77 645.147Z"/><path fill="#0E202D" d="M572.418 671.834C569.734 671.662 568.998 671.644 566.331 670.797L566.385 670.176C568.688 669.929 569.772 670.044 572.023 670.218L572.418 671.834Z"/><path fill="#0E202D" d="M484.445 194.345C484.102 193.568 484.366 192.658 485.07 192.184C485.775 191.711 486.718 191.811 487.307 192.421C487.897 193.032 487.964 193.977 487.466 194.665C486.969 195.353 486.05 195.585 485.285 195.215C484.911 195.034 484.613 194.726 484.445 194.345Z"/><path fill="#0E202D" d="M488.231 176.175C491.218 177.266 490.967 177.345 491.001 180.757C488.53 179.958 489.12 180.557 488.082 178.725L488.231 176.175Z"/><path fill="#0E202D" d="M733.822 400.236L734.811 401.083C735.584 403.686 735.085 405.927 734.748 408.628C733.597 407.486 733.85 402.103 733.822 400.236Z"/><path fill="#0E202D" d="M672.548 1188.38C673.106 1188.05 673.806 1188.05 674.357 1188.4C674.909 1188.75 675.219 1189.37 675.158 1190.02C675.097 1190.67 674.676 1191.23 674.07 1191.47C673.235 1191.8 672.288 1191.43 671.891 1190.63C671.495 1189.82 671.78 1188.85 672.548 1188.38Z"/><path fill="#0E202D" d="M654.183 653.648C655.143 653.748 655.018 653.822 655.94 654.265C655.413 655.69 654.922 655.58 653.292 656.629L651.043 655.168L651.039 654.497L654.183 653.648Z"/><path fill="#0E202D" d="M742.304 423.103L743.305 423.964C744.192 426.141 743.707 428.249 743.414 430.58C742.076 428.397 742.211 425.55 742.304 423.103Z"/><path fill="#0E202D" d="M228.668 218.678C226.762 217.955 225.743 217.97 224.813 216.52L226.014 216.072C228.67 216.493 227.648 216.078 229.876 217.844L228.668 218.678Z"/><path fill="#0E202D" d="M256.499 192.896C259.12 192.442 261.568 191.94 263.869 193.288C261.069 193.924 259.056 194.226 256.499 192.896Z"/><path fill="#0E202D" d="M736.369 368.244C737.997 370.354 737.466 373.269 737.349 376.018C735.738 374.222 736.29 370.786 736.369 368.244Z"/><path fill="#0E202D" d="M521.055 150.345C523.666 150.458 524.261 150.418 526.704 151.524C524.511 151.785 523.257 152.108 521.117 151.535L521.055 150.345Z"/><path fill="#0E202D" d="M594.926 200.729C596.536 200.455 597.608 200.06 599.061 200.718L598.97 201.906C597.478 202.517 596.203 201.419 594.926 200.729Z"/><path fill="#0E202D" d="M645.489 239.82C647.729 241.075 647.122 241.933 646.801 244.054C644.808 242.987 645.34 241.657 645.489 239.82Z"/><path fill="#0E202D" d="M241.116 102.257L242.883 101.882L242.899 102.882L240.979 103.144L241.116 102.257Z"/></svg>