<?xml version="1.0" encoding="utf-8" ?><svg style="width:100%;height:100%" xmlns="http://www.w3.org/2000/svg" xmlns:xlink="http://www.w3.org/1999/xlink" width="512" height="512" viewBox="0 0 512 512"><path fill="#00B300" d="M224.52 0L232.727 0C234.883 1.01944 238.092 1.35905 240.705 2.57311C249.296 6.56501 255.186 14.925 258.822 23.4253C266.918 42.768 265.277 67.9106 258.422 87.4401C268.917 88.0396 279.76 90.1236 290.271 91.0033C291.834 91.1342 293.804 91.2434 295.304 91.491C297.434 69.288 307.233 45.5428 324.496 30.8425C331.29 25.0568 341.701 20.535 350.806 21.6033C363.367 23.0771 370.761 31.1934 376.181 42.0089C378.893 41.3828 393.443 37.7737 395.265 37.872L395.463 38.0699C395.346 38.2178 395.23 38.3657 395.114 38.5136C389.782 39.9773 381.727 41.7165 376.557 42.9395C377.761 45.5228 379.232 49.2402 379.656 52.0774C382.158 51.8772 397.758 50.4888 398.91 51.084C398.214 52.0642 396.571 52.0536 395.443 52.0569C390.478 52.0713 384.808 53.0715 379.924 53.0188C383.618 66.8843 382.061 87.5511 377.878 101.161L398.883 103.616C416.34 105.71 420.934 105.016 431.717 119.986C434.728 123.712 437.707 127.464 440.654 131.241C448.434 141.152 453.307 149.325 451.61 162.53C450.556 170.733 448.27 180.469 446.638 188.735L436.122 241.571C436.057 242.134 435.841 242.937 436.379 243.364C446.32 251.255 456.777 258.756 466.062 267.458C483.091 283.419 507.084 314.299 482.98 334.808C468.306 347.293 447.856 347.572 429.56 347.043C426.194 346.952 417.781 346.038 415.259 346.23C415.19 348.275 412.97 358.277 412.37 360.912C410.888 367.431 409.835 376.811 407.33 382.686C405.713 386.544 403.299 390.016 400.245 392.874C395.286 397.546 385.328 402.566 379.314 406.343C375.17 408.946 370.007 412.33 365.558 414.258C362.476 415.594 359.738 415.619 356.776 415.671C351.781 415.76 315.168 410.289 313.547 410.715L313.586 410.129L312.66 409.445C304.718 408.169 292.901 406.75 284.934 406.14L284.431 406.783C283.606 406.904 276.793 405.96 275.537 405.803L252.366 402.872C230.637 400.067 208.831 397.443 187.084 394.767C186.482 394.693 186.345 394.612 185.816 394.359C185.658 394.092 184.966 393.688 184.659 393.481C182.465 392.653 162.88 390.666 159.651 390.379L158.553 390.671C158.368 391.169 158.366 390.98 158.416 391.467C156.859 390.247 94.4138 383.974 88.2891 381.855C80.4291 379.136 75.5554 375.217 71.2612 367.423C69.0512 363.412 68.193 358.39 68.4535 353.91C68.6973 349.717 69.5717 345.312 70.328 341.19L73.1632 325.784L82.021 277.196L86.5444 251.993C87.102 248.878 88.1469 242.08 89.0056 239.341C88.9312 238.925 89.0157 239.12 88.7285 238.765C87.5037 239.155 86.5556 239.771 85.3652 240.266C67.5296 247.69 38.4715 257.872 24.2579 239.047C15.1175 226.942 19.2678 208.091 24.6407 195.046C30.8409 179.993 40.7718 162.461 50.911 149.569C46.0218 146.056 36.4949 140.092 43.7313 132.976C45.595 131.143 47.6095 132.099 49.1967 131.634C48.8711 129.476 45.8652 124.99 45.5439 120.872C44.9906 113.783 46.4055 107.759 51.1267 102.275C59.5529 92.4876 67.3445 88.5157 79.8443 87.223C82.1661 84.9771 87.2331 78.575 89.5416 75.7985L106.474 55.4915C109.176 52.2157 112.964 46.8062 116.491 44.4789C120.107 42.0933 126.404 42.7949 129.806 45.6107C139.999 54.0481 150.346 62.6126 160.293 71.3573C161.754 72.6402 162.955 74.5407 163.867 76.1996C167.147 76.9814 174.883 77.5443 178.509 77.9034C178.345 58.595 183.771 39.6515 194.133 23.3583C191.095 22.3042 178.287 15.9341 175.97 13.847C178.349 14.4812 191.674 21.1425 194.603 22.6628C196.132 20.0913 198.354 17.3815 200.427 15.2317C198.027 13.2508 189.449 6.26714 188.177 4.15439L188.349 4.0534C191.762 6.09954 197.49 11.6317 201.047 14.4839C205.636 8.94246 211.576 4.67888 218.295 2.10555C220.175 1.37412 222.84 0.875667 224.52 0ZM104.1 157.006C96.9817 160.237 92.1327 158.124 86.9552 152.977L87.4961 152.677L87.6203 152.149L91.3021 143.915C95.4856 148.853 99.9538 150.863 105.905 147.051L106.626 147.236L112.75 113.843C113.844 107.824 115.396 96.6155 117.698 91.4891C119.718 86.9707 122.941 83.0944 127.015 80.284C130.883 77.6388 135.328 75.9564 139.979 75.3771C145.647 74.6906 157.189 76.4916 163.201 77.135C167.136 77.5562 174.308 78.3178 177.905 79.0065C178.107 79.0449 178.31 79.0854 178.512 79.128C178.976 94.0395 182.576 111.776 193.789 122.354C206.91 134.733 221.29 132.177 234.866 122.69C240.016 136.771 234.599 152.457 220.337 158.569C218.541 159.339 212.329 160.516 211.36 161.465C213.599 162.258 219.954 159.947 222.181 158.872C225.819 157.142 229.017 154.608 231.531 151.46C237.048 159.341 250.079 164.558 259.215 165.988C271.483 167.908 282.041 167.462 292.896 161.257C296.057 167.462 299.295 171.749 305.823 175.274C306.038 175.39 306.298 175.42 306.542 175.461L306.853 175.207C306.615 174.454 301.049 170.893 299.609 169.392C291.233 160.663 289.663 148.029 295.122 137.538C296.561 134.793 298.379 132.263 300.523 130.024C302.857 134.878 304.815 138.332 308.611 142.208C318.027 151.823 331.214 153.681 343.179 147.672C360.043 139.204 370.846 121.244 376.769 103.927C377.001 103.249 377.228 102.569 377.45 101.888L377.734 101.952C380.155 102.48 383.768 102.82 386.356 103.131L401.657 104.898C411.899 106.057 420.962 106.475 427.314 116.221C429.904 120.281 431.18 125.04 430.97 129.851C430.746 134.528 428.51 144.316 427.484 149.44L420.837 182.896L406.44 255.577C403.856 268.64 401.35 282.04 398.595 295.055L399.453 296.026C399.239 297.318 400.776 298.953 401.395 300.187C404.004 305.386 404.839 310.361 404.092 316.126C409.423 314.253 417.055 311.825 416.759 320.74C416.397 322.14 416.656 323.603 416.273 324.275L416.013 324.105C415.608 329.96 414.385 342.918 412.757 348.361C414.396 348.981 414.679 347.469 415.259 346.23C417.781 346.038 426.194 346.952 429.56 347.043C447.856 347.572 468.306 347.293 482.98 334.808C507.084 314.299 483.091 283.419 466.062 267.458C456.777 258.756 446.32 251.255 436.379 243.364C435.841 242.937 436.057 242.134 436.122 241.571L446.638 188.735C448.27 180.469 450.556 170.733 451.61 162.53C453.307 149.325 448.434 141.152 440.654 131.241C437.707 127.464 434.728 123.712 431.717 119.986C420.934 105.016 416.34 105.71 398.883 103.616L377.878 101.161C382.061 87.5511 383.618 66.8843 379.924 53.0188C384.808 53.0715 390.478 52.0713 395.443 52.0569C396.571 52.0536 398.214 52.0642 398.91 51.084C397.758 50.4888 382.158 51.8772 379.656 52.0774C379.232 49.2402 377.761 45.5228 376.557 42.9395C381.727 41.7165 389.782 39.9773 395.114 38.5136C395.23 38.3657 395.346 38.2178 395.463 38.0699L395.265 37.872C393.443 37.7737 378.893 41.3828 376.181 42.0089C370.761 31.1934 363.367 23.0771 350.806 21.6033C341.701 20.535 331.29 25.0568 324.496 30.8425C307.233 45.5428 297.434 69.288 295.304 91.491C293.804 91.2434 291.834 91.1342 290.271 91.0033C279.76 90.1236 268.917 88.0396 258.422 87.4401C265.277 67.9106 266.918 42.768 258.822 23.4253C255.186 14.925 249.296 6.56501 240.705 2.57311C238.092 1.35905 234.883 1.01944 232.727 0L224.52 0C222.84 0.875667 220.175 1.37412 218.295 2.10555C211.576 4.67888 205.636 8.94246 201.047 14.4839C197.49 11.6317 191.762 6.09954 188.349 4.0534L188.177 4.15439C189.449 6.26714 198.027 13.2508 200.427 15.2317C198.354 17.3815 196.132 20.0913 194.603 22.6628C191.674 21.1425 178.349 14.4812 175.97 13.847C178.287 15.9341 191.095 22.3042 194.133 23.3583C183.771 39.6515 178.345 58.595 178.509 77.9034C174.883 77.5443 167.147 76.9814 163.867 76.1996C162.955 74.5407 161.754 72.6402 160.293 71.3573C150.346 62.6126 139.999 54.0481 129.806 45.6107C126.404 42.7949 120.107 42.0933 116.491 44.4789C112.964 46.8062 109.176 52.2157 106.474 55.4915L89.5416 75.7985C87.2331 78.575 82.1661 84.9771 79.8443 87.223C67.3445 88.5157 59.5529 92.4876 51.1267 102.275C46.4055 107.759 44.9906 113.783 45.5439 120.872C45.8652 124.99 48.8711 129.476 49.1967 131.634C47.6095 132.099 45.595 131.143 43.7313 132.976C36.4949 140.092 46.0218 146.056 50.911 149.569C40.7718 162.461 30.8409 179.993 24.6407 195.046C19.2678 208.091 15.1175 226.942 24.2579 239.047C38.4715 257.872 67.5296 247.69 85.3652 240.266C86.5556 239.771 87.5037 239.155 88.7285 238.765C89.0157 239.12 88.9312 238.925 89.0056 239.341L89.0436 239.345C89.5091 238.993 89.7195 238.477 90.0391 237.937C90.1478 236.685 91.0475 232.565 91.3137 231.107L94.1313 215.606C93.9969 214.956 93.8381 214.663 93.5764 214.055C93.7536 211.945 94.7637 207.079 95.1938 204.697L98.8542 184.803L101.955 167.358C102.456 164.537 103.21 159.539 104.1 157.006Z"/><path fill="#010101" d="M224.52 0L232.727 0C234.883 1.01944 238.092 1.35905 240.705 2.57311C249.296 6.56501 255.186 14.925 258.822 23.4253C266.918 42.768 265.277 67.9106 258.422 87.4401C268.917 88.0396 279.76 90.1236 290.271 91.0033C291.834 91.1342 293.804 91.2434 295.304 91.491C297.434 69.288 307.233 45.5428 324.496 30.8425C331.29 25.0568 341.701 20.535 350.806 21.6033C363.367 23.0771 370.761 31.1934 376.181 42.0089C378.893 41.3828 393.443 37.7737 395.265 37.872L395.463 38.0699C395.346 38.2178 395.23 38.3657 395.114 38.5136C389.782 39.9773 381.727 41.7165 376.557 42.9395C377.761 45.5228 379.232 49.2402 379.656 52.0774C382.158 51.8772 397.758 50.4888 398.91 51.084C398.214 52.0642 396.571 52.0536 395.443 52.0569C390.478 52.0713 384.808 53.0715 379.924 53.0188C383.618 66.8843 382.061 87.5511 377.878 101.161L398.883 103.616C416.34 105.71 420.934 105.016 431.717 119.986C434.728 123.712 437.707 127.464 440.654 131.241C448.434 141.152 453.307 149.325 451.61 162.53C450.556 170.733 448.27 180.469 446.638 188.735L436.122 241.571C436.057 242.134 435.841 242.937 436.379 243.364C446.32 251.255 456.777 258.756 466.062 267.458C483.091 283.419 507.084 314.299 482.98 334.808C468.306 347.293 447.856 347.572 429.56 347.043C426.194 346.952 417.781 346.038 415.259 346.23C414.679 347.469 414.396 348.981 412.757 348.361C414.385 342.918 415.608 329.96 416.013 324.105L416.273 324.275C416.656 323.603 416.397 322.14 416.759 320.74C417.055 311.825 409.423 314.253 404.092 316.126C404.839 310.361 404.004 305.386 401.395 300.187C400.776 298.953 399.239 297.318 399.453 296.026L398.595 295.055C401.35 282.04 403.856 268.64 406.44 255.577L420.837 182.896L427.484 149.44C428.51 144.316 430.746 134.528 430.97 129.851C431.18 125.04 429.904 120.281 427.314 116.221C420.962 106.475 411.899 106.057 401.657 104.898L386.356 103.131C383.768 102.82 380.155 102.48 377.734 101.952L377.45 101.888C377.228 102.569 377.001 103.249 376.769 103.927C370.846 121.244 360.043 139.204 343.179 147.672C331.214 153.681 318.027 151.823 308.611 142.208C304.815 138.332 302.857 134.878 300.523 130.024C298.379 132.263 296.561 134.793 295.122 137.538C289.663 148.029 291.233 160.663 299.609 169.392C301.049 170.893 306.615 174.454 306.853 175.207L306.542 175.461C306.298 175.42 306.038 175.39 305.823 175.274C299.295 171.749 296.057 167.462 292.896 161.257C282.041 167.462 271.483 167.908 259.215 165.988C250.079 164.558 237.048 159.341 231.531 151.46C229.017 154.608 225.819 157.142 222.181 158.872C219.954 159.947 213.599 162.258 211.36 161.465C212.329 160.516 218.541 159.339 220.337 158.569C234.599 152.457 240.016 136.771 234.866 122.69C221.29 132.177 206.91 134.733 193.789 122.354C182.576 111.776 178.976 94.0395 178.512 79.128C178.31 79.0854 178.107 79.0449 177.905 79.0065C174.308 78.3178 167.136 77.5562 163.201 77.135C157.189 76.4916 145.647 74.6906 139.979 75.3771C135.328 75.9564 130.883 77.6388 127.015 80.284C122.941 83.0944 119.718 86.9707 117.698 91.4891C115.396 96.6155 113.844 107.824 112.75 113.843L106.626 147.236L105.905 147.051C99.9538 150.863 95.4856 148.853 91.3021 143.915L87.6203 152.149L87.4961 152.677L86.9552 152.977C86.5501 154.21 86.1303 155.319 86.2734 156.634C86.8213 161.669 84.0389 166.77 78.4874 166.814C73.6777 166.853 68.9812 163.528 65.5224 160.477L65.3357 160.818C63.1344 164.793 59.8701 168.732 57.3841 172.629C49.2053 185.449 41.6109 198.392 38.3247 213.393C35.4505 226.513 37.658 233.214 52.4762 230.828C63.4646 229.058 73.2475 225.412 83.4095 220.872C86.3931 219.554 89.7422 217.781 92.7595 216.693L93.5764 214.055C93.8381 214.663 93.9969 214.956 94.1313 215.606L91.3137 231.107C91.0475 232.565 90.1478 236.685 90.0391 237.937C89.7195 238.477 89.5091 238.993 89.0436 239.345L89.0056 239.341C88.9312 238.925 89.0157 239.12 88.7285 238.765C87.5037 239.155 86.5556 239.771 85.3652 240.266C67.5296 247.69 38.4715 257.872 24.2579 239.047C15.1175 226.942 19.2678 208.091 24.6407 195.046C30.8409 179.993 40.7718 162.461 50.911 149.569C46.0218 146.056 36.4949 140.092 43.7313 132.976C45.595 131.143 47.6095 132.099 49.1967 131.634C48.8711 129.476 45.8652 124.99 45.5439 120.872C44.9906 113.783 46.4055 107.759 51.1267 102.275C59.5529 92.4876 67.3445 88.5157 79.8443 87.223C82.1661 84.9771 87.2331 78.575 89.5416 75.7985L106.474 55.4915C109.176 52.2157 112.964 46.8062 116.491 44.4789C120.107 42.0933 126.404 42.7949 129.806 45.6107C139.999 54.0481 150.346 62.6126 160.293 71.3573C161.754 72.6402 162.955 74.5407 163.867 76.1996C167.147 76.9814 174.883 77.5443 178.509 77.9034C178.345 58.595 183.771 39.6515 194.133 23.3583C191.095 22.3042 178.287 15.9341 175.97 13.847C178.349 14.4812 191.674 21.1425 194.603 22.6628C196.132 20.0913 198.354 17.3815 200.427 15.2317C198.027 13.2508 189.449 6.26714 188.177 4.15439L188.349 4.0534C191.762 6.09954 197.49 11.6317 201.047 14.4839C205.636 8.94246 211.576 4.67888 218.295 2.10555C220.175 1.37412 222.84 0.875667 224.52 0ZM419.05 326.828C423.764 328.042 442.519 328.093 448.016 327.596C506.84 322.277 447.887 276.83 431.691 263.996L422.678 309.047C422.214 311.397 419.72 325.361 419.05 326.828ZM432.103 130.185C432.713 129.229 432.012 124.621 432.56 123.442C433.282 124.195 433.527 124.463 434.437 124.952C433.793 123.907 432.213 121.693 431.187 121.171L430.871 121.492C431.906 124.02 432.041 127.451 432.103 130.185Z"/><path fill="#0C9F03" fill-opacity="0.98823529" d="M430.871 121.492L431.187 121.171C432.213 121.693 433.793 123.907 434.437 124.952C433.527 124.463 433.282 124.195 432.56 123.442C432.012 124.621 432.713 129.229 432.103 130.185C432.041 127.451 431.906 124.02 430.871 121.492Z"/><path fill="#00B300" d="M431.717 119.986C434.728 123.712 437.707 127.464 440.654 131.241C448.434 141.152 453.307 149.325 451.61 162.53C450.556 170.733 448.27 180.469 446.638 188.735L436.122 241.571L435.469 241.316L435.077 242.023C434.394 242.09 432.09 240.18 431.268 239.592C425.381 235.33 419.294 231.351 413.029 227.667L425.214 166.349L429.356 145.543C430.371 140.443 431.496 135.348 432.103 130.185C432.713 129.229 432.012 124.621 432.56 123.442C433.282 124.195 433.527 124.463 434.437 124.952C433.793 123.907 432.213 121.693 431.187 121.171L430.871 121.492C430.353 121.268 430.58 121.445 430.231 120.914L430.492 120.539C431.066 120.4 431.234 120.325 431.717 119.986Z"/><path fill="#000900" d="M431.717 119.986C434.728 123.712 437.707 127.464 440.654 131.241C448.434 141.152 453.307 149.325 451.61 162.53C450.556 170.733 448.27 180.469 446.638 188.735L436.122 241.571L435.469 241.316C435.47 239.979 438.234 227.086 438.671 224.901L446.848 183.764C448.322 176.354 450.598 166.708 451.041 159.486C451.714 148.538 446.657 139.669 439.766 131.702C438.015 129.677 436.468 127.149 434.437 124.952C433.793 123.907 432.213 121.693 431.187 121.171L430.871 121.492C430.353 121.268 430.58 121.445 430.231 120.914L430.492 120.539C431.066 120.4 431.234 120.325 431.717 119.986Z"/><path fill="#00B300" d="M409.142 247.697C410.671 249.076 415.787 252.362 417.752 253.724C422.234 256.874 426.645 260.124 430.981 263.472L431.691 263.996L422.678 309.047C422.214 311.397 419.72 325.361 419.05 326.828L418.809 326.672L418.09 326.884L417.465 326.907C416.553 325.872 417.112 322.513 416.759 320.74C417.055 311.825 409.423 314.253 404.092 316.126C404.839 310.361 404.004 305.386 401.395 300.187C400.776 298.953 399.239 297.318 399.453 296.026C400.499 292.588 401.622 285.261 402.423 281.496C404.795 270.353 406.666 258.813 409.142 247.697Z"/><path fill="#000900" d="M430.981 263.472L431.691 263.996L422.678 309.047C422.214 311.397 419.72 325.361 419.05 326.828L418.809 326.672L418.09 326.884C418.925 324.82 421.09 313.134 421.625 310.456L427.768 279.67C428.736 274.766 429.815 268.208 430.981 263.472Z"/><path fill="#FEFEFE" d="M226.926 1.09829C227.925 0.923102 230.166 0.95903 231.199 1.03707C249.29 2.40412 259.321 21.7172 261.966 37.5042C266.023 61.7241 260.673 88.0398 246.849 108.379C237.865 121.596 221.665 134.301 204.869 128.224C201.471 126.991 198.92 125.219 195.998 123.169C200.843 122.965 205.434 121.545 209.831 119.605C230.98 108.81 240.162 86.7018 243.889 64.5959C237.914 63.5422 231.72 62.6839 225.71 61.7545C221.034 61.0313 215.773 60.1068 211.121 59.7378C222.217 56.6067 233.291 53.3943 244.34 50.1011C243.74 31.0221 234.321 10.2384 214.644 4.679C219.495 2.70471 221.647 1.67741 226.926 1.09829Z"/><path fill="#FEFEFE" d="M345.77 22.6033C367.528 21.1464 378.439 42.9456 380.485 61.626C383.17 86.1377 376.211 112.601 360.77 131.97C353.367 140.956 343.41 149.002 331.418 150.074C322.164 150.901 316.474 147.585 309.66 142.015C314.008 142.654 318.333 141.564 322.465 140.293C344.975 131.437 356.03 109.416 360.965 87.1418C351.224 84.6543 338.637 81.8257 328.737 79.8022C332.899 79.231 337.94 78.0172 342.093 77.1168L362.253 72.7048C361.854 60.7789 359.93 49.8177 353.282 39.5611C349.261 33.3577 342.241 27.0312 334.818 25.4785C338.544 23.9803 341.768 22.9795 345.77 22.6033Z"/><path fill="#FEFEFE" d="M77.7623 88.601C78.2708 88.4765 77.9941 88.4986 78.5949 88.581C78.3535 90.4896 58.5213 111.298 57.3169 116.153C56.2671 120.384 56.0761 121.498 58.0149 126.085C58.4558 127.129 61.0542 131.472 61.913 131.771C63.25 131.121 64.6575 127.784 67.3767 126.487C70.5268 124.985 73.1938 124.815 76.5362 125.856L76.882 125.967C78.6425 120.55 83.0739 108.63 90.8473 111.38C92.7666 112.05 94.3337 113.468 95.193 115.31C98.585 122.582 92.4429 138.666 89.33 145.875C88.0265 148.894 86.2479 152.184 85.0821 155.279L84.9673 155.591C82.6028 153.617 76.5041 148.615 74.0064 147.287C75.3454 149.228 76.3947 150.011 78.2031 151.452C80.3089 153.229 86.5771 156.88 85.2863 160.183C82.3278 167.753 75.6036 166.895 70.0596 162.678C61.6715 156.289 53.0928 150.322 44.8212 143.779C41.5022 141.154 41.23 134.336 45.6095 132.877C50.1449 131.365 54.5975 136.697 58.5541 138.666C56.891 136.261 54.7316 135.09 52.4579 133.276C48.7558 130.257 46.9449 123.961 46.5154 119.369C45.0078 103.248 63.0379 89.6369 77.7623 88.601Z"/><path fill="#00B300" d="M258.264 88.0203C261.889 88.7949 267.62 89.3328 271.368 89.7725C279.35 90.7091 287.193 91.5246 295.166 92.6032C294.621 107.374 294.954 114.939 300.06 129.091C297.716 131.249 295.75 134.236 294.191 136.994C290.776 133.5 286.238 131.044 281.867 128.989C280.984 128.631 280.096 128.285 279.204 127.95C265.924 123.013 250.531 122.655 237.52 128.653C237.231 126.27 236.557 124.232 235.741 121.99C247.314 111.592 252.664 102.189 258.264 88.0203Z"/><path fill="#000900" d="M283.327 91.6L283.657 91.8885C283.994 92.933 281.272 101.546 280.756 103.303C276.796 101.185 262.202 95.0295 260.388 102.947C259.111 108.524 270.206 112.653 274.067 113.908C276.028 114.546 278.199 114.538 279.369 116.253C275.937 116.294 270.112 113.625 266.942 112.219C263.318 110.612 257.071 105.815 259.737 101.268C263.348 95.1059 275.331 99.077 280.031 101.845C280.851 99.2873 282.123 93.5436 283.327 91.6Z"/><path fill="#FE99E1" d="M121.4 44.0852C123.872 43.9334 126.414 44.3001 128.467 45.8384C132.575 48.9158 136.492 52.381 140.429 55.6908L151.455 64.9713C155.975 68.7811 159.532 71.2745 162.946 76.1401C159.904 75.8816 155.878 75.9945 153.072 74.8172C150.11 73.5748 136.048 59.4994 132.188 56.1832C129.982 54.2884 127.522 52.8013 124.497 53.0997C122.624 53.2845 121.02 54.0914 119.609 55.3088C115.438 58.9084 111.7 64.445 108.184 68.7457L86.4028 95.3343C84.985 97.5083 82.3785 100.087 80.7686 102.267C75.1351 109.896 68.0917 113.768 71.1809 124.234C66.6428 125.438 65.1359 126.545 62.0619 130.032C56.3919 123.916 55.8188 118.054 61.1329 111.508C65.1849 106.517 69.3334 101.572 73.4468 96.6277L96.1628 69.2766L108.578 54.3444C112.522 49.6125 114.942 44.9697 121.4 44.0852Z"/><path fill="#FE5A3F" d="M286.383 145.32C287.76 145.164 289.976 145.25 291.425 145.265C290.645 150.216 291.027 155.28 292.541 160.057C288.57 163.007 283.821 164.163 279.087 165.189L274.803 165.784C270.05 155.685 276.026 146.936 286.383 145.32Z"/><path fill="#FEFEFE" d="M366.633 301.107C369.329 297.735 371.809 294.227 375.839 292.186C381.068 289.538 388.13 289.24 393.414 292.012C394.749 292.713 397.583 295.147 398.37 295.395L398.595 295.055L399.453 296.026C399.239 297.318 400.776 298.953 401.395 300.187C404.004 305.386 404.839 310.361 404.092 316.126C409.423 314.253 417.055 311.825 416.759 320.74C416.397 322.14 416.656 323.603 416.273 324.275L416.013 324.105C415.608 329.96 414.385 342.918 412.757 348.361C414.396 348.981 414.679 347.469 415.259 346.23C415.19 348.275 412.97 358.277 412.37 360.912C410.888 367.431 409.835 376.811 407.33 382.686C405.713 386.544 403.299 390.016 400.245 392.874C395.286 397.546 385.328 402.566 379.314 406.343C375.17 408.946 370.007 412.33 365.558 414.258C362.476 415.594 359.738 415.619 356.776 415.671C351.781 415.76 315.168 410.289 313.547 410.715L313.586 410.129L312.66 409.445L342.183 413.277C346.805 413.868 355.595 415.224 359.869 414.851C363.241 414.538 366.481 413.39 369.298 411.51C378.489 405.433 379.059 394.059 380.996 384.123L386.086 358.203C381.346 359.507 379.454 359.581 374.573 359.993C370.196 359.443 367.969 359.574 363.294 358.6C352.413 356.823 334.287 348.159 337.966 334.367C338.239 333.343 339.846 331.064 340.478 330.125C337.661 322.292 338.748 316.916 347.024 313.76C342.049 297.113 355.571 298.52 366.633 301.107Z"/><path fill="#000900" d="M366.633 301.107C369.329 297.735 371.809 294.227 375.839 292.186C381.068 289.538 388.13 289.24 393.414 292.012C394.749 292.713 397.583 295.147 398.37 295.395L398.595 295.055L399.453 296.026C399.239 297.318 400.776 298.953 401.395 300.187C404.004 305.386 404.839 310.361 404.092 316.126C409.423 314.253 417.055 311.825 416.759 320.74C416.397 322.14 416.656 323.603 416.273 324.275L416.013 324.105C415.961 320.194 416.593 316.728 412.314 315.067C408.528 315.306 407.665 315.808 404.123 317.274L404.063 317.603C403.465 321.009 403.232 324.645 402.683 328.146L402.412 328.222C401.612 326.355 403.104 317.513 403.284 314.743C404.315 298.884 392.827 286.262 376.721 292.683C373.162 294.101 369.98 298.464 367.591 301.446C370.745 302.153 378.666 304.4 381.427 305.846L381.557 306.115C379.408 306.266 376.294 305.048 374.195 304.33C364.959 301.169 341.212 294.212 347.976 313.453C349.926 314.375 357.569 316.624 358.373 317.656L358.286 317.926C356.638 318.041 349.647 315.203 347.579 314.482C339.884 317.422 338.584 322.047 341.314 329.461C344.274 330.731 350.402 332.387 352.07 334.255L352.096 334.447C348.633 333.573 344.672 331.742 341.202 330.679C339.259 333.548 337.864 335.666 338.532 339.403C339.406 344.301 342.66 348.406 346.802 351.085C356.557 357.395 371.218 360.26 382.643 358.119C388.47 357.027 393.746 353.412 398.69 350.43C398.795 348.983 399.114 343.482 399.923 342.634C400.707 343.672 399.703 348.803 399.691 350.645C403.943 353.062 409.154 355.316 412.138 349.682C412.369 349.254 412.576 348.813 412.757 348.361C414.396 348.981 414.679 347.469 415.259 346.23C415.19 348.275 412.97 358.277 412.37 360.912C410.888 367.431 409.835 376.811 407.33 382.686C405.713 386.544 403.299 390.016 400.245 392.874C395.286 397.546 385.328 402.566 379.314 406.343C375.17 408.946 370.007 412.33 365.558 414.258C362.476 415.594 359.738 415.619 356.776 415.671C351.781 415.76 315.168 410.289 313.547 410.715L313.586 410.129L312.66 409.445L342.183 413.277C346.805 413.868 355.595 415.224 359.869 414.851C363.241 414.538 366.481 413.39 369.298 411.51C378.489 405.433 379.059 394.059 380.996 384.123L386.086 358.203C381.346 359.507 379.454 359.581 374.573 359.993C370.196 359.443 367.969 359.574 363.294 358.6C352.413 356.823 334.287 348.159 337.966 334.367C338.239 333.343 339.846 331.064 340.478 330.125C337.661 322.292 338.748 316.916 347.024 313.76C342.049 297.113 355.571 298.52 366.633 301.107Z"/><path fill="#00B300" d="M412.546 350.929L413.114 351.347C413.501 352.703 408.905 374.972 408.194 377.703C407.693 379.665 407.015 381.577 406.169 383.417C401.487 393.432 393.11 397.183 384.108 402.584C382.7 403.429 377.25 406.718 375.975 407.175L375.79 406.918L376.074 406.169C380.234 398.877 381.549 385.966 383.409 377.492C384.727 371.491 386.337 363.796 387.207 357.782C391.324 356.258 395.353 353.592 399.056 351.229C404.021 354.493 408.205 355.974 412.546 350.929Z"/><path fill="#99E198" d="M363.294 358.6C367.969 359.574 370.196 359.443 374.573 359.993C372.12 373.064 369.579 384.332 359.171 393.905C353.667 398.92 345.873 402.474 338.366 402.572C335.267 402.651 333.112 399.495 333.89 396.606C335.745 389.718 344.14 392.356 349.673 387.862C358.426 380.755 361.665 369.198 363.294 358.6Z"/><path fill="#000900" d="M89.0056 239.341L89.0436 239.345C89.5091 238.993 89.7195 238.477 90.0391 237.937C88.6202 247.187 86.5248 257.386 84.8338 266.66L74.901 321.163L71.4176 340.29C70.4527 345.604 69.1151 351.506 69.2969 356.839C69.4651 361.775 71.5572 367.211 74.5086 371.13C79.3567 377.568 85.878 381.172 93.8121 382.256C100.166 383.123 106.472 383.823 112.809 384.609L145.455 388.672C150.079 389.236 155.085 389.714 159.651 390.379L158.553 390.671C158.368 391.169 158.366 390.98 158.416 391.467C156.859 390.247 94.4138 383.974 88.2891 381.855C80.4291 379.136 75.5554 375.217 71.2612 367.423C69.0512 363.412 68.193 358.39 68.4535 353.91C68.6973 349.717 69.5717 345.312 70.328 341.19L73.1632 325.784L82.021 277.196L86.5444 251.993C87.102 248.878 88.1469 242.08 89.0056 239.341Z"/><path fill="#FE99E1" d="M91.3021 143.915C95.4856 148.853 99.9538 150.863 105.905 147.051C104.982 150.018 104.777 152.991 103.98 155.931C96.7449 159.172 92.9014 157.287 87.6203 152.149L91.3021 143.915Z"/><path fill="#000900" d="M184.659 393.481C190.002 393.911 198.09 395.264 203.698 395.976L246.486 401.355L273.246 404.649C274.852 404.842 283.951 405.845 284.934 406.14L284.431 406.783C283.606 406.904 276.793 405.96 275.537 405.803L252.366 402.872C230.637 400.067 208.831 397.443 187.084 394.767C186.482 394.693 186.345 394.612 185.816 394.359C185.658 394.092 184.966 393.688 184.659 393.481Z"/><path fill="#000900" d="M105.905 147.051L106.626 147.236L94.1313 215.606C93.9969 214.956 93.8381 214.663 93.5764 214.055C93.7536 211.945 94.7637 207.079 95.1938 204.697L98.8542 184.803L101.955 167.358C102.456 164.537 103.21 159.539 104.1 157.006C96.9817 160.237 92.1327 158.124 86.9552 152.977L87.4961 152.677L87.6203 152.149C92.9014 157.287 96.7449 159.172 103.98 155.931C104.777 152.991 104.982 150.018 105.905 147.051Z"/><path fill="#FEFEFE" d="M243.981 177.116C253.283 177.014 261.034 177.877 270.015 180.538C291.809 186.968 310.144 201.812 320.97 221.789C331.801 241.759 334.27 265.209 327.836 286.996C321.323 308.95 306.284 327.377 286.082 338.159C265.486 349.261 242.174 350.963 219.882 344.268C205.558 339.71 192.685 331.464 182.556 320.358C180.097 317.708 177.782 314.404 175.357 311.582C173.163 310.994 170.715 310.498 168.47 310.066C155.053 307.483 141.58 304.128 128.138 301.768C136.559 292.942 144.437 283.268 152.743 274.305C155.261 271.588 157.961 268.63 160.231 265.729C160.159 216.528 194.363 179.043 243.981 177.116Z"/><path fill="#00B300" d="M241.901 193.355C245.303 192.998 251.675 193.374 255.013 193.816C273.245 196.292 289.754 205.89 300.926 220.509C312.18 235.328 317.056 254.025 314.471 272.452C311.864 290.679 302.132 307.126 287.412 318.186C271.385 330.175 253.131 333.873 233.632 331.06L233.289 330.997C217.662 328.114 203.499 319.953 193.169 307.878C190.192 304.385 187.939 300.895 185.365 297.13C183.515 296.513 178.515 295.603 176.484 295.185L159.099 291.642C164.497 285.118 171.148 278.016 176.827 271.678C176.529 266.872 176.276 261.815 176.628 257.008C177.795 242.051 183.798 227.881 193.73 216.637C206.124 202.547 223.272 194.586 241.901 193.355Z"/><path fill="#FEFEFE" d="M232.833 214.54C245.415 213.784 244.168 224.831 243.483 233.638C243.034 239.405 240.71 242.489 235.267 244.626C233.377 245.368 230.395 246.74 230.666 249.085C231.396 261.517 236.305 273.714 244.583 283.055C248.555 287.538 254.199 279.027 258.876 279.611C261.321 279.761 263.852 281.325 265.424 283.145C268.501 286.709 273.874 293.745 273.797 298.617C273.758 301.017 271.7 303.188 270.075 304.657C267.862 306.36 265.307 307.565 262.586 308.188C252.143 310.572 244.801 305.349 237.886 298.278C227.494 287.566 220.292 274.171 217.088 259.594C213.364 243.156 211.797 219.249 232.833 214.54Z"/><path fill="#000900" d="M116.817 336.206C119.311 336.501 129.766 344.253 132.53 346.224C136.304 348.913 143.49 353.44 146.522 356.58L255.17 371.354C268.779 373.213 282.615 375.248 296.222 376.914C296.637 375.37 297.053 374.28 298.12 373.041C299.524 371.38 301.548 370.368 303.719 370.241C305.942 370.114 308.118 370.914 309.729 372.45C311.74 374.373 312.216 376.393 312.288 379.018C314.991 379.764 323.34 380.105 324.709 381.526C323.422 382.202 314.412 380.629 312.545 380.247L312.169 380.397C311.788 381.094 311.396 381.785 310.992 382.47C307.546 388.24 299.593 387.555 296.823 381.54C296.318 380.442 296.161 379.34 295.952 378.163C291.369 377.188 284.054 376.397 279.25 375.748L249.31 371.673L146.599 357.682C145.813 358.625 145.035 359.82 143.767 360.063C133.689 361.992 123.504 364.393 113.344 365.682C110.706 366.016 110.751 362.754 111.093 360.883C112.488 353.246 113.333 345.325 115.178 337.795C115.293 337.325 116.396 336.52 116.817 336.206Z"/><path fill="#FEFEFE" d="M117.077 337.092C117.253 337.156 117.639 337.301 117.779 337.389C126.702 343.04 135.298 349.367 143.918 355.482C144.444 355.855 144.815 356.226 145.021 356.836C145.004 357.636 145.087 357.825 144.638 358.476C142.882 359.663 138.68 360.173 136.432 360.57C132.302 361.378 115.262 365.091 112.425 364.47C111.596 363.531 111.836 360.867 112.171 359.763C113.609 355.014 114.197 340.166 117.077 337.092Z"/><path fill="#2A63DD" d="M302.624 371.417C306.46 370.552 310.267 372.979 311.1 376.823C311.933 380.666 309.474 384.452 305.624 385.253C301.819 386.045 298.087 383.621 297.263 379.823C296.44 376.025 298.833 372.272 302.624 371.417Z"/><path fill="#99E198" d="M147.694 84.3409C151.846 83.6819 157.954 84.3568 158.466 89.5052C159.173 96.636 152.55 94.7542 148.62 95.3038C134.114 97.5093 131.398 117.201 129.439 129.001C128.684 133.548 128.865 142.418 126.19 145.693C123.898 147.118 121.006 147.881 118.594 146.126C117.858 145.589 116.721 144.148 116.785 143.148C117.622 130.08 119.583 114.7 125.001 102.753C129.275 93.3274 137.704 85.7422 147.694 84.3409Z"/><path fill="#010101" fill-opacity="0.031372551" d="M185.132 451.617C186.077 451.553 187.221 451.392 188.111 451.625C187.226 451.945 186.103 451.716 185.132 451.617Z"/><path fill="#010101" d="M284.934 406.14C292.901 406.75 304.718 408.169 312.66 409.445L313.586 410.129L313.547 410.715C314.403 413.454 315.144 417.155 315.894 419.982C317.783 427.101 322.214 439.765 329.26 443.246C340.437 448.768 358.458 438.77 368.783 435.529C368.056 433.933 367.653 432.819 367.082 431.158L420.704 408.198C421.646 410.489 423.103 413.308 424.169 415.651L431.52 431.871L453.684 481.352C454.894 484.052 461.728 498.38 462.039 500.214C461.093 501.346 451.136 506.535 449.486 506.69C425.83 508.901 409.441 469.184 405.289 454.22C402.702 455.615 383.458 464.823 381.74 464.87C380.425 463.987 379.692 461.476 379.096 459.945C377.847 460.477 376.357 460.976 375.048 461.389C358.506 466.612 337.562 476.075 320.299 469.494C299.732 461.652 292.79 436.445 287.429 417.392C286.515 414.148 286.205 410.631 285.118 407.428C284.889 407.213 284.66 406.998 284.431 406.783L284.934 406.14Z"/><path fill="#FECB43" d="M406.34 415.432C406.507 415.445 406.975 415.619 407.024 415.712C408.745 418.952 412.076 426.401 413.412 429.309L432.596 470.969C427.608 474.89 423.081 478.672 418.865 483.451C412.484 472.508 409.769 464.621 405.829 452.816C404.125 453.784 401.897 454.854 400.114 455.804C398.897 452.727 393.132 440.09 391.345 438.167L391.252 438.388C391.894 440.513 392.724 442.191 393.654 444.188C395.39 447.827 397.48 452.753 399.358 456.117C397.239 456.85 392.972 458.956 390.781 459.965C389.909 457.854 382.961 442.575 381.923 441.955L381.659 442.193C381.717 443.141 388.932 458.266 389.948 460.454C387.706 461.306 384.133 463.092 381.854 464.15C377.619 453.304 372.771 442.355 368.217 431.622C375.379 428.664 382.522 425.657 389.643 422.603C395.088 420.296 401.044 417.919 406.34 415.432Z"/><path fill="#FEFEFE" d="M432.855 472.001C433.521 472.806 436.889 480.341 437.513 481.699C441.218 489.708 444.882 497.736 448.505 505.783C443.561 505.041 442.441 505.134 437.729 502.727C430.176 498.653 423.896 491.421 419.461 484.187C424.34 479.119 427.272 476.352 432.855 472.001Z"/><path fill="#010101" d="M159.651 390.379C162.88 390.666 182.465 392.653 184.659 393.481C184.966 393.688 185.658 394.092 185.816 394.359C184.062 397.084 183.625 445.495 183.751 452.938L187.771 453.098C187.219 472.729 186.789 492.364 186.479 512L84.3615 512C84.017 508.17 83.5177 502.031 83.6041 498.266C83.686 494.702 88.1665 489.777 90.9825 487.58C106.886 475.175 131.586 476.338 150.49 478.508C150.429 469.884 150.227 460.544 150.345 451.996C152.193 452.149 154.845 452.045 156.756 452.025C156.441 440.685 156.634 429.587 157.108 418.261C157.478 409.436 157.632 400.256 158.416 391.467C158.366 390.98 158.368 391.169 158.553 390.671L159.651 390.379Z"/><path fill="#FECB43" d="M151.267 452.986C162.52 453.205 175.86 453.282 186.97 454.002C186.412 458.921 186.415 468.819 186.347 473.991C186.251 481.324 185.762 489.256 185.763 496.465L123.714 496.742C121.888 489.522 120.675 485.699 117.958 478.788C128.232 478.047 141.442 477.947 151.624 479.75C151.527 477.582 151.473 475.412 151.461 473.242C154.312 473.224 170.104 473.242 171.319 472.57C170.287 471.494 154.215 472.283 151.483 472.161C151.468 469.25 151.523 465.825 151.379 462.953C157.12 462.847 164.705 462.978 170.267 462.662L170.198 462.175C165.119 461.5 155.678 462.645 151.435 461.979L151.267 452.986Z"/><path fill="#000900" d="M151.435 461.979C153.476 461.677 171.056 461.36 171.92 461.957C171.714 462.811 171.053 462.647 170.267 462.662L170.198 462.175C165.119 461.5 155.678 462.645 151.435 461.979Z"/><path fill="#FEFEFE" d="M116.765 479.136C118.446 480.185 122.073 494.216 122.69 496.731L91.2403 496.816L84.9668 496.828C85.7211 495.314 86.6303 493.882 87.6797 492.555C94.343 484.135 106.505 480.333 116.765 479.136Z"/></svg>